<?xml version="1.0" ?><!DOCTYPE svg  PUBLIC '-//W3C//DTD SVG 1.1//EN'
        'http://www.w3.org/Graphics/SVG/1.1/DTD/svg11.dtd'>
<svg enable-background="new 0 0 64 64" id="Layer_1" version="1.1" viewBox="0 0 64 64" xml:space="preserve" xmlns="http://www.w3.org/2000/svg" xmlns:xlink="http://www.w3.org/1999/xlink">
    <g>
        <path fill="#42B983" d="M46.1,34.6c0.3-1.8,0.3-3.7-0.1-5.6l2.4-1.7l-1.8-4.1l-2.9,0.6c-1.1-1.5-2.4-2.9-4-3.9l0.5-2.9l-4.1-1.7l-1.6,2.5   c-1.8-0.3-3.7-0.3-5.6,0.1l-1.7-2.4l-4.1,1.8l0.6,2.9c-1.5,1.1-2.9,2.4-3.9,4l-2.9-0.5l-1.7,4.1l2.5,1.6c-0.3,1.8-0.3,3.7,0.1,5.6   l-2.4,1.7l1.8,4.1l2.9-0.6c1.1,1.5,2.4,2.9,4,3.9l-0.5,2.9l4.1,1.7l1.6-2.5c1.8,0.3,3.7,0.3,5.6-0.1l1.7,2.4l4.1-1.8l-0.6-2.9   c1.5-1.1,2.9-2.4,3.9-4l2.9,0.5l1.7-4.1L46.1,34.6z M46,38.7l-2.7-0.5c-1.3,2.1-2.9,3.9-4.8,4.9l0.6,2.7l-1.9,0.8l-1.6-2.3   c-2.2,0.6-4.5,0.7-6.9,0.1l-1.5,2.3L25.3,46l0.5-2.7c-1.9-1-3.6-2.6-4.9-4.8l-2.7,0.6l-0.8-1.9l2.3-1.6c-0.6-2.5-0.7-4.8-0.1-6.9   l-2.3-1.5l0.8-1.9l2.7,0.5c1.2-2.2,2.9-3.8,4.8-4.9l-0.6-2.7l1.9-0.8l1.6,2.3c2.3-0.6,4.6-0.7,6.9-0.1l1.5-2.3l1.9,0.8l-0.5,2.7   c2.1,1.2,3.8,2.8,4.9,4.8l2.7-0.6l0.8,1.9l-2.3,1.6c0.6,2.3,0.7,4.6,0.1,6.9l2.3,1.5L46,38.7z"/>
        <path fill="#42B983" d="M35.2,24.1c-1-0.4-2.1-0.6-3.2-0.6c-3.5,0-6.6,2.1-7.9,5.4c-0.8,2.1-0.8,4.4,0.1,6.5c0.9,2.1,2.6,3.7,4.7,4.6   c1,0.4,2.1,0.6,3.2,0.6c3.5,0,6.6-2.1,7.9-5.4c0.8-2.1,0.8-4.4-0.1-6.5C39,26.5,37.3,24.9,35.2,24.1z M38.6,34.6   c-1.1,2.7-3.7,4.5-6.6,4.5c-0.9,0-1.8-0.2-2.6-0.5c-1.8-0.7-3.1-2-3.9-3.8c-0.7-1.7-0.8-3.7-0.1-5.4c1.1-2.7,3.7-4.5,6.6-4.5   c0.9,0,1.8,0.2,2.6,0.5c1.8,0.7,3.1,2,3.9,3.8C39.3,31,39.3,32.9,38.6,34.6z"/>
        <path fill="#1C90F3" d="M59.1,26.9C57,15.7,48.3,7,37.1,4.9C37,2.2,34.8,0,32,0c-2.8,0-5,2.2-5.1,4.9C15.7,7,7,15.7,4.9,26.9C2.2,27,0,29.2,0,32   c0,2.8,2.2,5,4.9,5.1c2.1,11.2,10.8,19.9,22,22C27,61.8,29.2,64,32,64c2.8,0,5-2.2,5.1-4.9c11.2-2.1,19.9-10.8,22-22   C61.8,37,64,34.8,64,32C64,29.2,61.8,27,59.1,26.9z M32,1.5c2,0,3.7,1.7,3.7,3.7c0,0.1,0,0.2,0,0.3c-0.2,1.9-1.8,3.4-3.7,3.4   c-1.9,0-3.5-1.5-3.7-3.4c0-0.1,0-0.2,0-0.3C28.3,3.1,30,1.5,32,1.5z M5.4,35.7c-2.1,0.2-4-1.5-4-3.7c0-2,1.6-3.7,3.7-3.7   c0.1,0,0.2,0,0.3,0c1.9,0.2,3.4,1.8,3.4,3.7c0,0.2,0,0.5-0.1,0.7C8.4,34.3,7.1,35.5,5.4,35.7L5.4,35.7z M32,62.5   c-2,0-3.7-1.7-3.7-3.7c0-0.1,0-0.2,0-0.3c0.2-1.9,1.8-3.4,3.7-3.4c0.2,0,0.5,0,0.7,0.1c1.6,0.3,2.8,1.7,3,3.3c0,0.1,0,0.2,0,0.3   C35.7,60.9,34,62.5,32,62.5z M37,57.6C37,57.6,36.9,57.6,37,57.6c0.1-0.3-1.1-2.4-1.4-2.4c-3.7-3.4-7.1,0-7.2,0   c-0.3,0-1.5,2.1-1.3,2.3c0,0,0,0.1,0,0.1C16.5,55.6,8.4,47.5,6.4,37c0,0,0.1,0,0.1,0c0.1,0,0.2-0.1,0.3-0.1   c0.2-0.1,0.4-0.1,0.5-0.2c0.1-0.1,0.2-0.2,0.3-0.2c0.6,0,3.9-2.6,2.1-6.6c0-0.3-1.6-2.6-3.4-2.8c0,0-0.1,0-0.1,0   C8.4,16.5,16.5,8.4,27,6.4c0,0,0,0.1,0,0.1c2,6.2,9.5,3.9,9.9,0c0,0,0-0.1,0-0.1c10.5,2,18.6,10.2,20.7,20.7c0,0-0.1,0-0.1,0   c-0.1,0-0.2,0.1-0.3,0.1c-1.7-0.3-5,4-2.6,7.8c-0.2,0.6,2.9,2,2.9,2c0,0,0.1,0,0.1,0C55.6,47.5,47.5,55.6,37,57.6z M58.9,35.7   c-0.1,0-0.2,0-0.3,0c-1.9-0.2-3.4-1.7-3.4-3.7c0-0.2,0-0.5,0.1-0.7c0.3-1.6,1.7-2.8,3.3-3c0.1,0,0.2,0,0.3,0c2,0,3.7,1.6,3.7,3.7   C62.5,34,60.9,35.7,58.9,35.7z"/>
    </g>
</svg>