<?xml version="1.0" ?><!DOCTYPE svg  PUBLIC '-//W3C//DTD SVG 1.1//EN'
        'http://www.w3.org/Graphics/SVG/1.1/DTD/svg11.dtd'>
<svg height="512px" style="enable-background:new 0 0 512 512;" version="1.1" viewBox="0 0 512 512" width="512px" xml:space="preserve" xmlns="http://www.w3.org/2000/svg" xmlns:xlink="http://www.w3.org/1999/xlink"><g id="money_x2C__salary_x2C__earn_x2C__income_x2C__pay_x2C__earnings">
    <g>
        <path d="    M16,432.377h71.534V277.586H16C16,277.586,16,382.156,16,432.377z" style="fill-rule:evenodd;clip-rule:evenodd;fill:none;stroke:#1C90F3;stroke-width:10;stroke-linecap:round;stroke-linejoin:round;"/>
        <path d="M109.451,403.025    L109.451,403.025c33.269,8.98,59.892,21.969,90.538,36.92c3.896,1.902,7.856,3.834,11.9,5.793    c5.707,2.762,11.633,5.844,17.364,8.824c18.854,9.809,38.35,19.949,54.977,21.582c2.111,0.207,4.395,0.313,6.79,0.313h0.002    c12.255,0,26.442-2.715,40.162-5.34c5.83-1.115,11.857-2.268,17.614-3.184c7.686-1.225,15.542-2.229,23.141-3.199    c15.053-1.922,29.271-3.738,40.101-6.953c35.241-10.465,77.297-63.129,79.751-67.238c5.105-8.652,5.693-23.217,1.065-26.41    c-3.194-2.203-6.653-3.275-10.575-3.275c-11.484,0-25.407,9.109-38.872,17.92c-9.161,5.992-18.632,12.189-27.636,15.662    c-17.183,6.631-34.41,9.854-52.664,9.854c-30.872,0.002-59.793-9.68-81.539-18.111l-15.635-6.063l16.043-4.881    c6.241-1.9,14.042-2.824,23.85-2.824c11.295,0,24.074,1.219,36.434,2.398c12.273,1.174,24.966,2.383,36.045,2.383    c16.355,0,26.765-2.707,31.823-8.279c3.392-3.738,4.696-9.127,3.984-16.473c-2.105-21.713-34.989-23.924-69.806-26.264    c-16.591-1.115-33.747-2.27-47.637-5.834c-10.241-2.627-20.327-7.424-31.006-12.502c-17.681-8.41-35.965-17.104-58.664-18.281    c-3.189-0.164-6.461-0.248-9.724-0.248c-33.287,0-64.357,8.598-87.798,15.438" style="fill:none;stroke:#1C90F3;stroke-width:10;stroke-linecap:round;stroke-linejoin:round;"/><g><ellipse cx="350.847" cy="63.764" rx="79.246" ry="28.221" style="fill-rule:evenodd;clip-rule:evenodd;fill:none;stroke:#42B983;stroke-width:10;stroke-linecap:round;stroke-linejoin:round;"/><path d="     M430.095,107.382c-12.728,10.313-43.414,17.585-79.247,17.585c-35.43,0-65.827-7.107-78.812-17.236" style="fill-rule:evenodd;clip-rule:evenodd;fill:none;stroke:#42B983;stroke-width:10;stroke-linecap:round;stroke-linejoin:round;"/><path d="     M430.095,140.364c-12.728,10.314-43.414,17.585-79.247,17.585c-35.43,0-65.827-7.106-78.812-17.235" style="fill-rule:evenodd;clip-rule:evenodd;fill:none;stroke:#42B983;stroke-width:10;stroke-linecap:round;stroke-linejoin:round;"/><path d="     M430.095,173.346c-12.728,10.314-43.414,17.584-79.247,17.584c-35.43,0-65.827-7.105-78.812-17.234" style="fill-rule:evenodd;clip-rule:evenodd;fill:none;stroke:#42B983;stroke-width:10;stroke-linecap:round;stroke-linejoin:round;"/><path d="     M430.095,206.328c-12.728,10.314-43.414,17.585-79.247,17.585c-35.43,0-65.827-7.106-78.812-17.235" style="fill-rule:evenodd;clip-rule:evenodd;fill:none;stroke:#42B983;stroke-width:10;stroke-linecap:round;stroke-linejoin:round;"/><path d="     M430.095,239.31c-12.728,10.314-43.414,17.585-79.247,17.585c-35.43,0-65.827-7.106-78.812-17.235" style="fill-rule:evenodd;clip-rule:evenodd;fill:none;stroke:#42B983;stroke-width:10;stroke-linecap:round;stroke-linejoin:round;"/></g></g></g><g id="Layer_1"/></svg>