<svg width="512" height="512" xmlns="http://www.w3.org/2000/svg">

 <g>
  <title>background</title>
  <rect fill="none" id="canvas_background" height="402" width="582" y="-1" x="-1"/>
 </g>
 <g>
  <title>Layer 1</title>
  <path fill="#438eed" id="XMLID_91_" d="m41.6,201l428.8,0c3.5,0 6.3,-2.8 6.3,-6.3l0,-23.3c0,-2 -0.9,-3.9 -2.5,-5.1l-214.5,-159.1c-2.2,-1.7 -5.3,-1.7 -7.5,0l-214.3,159.2c-1.6,1.2 -2.5,3.1 -2.5,5.1l0,23.3c-0.1,3.4 2.7,6.2 6.2,6.2z"/>
  <path fill="#438eed" id="XMLID_136_" d="m482.6,477.4l-453.2,0c-3.5,0 -6.3,2.8 -6.3,6.3l0,16c0,3.5 2.8,6.3 6.3,6.3l453.2,0c3.5,0 6.3,-2.8 6.3,-6.3l0,-16c0,-3.5 -2.8,-6.3 -6.3,-6.3z"/>
  <path fill="#438eed" id="XMLID_155_" d="m45.5,443.1l0,16c0,3.5 2.8,6.3 6.3,6.3l408.4,0c3.5,0 6.3,-2.8 6.3,-6.3l0,-16c0,-3.5 -2.8,-6.3 -6.3,-6.3l-408.4,0c-3.5,0 -6.3,2.8 -6.3,6.3z"/>
  <path fill="#09cb33" id="XMLID_123_" d="m438.3,235.6c1.8,0 3.3,-1.5 3.3,-3.3l0,-9.5c0,-1.8 -1.5,-3.3 -3.3,-3.3l-56.8,0c-1.8,0 -3.3,1.5 -3.3,3.3l0,9.5c0,1.8 1.5,3.3 3.3,3.3l5.6,0l0,168.9l-5.6,0c-1.8,0 -3.3,1.5 -3.3,3.3l0,9.5c0,1.8 1.5,3.3 3.3,3.3l56.8,0c1.8,0 3.3,-1.5 3.3,-3.3l0,-9.5c0,-1.8 -1.5,-3.3 -3.3,-3.3l-5.6,0l0,-168.9l5.6,0z"/>
  <path fill="#09cb33" id="XMLID_198_" d="m335.7,235.6c1.8,0 3.3,-1.5 3.3,-3.3l0,-9.5c0,-1.8 -1.5,-3.3 -3.3,-3.3l-56.8,0c-1.8,0 -3.3,1.5 -3.3,3.3l0,9.5c0,1.8 1.5,3.3 3.3,3.3l5.6,0l0,168.9l-5.6,0c-1.8,0 -3.3,1.5 -3.3,3.3l0,9.5c0,1.8 1.5,3.3 3.3,3.3l56.8,0c1.8,0 3.3,-1.5 3.3,-3.3l0,-9.5c0,-1.8 -1.5,-3.3 -3.3,-3.3l-5.6,0l0,-168.9l5.6,0z"/>
  <path fill="#09cb33" id="XMLID_92_" d="m233.1,235.6c1.8,0 3.3,-1.5 3.3,-3.3l0,-9.5c0,-1.8 -1.5,-3.3 -3.3,-3.3l-56.8,0c-1.8,0 -3.3,1.5 -3.3,3.3l0,9.5c0,1.8 1.5,3.3 3.3,3.3l5.6,0l0,168.9l-5.6,0c-1.8,0 -3.3,1.5 -3.3,3.3l0,9.5c0,1.8 1.5,3.3 3.3,3.3l56.8,0c1.8,0 3.3,-1.5 3.3,-3.3l0,-9.5c0,-1.8 -1.5,-3.3 -3.3,-3.3l-5.6,0l0,-168.9l5.6,0z"/>
  <path fill="#09cb33" id="XMLID_122_" d="m130.6,235.6c1.8,0 3.3,-1.5 3.3,-3.3l0,-9.5c0,-1.8 -1.5,-3.3 -3.3,-3.3l-56.9,0c-1.8,0 -3.3,1.5 -3.3,3.3l0,9.5c0,1.8 1.5,3.3 3.3,3.3l5.6,0l0,168.9l-5.6,0c-1.8,0 -3.3,1.5 -3.3,3.3l0,9.5c0,1.8 1.5,3.3 3.3,3.3l56.8,0c1.8,0 3.3,-1.5 3.3,-3.3l0,-9.5c0,-1.8 -1.5,-3.3 -3.3,-3.3l-5.6,0l0,-168.9l5.7,0z"/>
 </g>
</svg>