<?xml version="1.0" encoding="UTF-8"?>
<svg width="64px" height="64px" viewBox="0 0 64 64" version="1.1" xmlns="http://www.w3.org/2000/svg" xmlns:xlink="http://www.w3.org/1999/xlink">
    <!-- Generator: Sketch 53.2 (72643) - https://sketchapp.com -->
    <title>intuitive</title>
    <desc>Created with Sketch.</desc>
    <g id="Site" stroke="none" stroke-width="1" fill="none" fill-rule="evenodd">
        <g id="Platform" transform="translate(-719.000000, -1012.000000)" fill-rule="nonzero">
            <g id="features" transform="translate(121.000000, 918.000000)">
                <g id="intuitive" transform="translate(598.000000, 94.000000)">
                    <path d="M46.1,34.6 C46.4,32.8 46.4,30.9 46,29 L48.4,27.3 L46.6,23.2 L43.7,23.8 C42.6,22.3 41.3,20.9 39.7,19.9 L40.2,17 L36.1,15.3 L34.5,17.8 C32.7,17.5 30.8,17.5 28.9,17.9 L27.2,15.5 L23.1,17.3 L23.7,20.2 C22.2,21.3 20.8,22.6 19.8,24.2 L16.9,23.7 L15.2,27.8 L17.7,29.4 C17.4,31.2 17.4,33.1 17.8,35 L15.4,36.7 L17.2,40.8 L20.1,40.2 C21.2,41.7 22.5,43.1 24.1,44.1 L23.6,47 L27.7,48.7 L29.3,46.2 C31.1,46.5 33,46.5 34.9,46.1 L36.6,48.5 L40.7,46.7 L40.1,43.8 C41.6,42.7 43,41.4 44,39.8 L46.9,40.3 L48.6,36.2 L46.1,34.6 Z M46,38.7 L43.3,38.2 C42,40.3 40.4,42.1 38.5,43.1 L39.1,45.8 L37.2,46.6 L35.6,44.3 C33.4,44.9 31.1,45 28.7,44.4 L27.2,46.7 L25.3,46 L25.8,43.3 C23.9,42.3 22.2,40.7 20.9,38.5 L18.2,39.1 L17.4,37.2 L19.7,35.6 C19.1,33.1 19,30.8 19.6,28.7 L17.3,27.2 L18.1,25.3 L20.8,25.8 C22,23.6 23.7,22 25.6,20.9 L25,18.2 L26.9,17.4 L28.5,19.7 C30.8,19.1 33.1,19 35.4,19.6 L36.9,17.3 L38.8,18.1 L38.3,20.8 C40.4,22 42.1,23.6 43.2,25.6 L45.9,25 L46.7,26.9 L44.4,28.5 C45,30.8 45.1,33.1 44.5,35.4 L46.8,36.9 L46,38.7 Z" id="Shape" fill="#42B983"></path>
                    <path d="M35.2,24.1 C34.2,23.7 33.1,23.5 32,23.5 C28.5,23.5 25.4,25.6 24.1,28.9 C23.3,31 23.3,33.3 24.2,35.4 C25.1,37.5 26.8,39.1 28.9,40 C29.9,40.4 31,40.6 32.1,40.6 C35.6,40.6 38.7,38.5 40,35.2 C40.8,33.1 40.8,30.8 39.9,28.7 C39,26.5 37.3,24.9 35.2,24.1 Z M38.6,34.6 C37.5,37.3 34.9,39.1 32,39.1 C31.1,39.1 30.2,38.9 29.4,38.6 C27.6,37.9 26.3,36.6 25.5,34.8 C24.8,33.1 24.7,31.1 25.4,29.4 C26.5,26.7 29.1,24.9 32,24.9 C32.9,24.9 33.8,25.1 34.6,25.4 C36.4,26.1 37.7,27.4 38.5,29.2 C39.3,31 39.3,32.9 38.6,34.6 Z" id="Shape" fill="#42B983"></path>
                    <path d="M59.1,26.9 C57,15.7 48.3,7 37.1,4.9 C37,2.2 34.8,0 32,0 C29.2,0 27,2.2 26.9,4.9 C15.7,7 7,15.7 4.9,26.9 C2.2,27 0,29.2 0,32 C0,34.8 2.2,37 4.9,37.1 C7,48.3 15.7,57 26.9,59.1 C27,61.8 29.2,64 32,64 C34.8,64 37,61.8 37.1,59.1 C48.3,57 57,48.3 59.1,37.1 C61.8,37 64,34.8 64,32 C64,29.2 61.8,27 59.1,26.9 Z M32,1.5 C34,1.5 35.7,3.2 35.7,5.2 C35.7,5.3 35.7,5.4 35.7,5.5 C35.5,7.4 33.9,8.9 32,8.9 C30.1,8.9 28.5,7.4 28.3,5.5 C28.3,5.4 28.3,5.3 28.3,5.2 C28.3,3.1 30,1.5 32,1.5 Z M5.4,35.7 C3.3,35.9 1.4,34.2 1.4,32 C1.4,30 3,28.3 5.1,28.3 C5.2,28.3 5.3,28.3 5.4,28.3 C7.3,28.5 8.8,30.1 8.8,32 C8.8,32.2 8.8,32.5 8.7,32.7 C8.4,34.3 7.1,35.5 5.4,35.7 L5.4,35.7 Z M32,62.5 C30,62.5 28.3,60.8 28.3,58.8 C28.3,58.7 28.3,58.6 28.3,58.5 C28.5,56.6 30.1,55.1 32,55.1 C32.2,55.1 32.5,55.1 32.7,55.2 C34.3,55.5 35.5,56.9 35.7,58.5 C35.7,58.6 35.7,58.7 35.7,58.8 C35.7,60.9 34,62.5 32,62.5 Z M37,57.6 C37,57.6 36.9,57.6 37,57.6 C37.1,57.3 35.9,55.2 35.6,55.2 C31.9,51.8 28.5,55.2 28.4,55.2 C28.1,55.2 26.9,57.3 27.1,57.5 C27.1,57.5 27.1,57.6 27.1,57.6 C16.5,55.6 8.4,47.5 6.4,37 C6.4,37 6.5,37 6.5,37 C6.6,37 6.7,36.9 6.8,36.9 C7,36.8 7.2,36.8 7.3,36.7 C7.4,36.6 7.5,36.5 7.6,36.5 C8.2,36.5 11.5,33.9 9.7,29.9 C9.7,29.6 8.1,27.3 6.3,27.1 C6.3,27.1 6.2,27.1 6.2,27.1 C8.4,16.5 16.5,8.4 27,6.4 C27,6.4 27,6.5 27,6.5 C29,12.7 36.5,10.4 36.9,6.5 C36.9,6.5 36.9,6.4 36.9,6.4 C47.4,8.4 55.5,16.6 57.6,27.1 C57.6,27.1 57.5,27.1 57.5,27.1 C57.4,27.1 57.3,27.2 57.2,27.2 C55.5,26.9 52.2,31.2 54.6,35 C54.4,35.6 57.5,37 57.5,37 C57.5,37 57.6,37 57.6,37 C55.6,47.5 47.5,55.6 37,57.6 Z M58.9,35.7 C58.8,35.7 58.7,35.7 58.6,35.7 C56.7,35.5 55.2,34 55.2,32 C55.2,31.8 55.2,31.5 55.3,31.3 C55.6,29.7 57,28.5 58.6,28.3 C58.7,28.3 58.8,28.3 58.9,28.3 C60.9,28.3 62.6,29.9 62.6,32 C62.5,34 60.9,35.7 58.9,35.7 Z" id="Shape" fill="#1C90F3"></path>
                </g>
            </g>
        </g>
    </g>
</svg>