<svg xmlns="http://www.w3.org/2000/svg" width="181" height="256" viewBox="0 0 181 256">
  <path fill="#00DE72" d="M29.4543642,254.999885 C27.6559826,257.012938 25.085826,255.364569 25.085826,255.364569 C24.1089943,256.13768 22.0024612,255.674571 22.0023661,255.67455 C3.75765148,251.709225 0.982416215,239.71357 0.982416215,239.71357 C0.0626169881,237.498775 1.03333866,236.674578 1.03338249,236.674541 C-0.868145123,233.332825 1.03338249,231.32585 1.03338249,231.32585 C5.91511375,219.792388 21.0770074,196.110652 21.0776921,196.109583 C24.9317136,189.217065 41.2749006,167.019998 41.2749006,167.019998 L57.3110764,144.573731 C71.6492659,124.133684 78.9993233,111.468337 78.9996553,111.467765 L93.1828428,88.3006399 L107.744637,64.9900725 C120.702207,44.2286426 149.731143,3.70379982 149.731143,3.70379982 C151.857117,0.110533165 154.513359,0.577225793 154.513479,0.577246871 C155.184535,-0.485197638 160.159815,0.244169302 160.159815,0.244169302 C177.364575,4.36995496 181.188259,23.6677886 181.188259,23.6677886 C180.8267,27.592358 176.237533,27.5273766 176.236036,27.5273553 C178.443361,29.5136646 176.601294,32.0275493 176.601294,32.0275493 L168.121476,43.2512909 L159.333433,55.8644765 C149.051593,70.950216 140.160404,84.7474073 140.160404,84.7474073 L119.652544,117.750046 L106.238705,139.527727 L93.6403258,159.345842 C91.9450903,162.280329 70.564736,190.854494 70.564736,190.854494 C57.4591213,207.278622 43.3827203,229.107359 43.3827203,229.107359 C35.0050239,242.488509 29.4546149,254.99932 29.4543642,254.999885 Z M151.193973,15.2480589 C155.795811,19.8686703 168.782174,29.0190314 168.782174,29.0202429 C170.401912,25.5481212 173.948259,25.985468 173.948259,25.985468 C173.572094,25.7080375 173.125398,24.1682376 173.125398,24.1682376 C172.632918,21.2025174 169.180612,15.937395 169.180612,15.937395 C163.428006,7.31645369 156.336548,8.32804532 156.336548,8.32804532 L151.193973,15.2480589 Z M146.541164,22.8016194 C143.500689,26.757588 131.548645,44.833828 131.542545,44.833828 C140.224736,46.116713 149.843959,55.9676113 149.843959,55.9676113 L163.605402,36.424346 C157.155984,32.2317998 146.541164,22.8016194 146.541164,22.8016194 Z M127.228131,50.7955002 C123.524257,57.0720433 116.04004,68.5159561 116.04004,68.5222227 C115.942602,69.0486101 116.481594,69.023544 116.481594,69.023544 C118.272478,70.9924835 120.997039,71.8409699 120.997039,71.8409699 L130.786464,75.9768709 C134.417568,77.1236435 135.055231,78.7692308 135.055231,78.7692308 L146.022545,61.6415873 C145.139437,60.5687597 141.114882,57.2287063 141.114882,57.2287063 C132.602016,50.2478066 127.228131,50.7955002 127.228131,50.7955002 Z M110.975653,75.659919 L99.4796877,93.6646441 C100.84557,93.9302917 101.311605,95.2597649 101.311605,95.2597649 C102.244917,97.152658 106.343802,99.3124343 106.343802,99.3124343 C106.343802,99.3124343 112.574553,102.833809 114.474641,103.896399 C116.374729,104.958989 116.607747,106.753036 116.607747,106.753036 L130.508259,84.5955608 C129.981108,84.598699 129.458617,84.4970489 128.971332,84.2965529 C126.804761,83.1005212 121.673408,81.1742676 121.673408,81.1742676 C114.174692,78.7154835 110.975653,75.659919 110.975653,75.659919 Z M96.1526383,101.57085 L84.9996877,118.991828 C85.8026228,119.02339 86.4775714,119.606072 86.4775714,119.606072 C88.8887917,120.477667 97.5025353,126.360328 99.977749,128.040394 C102.452963,129.720461 102.356369,131.62753 102.356369,131.62753 L113.959688,112.463362 C112.12803,112.787479 111.323887,112.076121 111.323887,112.076121 C104.06004,108.325106 100.490903,105.642341 100.490903,105.642341 C98.3404857,104.387147 96.1526383,101.57085 96.1526383,101.57085 Z M79.6853718,124.37247 L69.485402,139.744311 C76.7478582,142.891713 83.9399111,148.700867 83.9399111,148.700867 C87.3751027,151.024778 88.1034119,152.356275 88.1034119,152.356275 L98.445402,135.484015 C97.7595775,135.677778 96.8370526,135.338693 96.8370526,135.338693 C96.0092078,135.09649 94.8730455,134.007196 94.8730455,134.007196 C89.5733825,129.795341 79.6853718,124.37247 79.6853718,124.37247 Z M64.8779648,146.137652 L52.9368305,163.171677 C53.2358147,162.921919 55.5450416,163.116312 55.5450416,163.116312 C57.9053147,163.282408 68.9956811,170.729642 68.9956811,170.729642 L73.1948281,172.924564 C73.6347966,173.341649 73.8535655,172.813834 73.8535655,172.813834 L83.7358416,158.641574 C83.9086766,158.527545 83.9957392,158.318653 83.9558258,158.113759 C83.2144424,158.281085 82.473059,157.614242 82.473059,157.614242 C77.120514,152.750717 67.7049448,147.694029 67.7049448,147.694029 C66.663444,147.386029 65.6993972,146.855279 64.8779648,146.137652 Z M49.8614144,167.902834 L40.6713166,181.114127 C40.5952435,181.152241 40.542149,181.224843 40.5287164,181.309121 C40.5152838,181.393398 40.5431621,181.479006 40.6035911,181.539044 C50.1190129,185.34752 57.8070577,193.624913 57.8070577,193.624913 C58.2762981,194.04983 58.4117489,193.624913 58.4117489,193.624913 C58.4117489,193.624913 68.2319351,180.825183 68.4133425,180.383269 C68.5947499,179.941355 68.063831,179.856371 68.063831,179.856371 L53.9418711,171.935908 C50.0512875,172.506512 49.8614144,167.902834 49.8614144,167.902834 Z M24.1278316,207.879263 C23.7880792,208.420439 24.1278316,208.593861 24.1278316,208.593861 C35.5746896,209.255572 42.1748991,217.641337 42.1748991,217.641337 C42.3337673,217.678267 42.4991184,217.615821 42.5950232,217.482674 L53.7264836,201.530286 C54.276907,201.185902 53.7264836,200.895635 53.7264836,200.895635 C53.4123039,200.895635 53.2820046,200.498363 53.2820046,200.498363 C45.3447046,193.090403 38.8224311,189.837198 38.8224311,189.837198 C38.1749351,189.627956 37.577431,189.285379 37.0676521,188.831103 C36.5963825,188.382173 36.4125021,188.831103 36.4125021,188.831103 C33.4265771,193.090403 24.1278316,207.879263 24.1278316,207.879263 Z M18.9158083,215.628419 L8.46254482,235.487577 C8.82988082,235.709101 9.1363996,236.390997 9.1363996,236.390997 C11.7320785,246.086058 24.5973529,247.708502 24.5973529,247.708502 C29.0832309,236.957801 37.2947718,224.021565 37.2947718,224.021565 C37.6535934,223.598319 37.1427287,223.444861 37.1427287,223.444861 C30.8359832,216.109831 23.5379169,215.340067 21.8350348,215.628419 C20.1321527,215.916771 18.9158083,215.628419 18.9158083,215.628419 Z" transform="translate(-.188)"/>
</svg>
