<svg xmlns="http://www.w3.org/2000/svg" width="336" height="369" viewBox="0 0 336 369">
  <g fill="#00DE72">
    <path d="M170.211939,26.5595967 C172.346093,28.4760748 170.565089,30.9015808 170.565089,30.9015808 L162.36637,41.7307377 L153.869643,53.900491 C143.928638,68.4558725 135.332184,81.7680063 135.332184,81.7680063 L115.504143,113.610396 L102.534961,134.622455 L90.3542081,153.74384 C88.7151682,156.575161 68.043555,184.144766 68.043555,184.144766 C55.3723806,199.991483 41.7626006,221.052803 41.7626006,221.052803 C33.6626179,233.963522 28.2962003,246.0345 28.295958,246.035045 C26.5571912,247.977327 24.0722331,246.386908 24.0722331,246.386908 C23.1277827,247.13284 21.0910794,246.686011 21.0909874,246.685991 C3.45106997,242.860072 0.767831456,231.28614 0.767831456,231.28614 C-0.121477189,229.149209 0.81706586,228.353987 0.817108244,228.353952 C-1.02138531,225.129718 0.817108246,223.193301 0.817108246,223.193301 C5.53701416,212.065312 20.1963036,189.216137 20.1969656,189.215105 C23.9232295,182.564903 39.7246534,161.148201 39.7246534,161.148201 L55.2292432,139.49106 C69.0921337,119.769609 76.1985428,107.549528 76.1988637,107.548977 L89.9118903,85.1963206 L103.990973,62.7052653 C116.51901,42.6737294 144.585662,3.57358811 144.585662,3.57358811 C146.641161,0.106647234 149.209351,0.556932699 149.209467,0.556953035 C149.858278,-0.468139908 154.668631,0.235585225 154.668631,0.235585225 C171.303068,4.21632373 175,22.8357179 175,22.8357179 C174.650369,26.622932 170.211939,26.5595967 170.211939,26.5595967 Z M146,14.7119944 C150.44929,19.1701623 163.005166,27.9988311 163.005166,28 C164.571211,24.6499451 168,25.0719164 168,25.0719164 C167.636304,24.8042393 167.204416,23.318573 167.204416,23.318573 C166.728261,20.4571164 163.390396,15.377096 163.390396,15.377096 C157.828484,7.05923461 150.972103,8.03526247 150.972103,8.03526247 L146,14.7119944 Z M141.501427,22 C138.561741,25.8168916 127.005898,43.2576387 127,43.2576387 C135.394383,44.4954223 144.694737,54 144.694737,54 L158,35.1438026 C151.764375,31.0986506 141.501427,22 141.501427,22 Z M122.828605,49.0097209 C119.247512,55.0656043 112.011391,66.1071921 112.011391,66.1132383 C111.917183,66.6211199 112.438307,66.596935 112.438307,66.596935 C114.169825,68.496654 116.804069,69.3153108 116.804069,69.3153108 L126.268983,73.3058091 C129.779718,74.4122654 130.396244,76 130.396244,76 L141,59.4745003 C140.146166,58.4393892 136.255022,55.2167595 136.255022,55.2167595 C128.024351,48.4812822 122.828605,49.0097209 122.828605,49.0097209 Z M107.114884,73 L96,90.3717465 C97.320604,90.6280548 97.7711912,91.9107888 97.7711912,91.9107888 C98.673564,93.7371349 102.636574,95.8209815 102.636574,95.8209815 C102.636574,95.8209815 108.660781,99.2185575 110.497883,100.243791 C112.334984,101.269024 112.560278,103 112.560278,103 L126,81.6214981 C125.490323,81.624526 124.985153,81.5264495 124.514021,81.3330022 C122.41927,80.1790185 117.458017,78.3204848 117.458017,78.3204848 C110.207877,75.9481423 107.114884,73 107.114884,73 Z M92.7832395,98 L82,114.808522 C82.7763185,114.838974 83.4288931,115.401171 83.4288931,115.401171 C85.7601834,116.242124 94.0883886,121.917973 96.481551,123.538974 C98.8747134,125.159976 98.7813217,127 98.7813217,127 L110,108.509572 C108.22906,108.822294 107.451574,108.135945 107.451574,108.135945 C100.428518,104.516801 96.9776944,101.928352 96.9776944,101.928352 C94.8985616,100.717286 92.7832395,98 92.7832395,98 Z M76.8618493,120 L67,134.831425 C74.0217118,137.868176 80.9753542,143.473103 80.9753542,143.473103 C84.296672,145.715313 85.0008383,147 85.0008383,147 L95,130.720905 C94.3369101,130.907856 93.444966,130.580692 93.444966,130.580692 C92.6445637,130.347004 91.5460642,129.296005 91.5460642,129.296005 C86.4220806,125.232224 76.8618493,120 76.8618493,120 Z M62.5452956,141 L51,157.435173 C51.289073,157.194195 53.5217511,157.381754 53.5217511,157.381754 C55.803783,157.542011 66.526513,164.727428 66.526513,164.727428 L70.5864617,166.845185 C71.0118456,167.247606 71.2233625,166.738348 71.2233625,166.738348 L80.7780493,153.064331 C80.945155,152.954311 81.0293316,152.752763 80.9907413,152.555072 C80.2739341,152.716516 79.557127,152.073116 79.557127,152.073116 C74.3820144,147.380575 65.2785635,142.501661 65.2785635,142.501661 C64.2715876,142.204489 63.3394982,141.692398 62.5452956,141 Z M48.0265314,162 L39.1410776,174.746833 C39.0675264,174.783607 39.0161918,174.853657 39.0032046,174.934972 C38.9902173,175.016286 39.0171714,175.098885 39.0755973,175.156812 C48.2755907,178.831396 55.7087831,186.817787 55.7087831,186.817787 C56.1624686,187.227766 56.2934294,186.817787 56.2934294,186.817787 C56.2934294,186.817787 65.7880845,174.468048 65.9634784,174.041669 C66.1388723,173.615291 65.6255529,173.533296 65.6255529,173.533296 L51.9717243,165.891287 C48.2101103,166.44183 48.0265314,162 48.0265314,162 Z M23.1459955,200.571008 C22.8175056,201.093158 23.1459955,201.260483 23.1459955,201.260483 C34.2133996,201.89893 40.5948177,209.989884 40.5948177,209.989884 C40.7484195,210.025516 40.9082894,209.965265 41.001015,209.836799 L51.7634768,194.445237 C52.2956541,194.11296 51.7634768,193.832898 51.7634768,193.832898 C51.4597118,193.832898 51.3337318,193.449592 51.3337318,193.449592 C43.6595467,186.302069 37.3534812,183.163234 37.3534812,183.163234 C36.7274492,182.961348 36.1497518,182.630815 35.6568717,182.19251 C35.2012243,181.759363 35.0234394,182.19251 35.0234394,182.19251 C32.1364953,186.302069 23.1459955,200.571008 23.1459955,200.571008 Z M18.1067465,208.047733 L8,227.208717 C8.35515912,227.422453 8.65151705,228.080376 8.65151705,228.080376 C11.1611513,237.434595 23.5999526,239 23.5999526,239 C27.9371275,228.627253 35.8764625,216.145807 35.8764625,216.145807 C36.2233895,215.73744 35.7294596,215.589378 35.7294596,215.589378 C29.6317774,208.51222 22.575636,207.769518 20.929203,208.047733 C19.2827701,208.325947 18.1067465,208.047733 18.1067465,208.047733 Z"/>
    <path d="M166.550125,26.021953 C168.635499,27.8996361 166.895203,30.2760427 166.895203,30.2760427 L158.883883,40.8859859 L150.581368,52.8093879 C140.867585,67.0701261 132.467622,80.1127835 132.467622,80.1127835 L113.092793,111.31059 L100.42005,131.897304 L88.517714,150.631617 C86.9161379,153.405623 66.7170187,180.417139 66.7170187,180.417139 C54.3354711,195.943072 41.0367718,216.57805 41.0367718,216.57805 C33.1219316,229.227418 27.878175,241.054045 27.8779382,241.054579 C26.1789147,242.957543 23.7507556,241.399319 23.7507556,241.399319 C22.8278926,242.130151 20.8377425,241.692367 20.8376526,241.692348 C3.60093331,237.943876 0.979025962,226.604234 0.979025962,226.604234 C0.110044372,224.510561 1.02713501,223.731437 1.02717642,223.731402 C-0.769294418,220.572436 1.02717643,218.675218 1.02717643,218.675218 C5.63919877,207.772492 19.9634188,185.385851 19.9640656,185.38484 C23.6051578,178.869257 39.0454062,157.886092 39.0454062,157.886092 L54.1956055,136.667355 C67.7416298,117.345123 74.6856067,105.372412 74.6859203,105.371872 L88.0855063,83.4716987 L101.842781,61.4359279 C114.084463,41.8098887 141.509591,3.50124827 141.509591,3.50124827 C143.518108,0.104488383 146.027596,0.545658758 146.02771,0.545678682 C146.661691,-0.458663392 151.362093,0.230816293 151.362093,0.230816293 C167.616314,4.13097305 171.228745,22.3734564 171.228745,22.3734564 C170.887106,26.0840062 166.550125,26.021953 166.550125,26.021953 Z M142.891602,14.4141807 C147.239194,18.7821024 159.508079,27.4320531 159.508079,27.4331984 C161.038328,24.1509584 164.388745,24.5643878 164.388745,24.5643878 C164.033362,24.3021292 163.611345,22.8465371 163.611345,22.8465371 C163.146075,20.0430048 159.884504,15.0658187 159.884504,15.0658187 C154.449721,6.91633513 147.750057,7.87260534 147.750057,7.87260534 L142.891602,14.4141807 Z M138.495854,21.5546559 C135.623361,25.2942824 124.331651,42.381978 124.325888,42.381978 C132.5284,43.5947052 141.616174,52.9068826 141.616174,52.9068826 L154.617316,34.4323896 C148.52422,30.4691232 138.495854,21.5546559 138.495854,21.5546559 Z M120.249839,48.0176213 C116.7506,53.950916 109.679875,64.7689898 109.679875,64.7749136 C109.587821,65.2725142 110.097034,65.2488189 110.097034,65.2488189 C111.788974,67.1100821 114.363007,67.9121669 114.363007,67.9121669 L123.61158,71.8218858 C127.04207,72.9059442 127.644503,74.4615385 127.644503,74.4615385 L138.005888,58.270563 C137.17157,57.2564056 133.369366,54.0990114 133.369366,54.0990114 C125.326825,47.4998797 120.249839,48.0176213 120.249839,48.0176213 Z M104.895288,71.5222672 L94.0344592,88.5423589 C95.324878,88.7934788 95.765166,90.0502465 95.765166,90.0502465 C96.6469131,91.8396221 100.51934,93.8812855 100.51934,93.8812855 C100.51934,93.8812855 106.405851,97.2100847 108.200962,98.2145644 C109.996073,99.2190442 110.216217,100.91498 110.216217,100.91498 L123.348745,79.9692411 C122.850718,79.9722076 122.357094,79.8761165 121.896731,79.6865851 C119.84986,78.5559614 115.002007,76.7350499 115.002007,76.7350499 C107.917585,74.4107305 104.895288,71.5222672 104.895288,71.5222672 Z M90.8912247,96.0161943 L80.3544592,112.484463 C81.1130333,112.514299 81.7506919,113.065115 81.7506919,113.065115 C84.0286956,113.889045 92.1665418,119.449997 94.5050033,121.038185 C96.8434649,122.626373 96.7522078,124.42915 96.7522078,124.42915 L107.714459,106.313022 C105.983998,106.619414 105.224283,105.946958 105.224283,105.946958 C98.3617538,102.401077 94.9898063,99.8650252 94.9898063,99.8650252 C92.9581966,98.6784745 90.8912247,96.0161943 90.8912247,96.0161943 Z M75.3337519,117.57085 L65.6973164,132.102044 C72.5585319,135.077322 79.3532339,140.568789 79.3532339,140.568789 C82.5986358,142.76561 83.2867069,144.024292 83.2867069,144.024292 L93.0573164,128.074733 C92.4093828,128.2579 91.5378261,127.937359 91.5378261,127.937359 C90.7557186,127.708401 89.6823277,126.678677 89.6823277,126.678677 C84.6754637,122.697158 75.3337519,117.57085 75.3337519,117.57085 Z M61.3444337,138.145749 L50.0630307,154.248226 C50.3454963,154.012126 52.5271417,154.195889 52.5271417,154.195889 C54.7570129,154.352901 65.2346519,161.392865 65.2346519,161.392865 L69.2018018,163.467752 C69.6174627,163.862027 69.8241449,163.363077 69.8241449,163.363077 L79.1604389,149.965863 C79.323725,149.85807 79.4059775,149.660602 79.3682693,149.466913 C78.6678463,149.625088 77.9674233,148.994713 77.9674233,148.994713 C72.910599,144.397162 64.015227,139.617012 64.015227,139.617012 C63.0312677,139.325855 62.1204832,138.824131 61.3444337,138.145749 Z M47.157527,158.720648 L38.4751694,171.209448 C38.4032993,171.245478 38.3531381,171.314109 38.3404477,171.393778 C38.3277573,171.473447 38.3540953,171.554373 38.4111857,171.611128 C47.4008936,175.211327 54.6641845,183.036051 54.6641845,183.036051 C55.1075,183.43773 55.2354674,183.036051 55.2354674,183.036051 C55.2354674,183.036051 64.5131018,170.936306 64.6844867,170.518559 C64.8558716,170.100812 64.3542852,170.020476 64.3542852,170.020476 L51.0125441,162.533163 C47.3369099,163.072562 47.157527,158.720648 47.157527,158.720648 Z M22.8456892,196.510866 C22.5247075,197.022446 22.8456892,197.186384 22.8456892,197.186384 C33.660124,197.811908 39.8956811,205.739077 39.8956811,205.739077 C40.045772,205.773987 40.2019877,205.714956 40.2925939,205.589091 L50.8090565,190.509099 C51.3290698,190.183548 50.8090565,189.909155 50.8090565,189.909155 C50.5122348,189.909155 50.3891343,189.533608 50.3891343,189.533608 C42.8903592,182.530772 36.7284323,179.455477 36.7284323,179.455477 C36.1167096,179.257677 35.5522167,178.933835 35.0706024,178.504402 C34.6253698,178.080023 34.4516486,178.504402 34.4516486,178.504402 C31.6306918,182.530772 22.8456892,196.510866 22.8456892,196.510866 Z M17.9216229,203.83624 L8.0458878,222.60935 C8.39292899,222.818759 8.68251303,223.463365 8.68251303,223.463365 C11.1347842,232.628227 23.28927,234.161943 23.28927,234.161943 C27.5273095,223.999171 35.285174,211.770386 35.285174,211.770386 C35.6241712,211.370286 35.1415312,211.22522 35.1415312,211.22522 C29.1832246,204.291325 22.2883664,203.563657 20.6795662,203.83624 C19.070766,204.108823 17.9216229,203.83624 17.9216229,203.83624 Z" transform="translate(19.771 127)"/>
    <path d="M29.4543642,254.999885 C27.6559826,257.012938 25.085826,255.364569 25.085826,255.364569 C24.1089943,256.13768 22.0024612,255.674571 22.0023661,255.67455 C3.75765148,251.709225 0.982416215,239.71357 0.982416215,239.71357 C0.0626169881,237.498775 1.03333866,236.674578 1.03338249,236.674541 C-0.868145123,233.332825 1.03338249,231.32585 1.03338249,231.32585 C5.91511375,219.792388 21.0770074,196.110652 21.0776921,196.109583 C24.9317136,189.217065 41.2749006,167.019998 41.2749006,167.019998 L57.3110764,144.573731 C71.6492659,124.133684 78.9993233,111.468337 78.9996553,111.467765 L93.1828428,88.3006399 L107.744637,64.9900725 C120.702207,44.2286426 149.731143,3.70379982 149.731143,3.70379982 C151.857117,0.110533165 154.513359,0.577225793 154.513479,0.577246871 C155.184535,-0.485197638 160.159815,0.244169302 160.159815,0.244169302 C177.364575,4.36995496 181.188259,23.6677886 181.188259,23.6677886 C180.8267,27.592358 176.237533,27.5273766 176.236036,27.5273553 C178.443361,29.5136646 176.601294,32.0275493 176.601294,32.0275493 L168.121476,43.2512909 L159.333433,55.8644765 C149.051593,70.950216 140.160404,84.7474073 140.160404,84.7474073 L119.652544,117.750046 L106.238705,139.527727 L93.6403258,159.345842 C91.9450903,162.280329 70.564736,190.854494 70.564736,190.854494 C57.4591213,207.278622 43.3827203,229.107359 43.3827203,229.107359 C35.0050239,242.488509 29.4546149,254.99932 29.4543642,254.999885 Z M151.193973,15.2480589 C155.795811,19.8686703 168.782174,29.0190314 168.782174,29.0202429 C170.401912,25.5481212 173.948259,25.985468 173.948259,25.985468 C173.572094,25.7080375 173.125398,24.1682376 173.125398,24.1682376 C172.632918,21.2025174 169.180612,15.937395 169.180612,15.937395 C163.428006,7.31645369 156.336548,8.32804532 156.336548,8.32804532 L151.193973,15.2480589 Z M146.541164,22.8016194 C143.500689,26.757588 131.548645,44.833828 131.542545,44.833828 C140.224736,46.116713 149.843959,55.9676113 149.843959,55.9676113 L163.605402,36.424346 C157.155984,32.2317998 146.541164,22.8016194 146.541164,22.8016194 Z M127.228131,50.7955002 C123.524257,57.0720433 116.04004,68.5159561 116.04004,68.5222227 C115.942602,69.0486101 116.481594,69.023544 116.481594,69.023544 C118.272478,70.9924835 120.997039,71.8409699 120.997039,71.8409699 L130.786464,75.9768709 C134.417568,77.1236435 135.055231,78.7692308 135.055231,78.7692308 L146.022545,61.6415873 C145.139437,60.5687597 141.114882,57.2287063 141.114882,57.2287063 C132.602016,50.2478066 127.228131,50.7955002 127.228131,50.7955002 Z M110.975653,75.659919 L99.4796877,93.6646441 C100.84557,93.9302917 101.311605,95.2597649 101.311605,95.2597649 C102.244917,97.152658 106.343802,99.3124343 106.343802,99.3124343 C106.343802,99.3124343 112.574553,102.833809 114.474641,103.896399 C116.374729,104.958989 116.607747,106.753036 116.607747,106.753036 L130.508259,84.5955608 C129.981108,84.598699 129.458617,84.4970489 128.971332,84.2965529 C126.804761,83.1005212 121.673408,81.1742676 121.673408,81.1742676 C114.174692,78.7154835 110.975653,75.659919 110.975653,75.659919 Z M96.1526383,101.57085 L84.9996877,118.991828 C85.8026228,119.02339 86.4775714,119.606072 86.4775714,119.606072 C88.8887917,120.477667 97.5025353,126.360328 99.977749,128.040394 C102.452963,129.720461 102.356369,131.62753 102.356369,131.62753 L113.959688,112.463362 C112.12803,112.787479 111.323887,112.076121 111.323887,112.076121 C104.06004,108.325106 100.490903,105.642341 100.490903,105.642341 C98.3404857,104.387147 96.1526383,101.57085 96.1526383,101.57085 Z M79.6853718,124.37247 L69.485402,139.744311 C76.7478582,142.891713 83.9399111,148.700867 83.9399111,148.700867 C87.3751027,151.024778 88.1034119,152.356275 88.1034119,152.356275 L98.445402,135.484015 C97.7595775,135.677778 96.8370526,135.338693 96.8370526,135.338693 C96.0092078,135.09649 94.8730455,134.007196 94.8730455,134.007196 C89.5733825,129.795341 79.6853718,124.37247 79.6853718,124.37247 Z M64.8779648,146.137652 L52.9368305,163.171677 C53.2358147,162.921919 55.5450416,163.116312 55.5450416,163.116312 C57.9053147,163.282408 68.9956811,170.729642 68.9956811,170.729642 L73.1948281,172.924564 C73.6347966,173.341649 73.8535655,172.813834 73.8535655,172.813834 L83.7358416,158.641574 C83.9086766,158.527545 83.9957392,158.318653 83.9558258,158.113759 C83.2144424,158.281085 82.473059,157.614242 82.473059,157.614242 C77.120514,152.750717 67.7049448,147.694029 67.7049448,147.694029 C66.663444,147.386029 65.6993972,146.855279 64.8779648,146.137652 Z M49.8614144,167.902834 L40.6713166,181.114127 C40.5952435,181.152241 40.542149,181.224843 40.5287164,181.309121 C40.5152838,181.393398 40.5431621,181.479006 40.6035911,181.539044 C50.1190129,185.34752 57.8070577,193.624913 57.8070577,193.624913 C58.2762981,194.04983 58.4117489,193.624913 58.4117489,193.624913 C58.4117489,193.624913 68.2319351,180.825183 68.4133425,180.383269 C68.5947499,179.941355 68.063831,179.856371 68.063831,179.856371 L53.9418711,171.935908 C50.0512875,172.506512 49.8614144,167.902834 49.8614144,167.902834 Z M24.1278316,207.879263 C23.7880792,208.420439 24.1278316,208.593861 24.1278316,208.593861 C35.5746896,209.255572 42.1748991,217.641337 42.1748991,217.641337 C42.3337673,217.678267 42.4991184,217.615821 42.5950232,217.482674 L53.7264836,201.530286 C54.276907,201.185902 53.7264836,200.895635 53.7264836,200.895635 C53.4123039,200.895635 53.2820046,200.498363 53.2820046,200.498363 C45.3447046,193.090403 38.8224311,189.837198 38.8224311,189.837198 C38.1749351,189.627956 37.577431,189.285379 37.0676521,188.831103 C36.5963825,188.382173 36.4125021,188.831103 36.4125021,188.831103 C33.4265771,193.090403 24.1278316,207.879263 24.1278316,207.879263 Z M18.9158083,215.628419 L8.46254482,235.487577 C8.82988082,235.709101 9.1363996,236.390997 9.1363996,236.390997 C11.7320785,246.086058 24.5973529,247.708502 24.5973529,247.708502 C29.0832309,236.957801 37.2947718,224.021565 37.2947718,224.021565 C37.6535934,223.598319 37.1427287,223.444861 37.1427287,223.444861 C30.8359832,216.109831 23.5379169,215.340067 21.8350348,215.628419 C20.1321527,215.916771 18.9158083,215.628419 18.9158083,215.628419 Z" transform="translate(154.812 93)"/>
  </g>
</svg>
