<?xml version="1.0" ?><!DOCTYPE svg  PUBLIC '-//W3C//DTD SVG 1.1//EN'  'http://www.w3.org/Graphics/SVG/1.1/DTD/svg11.dtd'><svg enable-background="new 0 0 128 128" id="Слой_1" version="1.1" viewBox="0 0 128 128" xml:space="preserve" xmlns="http://www.w3.org/2000/svg" xmlns:xlink="http://www.w3.org/1999/xlink"><g><path d="M117.886,103.055H10.114C5.633,103.055,2,99.422,2,94.941V33.059c0-4.481,3.633-8.114,8.114-8.114h107.771   c4.481,0,8.114,3.633,8.114,8.114v61.881C126,99.422,122.367,103.055,117.886,103.055z" fill="#355067"/><g><g><polygon fill="#FFFFFF" points="49.23,78.888 54.29,49.186 62.389,49.186 57.32,78.888 49.23,78.888    "/><path d="M86.687,49.918c-1.604-0.603-4.118-1.248-7.257-1.248c-8,0-13.635,4.028-13.684,9.802     c-0.045,4.267,4.022,6.65,7.093,8.07c3.153,1.456,4.213,2.385,4.199,3.685c-0.023,1.991-2.518,2.899-4.847,2.899     c-3.239,0-4.96-0.449-7.619-1.558l-1.042-0.471l-1.137,6.65c1.889,0.829,5.386,1.547,9.019,1.583     c8.511,0,14.033-3.982,14.097-10.149c0.032-3.377-2.124-5.948-6.795-8.069c-2.831-1.375-4.566-2.291-4.548-3.683     c0-1.234,1.468-2.555,4.639-2.555c2.645-0.042,4.566,0.536,6.056,1.138l0.729,0.343L86.687,49.918L86.687,49.918z" fill="#FFFFFF"/><path d="M107.447,49.215h-6.256c-1.939,0-3.388,0.529-4.24,2.463L84.93,78.9h8.503c0,0,1.386-3.66,1.703-4.464     c0.929,0,9.187,0.014,10.369,0.014c0.24,1.039,0.983,4.45,0.983,4.45h7.515L107.447,49.215L107.447,49.215z M97.463,68.361     c0.67-1.712,3.225-8.304,3.225-8.304c-0.045,0.079,0.666-1.72,1.074-2.836l0.548,2.562c0,0,1.549,7.09,1.875,8.578H97.463     L97.463,68.361z" fill="#FFFFFF"/><path d="M42.44,49.208l-7.927,20.256l-0.847-4.115c-1.472-4.747-6.07-9.889-11.211-12.462l7.248,25.978     l8.566-0.011l12.747-29.646H42.44L42.44,49.208z" fill="#FFFFFF"/><path d="M27.161,49.19H14.102l-0.1,0.617c10.156,2.46,16.878,8.402,19.664,15.542L30.83,51.697     C30.341,49.816,28.918,49.255,27.161,49.19L27.161,49.19z" fill="#F6CA41"/></g></g></g></svg>