<svg width="48" height="48" xmlns="http://www.w3.org/2000/svg">

 <g>
  <title>background</title>
  <rect fill="none" id="canvas_background" height="402" width="582" y="-1" x="-1"/>
 </g>
 <g>
  <title>Layer 1</title>
  <path fill="#1890ff" id="svg_2" d="m21.85,11.4c-0.84,1.11 -8.2,10.98 -8.2,15.6c0,4.96 4.04,9 9,9s9,-4.04 9,-9c0,-4.62 -7.36,-14.49 -8.2,-15.6c-0.38,-0.5 -1.22,-0.5 -1.6,0zm0.8,22.6c-3.86,0 -7,-3.14 -7,-7c0,-2.99 4.5,-9.84 7,-13.31c2.5,3.47 7,10.32 7,13.31c0,3.86 -3.14,7 -7,7z"/>
  <path fill="#1890ff" id="svg_3" d="m21.65,31c0,0.55 0.45,1 1,1c2.76,0 5,-2.24 5,-5c0,-0.55 -0.45,-1 -1,-1s-1,0.45 -1,1c0,1.65 -1.35,3 -3,3c-0.55,0 -1,0.45 -1,1z"/>
  <path fill="#1890ff" id="svg_4" d="m41.45,23.4c-0.01,-0.02 -0.03,-0.02 -0.04,-0.04c-0.06,-0.07 -0.13,-0.14 -0.21,-0.19c-0.03,-0.02 -0.06,-0.04 -0.1,-0.06c-0.02,-0.01 -0.04,-0.03 -0.07,-0.04c-0.06,-0.02 -0.12,-0.03 -0.18,-0.05c-0.03,-0.01 -0.05,-0.02 -0.08,-0.02c-0.11,0 -0.23,0 -0.34,0.03c-0.02,0.01 -0.05,0.02 -0.07,0.03c-0.09,0.03 -0.18,0.07 -0.26,0.12c-0.02,0.01 -0.03,0.01 -0.05,0.02c-0.01,0.01 -0.02,0.03 -0.03,0.04c-0.02,0.02 -0.05,0.03 -0.07,0.05l-3.6,3.6c-0.39,0.39 -0.39,1.02 0,1.41s1.02,0.39 1.41,0l1.69,-1.69c-1.26,8.14 -8.32,14.39 -16.8,14.39c-9.37,0 -17,-7.63 -17,-17s7.63,-17 17,-17c0.55,0 1,-0.45 1,-1s-0.45,-1 -1,-1c-10.48,0 -19,8.52 -19,19s8.52,19 19,19c9.55,0 17.46,-7.1 18.78,-16.29l1.12,1.49c0.2,0.26 0.5,0.4 0.8,0.4c0.21,0 0.42,-0.07 0.6,-0.2c0.44,-0.33 0.53,-0.96 0.2,-1.4l-2.7,-3.6z"/>
 </g>
</svg>