<svg width="204" height="230" xmlns="http://www.w3.org/2000/svg">
 <title/>
 <desc/>

 <g>
  <title>background</title>
  <rect fill="none" id="canvas_background" height="402" width="582" y="-1" x="-1"/>
 </g>
 <g>
  <title>Layer 1</title>
  <path fill="#1890ff" stroke="#1890ff" id="Shape" d="m17.22,82.71c-2.91858,0.00945 -5.78578,-0.7678 -8.3,-2.25c-5.81693,-3.36144 -9.03801,-9.89438 -8.1627,-16.55544c0.8753,-6.66106 5.67482,-12.14004 12.1627,-13.88456c4.2713,-1.17496 8.83601,-0.57643 12.66,1.66c2.50417,1.45701 4.6018,3.52026 6.1,6c0.27795,0.47867 0.52835,0.9728 0.75,1.48l0,0.12c0.08,0.19 0.17,0.38 0.24,0.57c0.07,0.19 0.11,0.27 0.16,0.43c0.05,0.16 0.14,0.37 0.2,0.57c0.06,0.2 0.18,0.55 0.26,0.85c0.08,0.3 0.08,0.3 0.11,0.44c0.03,0.14 0.07,0.28 0.1,0.42l0,0.11c0.00568,0.05652 0.00568,0.11348 0,0.17l0,0.17c0,0.21 0.08,0.46 0.12,0.72l0,0.3c0,0.25 0.06,0.49 0.08,0.75c0.12055,1.49818 0.03305,3.00583 -0.26,4.48c-0.13435,0.71192 -0.31813,1.41362 -0.55,2.1c-0.23572,0.68441 -0.51633,1.35253 -0.84,2c-0.15,0.33 -0.33,0.67 -0.52,1c-0.3492,0.6096 -0.74013,1.19433 -1.17,1.75c-0.17,0.23 -0.39,0.5 -0.61,0.76c-0.22,0.26 -0.47,0.52 -0.71,0.77c-0.24,0.25 -0.39,0.39 -0.62,0.59c-0.06588,0.07742 -0.1396,0.14779 -0.22,0.21c-0.16,0.14 -0.32,0.28 -0.49,0.41c-0.2388,0.2074 -0.4892,0.40104 -0.75,0.58c-0.21598,0.1716 -0.44315,0.32861 -0.68,0.47l-0.11,0.07c-0.21,0.14 -0.42,0.27 -0.64,0.39c-0.39447,0.23883 -0.80175,0.45582 -1.22,0.65l-0.83,0.37l-0.38,0.15c-0.25,0.1 -0.5,0.18 -0.77,0.27c-0.43259,0.14839 -0.87331,0.27192 -1.32,0.37l-0.53,0.13l-0.13,0l-0.26,0c-0.3,0.06 -0.59,0.1 -0.89,0.14c-0.65418,0.12848 -1.31531,0.21863 -1.98,0.27zm0.06,-28.27c-4.1754,0.00499 -8.0334,2.22914 -10.13,5.84c-3.18181,5.56596 -1.26376,12.65694 4.29,15.86c1.75038,1.03371 3.74719,1.57609 5.78,1.57c0.4984,0.00187 0.99632,-0.03155 1.49,-0.1c0.25,0 0.49,-0.06 0.73,-0.11l0.12,0l0.45,-0.11c0.30139,-0.0655 0.59859,-0.14899 0.89,-0.25c0.22,-0.07 0.41,-0.13 0.6,-0.21l0.11,0l0.12,-0.05c0.20446,-0.07975 0.40472,-0.16987 0.6,-0.27c0.28613,-0.12808 0.56341,-0.27507 0.83,-0.44l0.19,-0.1l0.2,-0.13c0.08951,-0.06574 0.18303,-0.12586 0.28,-0.18c0.12276,-0.07073 0.23979,-0.15097 0.35,-0.24l0.44,-0.33l0.12,-0.11c0.09989,-0.07202 0.19355,-0.1523 0.28,-0.24l0.17,-0.15l0.06,0c0.13,-0.12 0.26,-0.24 0.38,-0.37c0.12,-0.13 0.33,-0.34 0.45,-0.49l0.09,-0.1c0.13,-0.15 0.26,-0.31 0.38,-0.48c0.29828,-0.38017 0.56897,-0.78119 0.81,-1.2c0.13,-0.23 0.25,-0.47 0.37,-0.71c0.22599,-0.4743 0.42302,-0.96186 0.59,-1.46c0.16224,-0.48087 0.29252,-0.97194 0.39,-1.47c0.20071,-1.04737 0.2579,-2.1172 0.17,-3.18c0.00927,-0.1265 0.00927,-0.2535 0,-0.38c-0.00494,-0.0365 -0.00494,-0.0735 0,-0.11l0,-0.29c0,-0.11 0,-0.3 -0.08,-0.48l0,-0.21c0.00571,-0.05318 0.00571,-0.10682 0,-0.16c-0.02471,-0.08213 -0.04474,-0.1656 -0.06,-0.25c0,-0.07 0,-0.14 0,-0.2c0,-0.06 0,-0.11 0,-0.12c-0.04274,-0.17969 -0.09617,-0.35668 -0.16,-0.53l-0.11,-0.34c-0.02101,-0.04154 -0.03776,-0.08509 -0.05,-0.13l-0.06,-0.17c-0.09,-0.21 -0.16,-0.38 -0.24,-0.54l-0.06,-0.15c-0.12378,-0.28458 -0.26402,-0.56171 -0.42,-0.83c-1.11932,-1.82355 -2.6989,-3.32036 -4.58,-4.34c-1.75496,-1.02162 -3.74933,-1.5599 -5.78,-1.56z"/>
  <path fill="#1890ff" stroke="#1890ff" id="Shape" d="m186.78,82.71c-0.7189,-0.00148 -1.43698,-0.04824 -2.15,-0.14l-0.91,-0.14l-0.19,0c-0.34,-0.07 -0.69,-0.16 -1,-0.25c-0.33799,-0.07583 -0.67178,-0.16929 -1,-0.28c-0.68674,-0.22558 -1.35533,-0.50304 -2,-0.83c-0.40991,-0.17735 -0.80457,-0.38806 -1.18,-0.63c-0.20429,-0.10332 -0.4014,-0.22025 -0.59,-0.35l-0.32,-0.21l-0.53,-0.37c-0.25,-0.18 -0.51,-0.38 -0.77,-0.6l-0.45,-0.38c-0.12348,-0.10254 -0.24038,-0.21276 -0.35,-0.33c-0.16,-0.15 -0.33,-0.31 -0.49,-0.48l-0.13,-0.14c-0.18,-0.19 -0.35,-0.37 -0.5,-0.55c-0.11156,-0.1162 -0.21513,-0.23981 -0.31,-0.37c-0.15,-0.18 -0.3,-0.36 -0.43,-0.55c-0.41766,-0.54746 -0.7985,-1.12206 -1.14,-1.72c-1.68702,-2.92852 -2.44056,-6.30198 -2.16,-9.67c0.01202,-0.22437 0.03538,-0.44799 0.07,-0.67c0,-0.13 0,-0.25 0,-0.37l0.09,-0.58c0.15591,-0.84895 0.37655,-1.68472 0.66,-2.5c0.08,-0.24 0.19,-0.52 0.29,-0.79l0.07,-0.16l0.08,-0.17l0.15,-0.35c0.21217,-0.4837 0.45258,-0.95451 0.72,-1.41c1.49709,-2.47719 3.5908,-4.53995 6.09,-6c5.14604,-3.09637 11.56177,-3.17753 16.78449,-0.21235c5.22272,2.96519 8.44092,8.516 8.41926,14.52172c-0.02165,6.00572 -3.27978,11.53318 -8.52375,14.46063c-2.52189,1.46042 -5.38577,2.22642 -8.3,2.22zm-2.36,-5.23l0.14,0c0.24,0 0.48,0.08 0.73,0.11c2.51904,0.32259 5.07418,-0.19406 7.27,-1.47c3.75983,-1.99533 6.12927,-5.88524 6.17741,-10.14146c0.04814,-4.25622 -2.23271,-8.19872 -5.94646,-10.27858c-3.71374,-2.07986 -8.26702,-1.96478 -11.87095,0.30004c-1.76785,1.02824 -3.24702,2.48677 -4.3,4.24c-0.18173,0.30175 -0.34212,0.61585 -0.48,0.94l-0.11,0.23c0,0.09 -0.07,0.17 -0.11,0.26l-0.19,0.52c-0.20104,0.56633 -0.3549,1.14831 -0.46,1.74l-0.06,0.35c0.00435,0.05658 0.00435,0.11342 0,0.17l0,0.1c0.00482,0.05656 0.00482,0.11344 0,0.17c-0.00985,0.1031 -0.00985,0.2069 0,0.31c-0.21012,2.37772 0.3171,4.76247 1.51,6.83c0.23448,0.42464 0.49846,0.83231 0.79,1.22c0.02615,0.02145 0.04673,0.04889 0.06,0.08c0.07452,0.10108 0.15464,0.19789 0.24,0.29l0.14,0.18c0.0284,0.02176 0.0522,0.04896 0.07,0.08c0.13,0.15 0.26,0.28 0.39,0.42c0.02409,0.02913 0.05087,0.05591 0.08,0.08c0.09164,0.10156 0.18844,0.19836 0.29,0.29l0.18,0.17c0.17,0.16 0.29,0.26 0.4,0.35l0.11,0.09c0.13,0.12 0.27,0.22 0.4,0.32l0.35,0.23l0.16,0.11l-0.13,-0.07c0.10021,0.05409 0.19706,0.1142 0.29,0.18c0.06,0 0.1,0.07 0.15,0.1c0.08733,0.03517 0.17105,0.07871 0.25,0.13c0.23373,0.156 0.48146,0.28991 0.74,0.4c0.47355,0.23815 0.96506,0.43877 1.47,0.6l0.68,0.2l0.59,0.17z"/>
  <path fill="#1890ff" stroke="#1890ff" id="Shape" d="m102,33.79c-0.36,0 -0.7,0 -1.06,0c-0.30458,-0.0098 -0.60838,-0.03651 -0.91,-0.08c-0.28585,-0.02487 -0.56978,-0.06829 -0.85,-0.13l-0.34,0c-0.22601,-0.03717 -0.44971,-0.08725 -0.67,-0.15l-0.3,-0.07l-0.25,-0.06l-0.51,-0.15c-0.25,-0.07 -0.51,-0.16 -0.75,-0.25l-0.63,-0.24l-0.56,-0.24l-0.16,-0.09c-0.21,-0.09 -0.42,-0.19 -0.62,-0.3l-0.25,-0.13c-0.25369,-0.12117 -0.49774,-0.26158 -0.73,-0.42c-0.54727,-0.32758 -1.07179,-0.69175 -1.57,-1.09c-0.76799,-0.59851 -1.4778,-1.26814 -2.12,-2c-0.17,-0.19 -0.36,-0.42 -0.54,-0.65l-0.16,-0.2c-0.09,-0.11 -0.17,-0.22 -0.25,-0.34l-0.1,-0.13l-0.08,-0.1c-0.31,-0.45 -0.59,-0.89 -0.89,-1.42c-1.53656,-2.50213 -2.34355,-5.38376 -2.33,-8.32c0,-9.19002 7.44998,-16.64 16.64,-16.64c9.19002,0 16.64,7.44998 16.64,16.64c0.01355,2.93624 -0.79344,5.81787 -2.33,8.32c-0.25876,0.46823 -0.5425,0.92222 -0.85,1.36l-0.21,0.29l-0.26,0.34l-0.18,0.23c-0.16,0.2 -0.35,0.42 -0.54,0.64c-0.63882,0.73159 -1.34529,1.40123 -2.11,2c-0.49567,0.39393 -1.01681,0.75471 -1.56,1.08c-0.2359,0.15818 -0.48325,0.29857 -0.74,0.42l-0.24,0.13c-0.2,0.11 -0.41,0.21 -0.61,0.3l-0.09,0c-0.28,0.13 -0.49,0.22 -0.68,0.29c-0.19,0.07 -0.38,0.16 -0.59,0.23c-0.21,0.07 -0.5,0.18 -0.75,0.25l-0.51,0.15l-0.17,0l-0.38,0.09c-0.24648,0.06866 -0.49696,0.12209 -0.75,0.16l-0.26,0c-0.28022,0.06171 -0.56415,0.10513 -0.85,0.13c-0.33,0 -0.66,0.08 -1,0.09c-0.34,0.01 -0.63,0.06 -0.99,0.06zm-1.57,-5.1l0.19,0c0.19212,0.03039 0.38573,0.05042 0.58,0.06c0.50607,0.0347 1.01393,0.0347 1.52,0l0.66,-0.07l0.21,0c0.07631,0.01042 0.15369,0.01042 0.23,0c0.10803,-0.02964 0.21845,-0.04972 0.33,-0.06l0.16,0c0.09514,-0.01038 0.18896,-0.03048 0.28,-0.06l0.18,0l0.32,-0.08l0.28,-0.08l0.1,0l0.39,-0.13l0.14,0l0.36,-0.14l0.37,-0.16c0.06374,-0.04515 0.13478,-0.07897 0.21,-0.1l0.3,-0.15l0.19,-0.09l0.17,-0.1c0.09842,-0.04389 0.19222,-0.09749 0.28,-0.16l0.11,-0.07c0.37604,-0.22239 0.73684,-0.46961 1.08,-0.74c0.53181,-0.46967 1.01431,-0.99237 1.44,-1.56l0.4,-0.47l0.05,-0.06c0.02097,-0.03751 0.048,-0.0713 0.08,-0.1c0.06,-0.08 0.11,-0.16 0.17,-0.23l0.2,-0.28c0.16,-0.22 0.34,-0.52 0.57,-0.92l0.06,-0.11c1.06265,-1.7137 1.61745,-3.69365 1.6,-5.71c0,-6.42859 -5.21141,-11.64 -11.64,-11.64c-6.42859,0 -11.64,5.21141 -11.64,11.64c-0.01745,2.01635 0.53735,3.9963 1.6,5.71l0.04,0.17c0.18136,0.34417 0.38166,0.67802 0.6,1l0.18,0.25l0.16,0.22c0.03199,0.0287 0.05903,0.06249 0.08,0.1c0.12,0.16 0.25,0.31 0.38,0.46c0.43867,0.50173 0.9242,0.96048 1.45,1.37c0.34567,0.27474 0.70987,0.52534 1.09,0.75l0.11,0.07l0.23,0.14l0.22,0.11l0.19,0.1c0.09584,0.05792 0.19616,0.10808 0.3,0.15c0.10565,0.0378 0.20637,0.08816 0.3,0.15l0.24,0.1l0.4,0.15l0.14,0l0.39,0.13l0.1,0l0.28,0.08l0.32,0.08l0.18,0c0.09104,0.02952 0.18486,0.04962 0.28,0.06l0.1,0c0.13156,0.01361 0.26192,0.037 0.39,0.07l0.32,0.15zm10.48,-4.06l0,0.06l0,-0.06z"/>
  <path fill="#1890ff" stroke="#1890ff" id="Shape" d="m17.23,180.57c-7.51122,-0.01492 -14.07886,-5.06583 -16.02151,-12.3215c-1.94265,-7.25567 1.22261,-14.91248 7.72151,-18.6785c2.51223,-1.47942 5.37453,-2.25973 8.29,-2.26c0.54795,-0.00187 1.09554,0.02818 1.64,0.09c0.09305,-0.01032 0.18695,-0.01032 0.28,0l0.37,0l0.49,0.06l0.59,0.12c0.64582,0.13367 1.28351,0.30394 1.91,0.51c0.27817,0.08241 0.55187,0.1792 0.82,0.29c0.81623,0.31208 1.60274,0.69697 2.35,1.15c0.21212,0.10445 0.41603,0.2248 0.61,0.36l0.32,0.21l0.53,0.37c0.25,0.18 0.51,0.38 0.77,0.6l0.45,0.38c0.12348,0.10254 0.24038,0.21276 0.35,0.33c0.16,0.15 0.33,0.31 0.48,0.48l0.15,0.15c0.18,0.19 0.34,0.36 0.49,0.54c0.12347,0.12437 0.23715,0.2581 0.34,0.4c0.12,0.15 0.27,0.33 0.4,0.52c0.41766,0.54746 0.7985,1.12206 1.14,1.72c1.68563,2.91445 2.43936,6.27481 2.16,9.63c-0.00846,0.2379 -0.03184,0.47503 -0.07,0.71c0,0.13 0,0.25 0,0.37c0,0.12 -0.06,0.41 -0.1,0.61c-0.15161,0.83909 -0.36894,1.66497 -0.65,2.47c-0.08,0.24 -0.19,0.52 -0.29,0.79c-0.01719,0.05582 -0.04067,0.10949 -0.07,0.16l-0.08,0.17l-0.15,0.35c-0.21421,0.48273 -0.45457,0.95343 -0.72,1.41c-1.49709,2.47719 -3.5908,4.53995 -6.09,6c-2.5481,1.50402 -5.45115,2.30141 -8.41,2.31zm0,-28.29c-2.0325,0.00617 -4.02699,0.55138 -5.78,1.58c-3.67289,2.03986 -5.96007,5.90208 -5.98314,10.10334c-0.02306,4.20127 2.22157,8.08836 5.87184,10.16843c3.65027,2.08007 8.13863,2.0297 11.7413,-0.13177c1.76785,-1.02824 3.24702,-2.48677 4.3,-4.24c0.17771,-0.30054 0.33797,-0.61105 0.48,-0.93l0.11,-0.24c0,-0.09 0.07,-0.17 0.11,-0.26l0.19,-0.52c0.20104,-0.56633 0.35489,-1.14831 0.46,-1.74c0,-0.11 0,-0.22 0.06,-0.35c-0.00435,-0.05658 -0.00435,-0.11342 0,-0.17l0,-0.1c-0.00483,-0.05656 -0.00483,-0.11344 0,-0.17c0.00985,-0.1031 0.00985,-0.2069 0,-0.31c0.00489,-0.02644 0.00489,-0.05356 0,-0.08c0.19307,-2.35233 -0.33728,-4.70748 -1.52,-6.75c-0.23448,-0.42464 -0.49846,-0.83231 -0.79,-1.22c-0.02615,-0.02145 -0.04673,-0.04889 -0.06,-0.08c-0.08,-0.11 -0.17,-0.21 -0.25,-0.31l-0.1,-0.13c-0.03843,-0.03169 -0.07211,-0.06873 -0.1,-0.11l-0.38,-0.42l-0.09,-0.08l-0.29,-0.29l-0.18,-0.17c-0.17,-0.16 -0.29,-0.26 -0.4,-0.35l-0.11,-0.09c-0.13,-0.12 -0.27,-0.22 -0.4,-0.32l-0.35,-0.23l-0.16,-0.11l0.13,0.07c-0.10021,-0.05409 -0.19706,-0.1142 -0.29,-0.18l-0.16,-0.1l-0.21,-0.11c-0.522,-0.32365 -1.07468,-0.59497 -1.65,-0.81c-0.16549,-0.07484 -0.33588,-0.13832 -0.51,-0.19c-0.45179,-0.15214 -0.9127,-0.27572 -1.38,-0.37l-0.43,-0.09l-0.18,0l-0.03,0l-0.45,-0.06l-0.22,0c-0.33433,-0.05565 -0.67153,-0.09238 -1.01,-0.11l0.01,0z"/>
  <path fill="#1890ff" stroke="#1890ff" id="Shape" d="m102,229.5c-9.18773,-0.00552 -16.63448,-7.45227 -16.64,-16.64c-0.01355,-2.93623 0.79344,-5.81787 2.33,-8.32c0.25876,-0.46824 0.54251,-0.92222 0.85,-1.36c0.80081,-1.12666 2.36334,-1.39081 3.49,-0.59c1.12666,0.80081 1.39081,2.36334 0.59,3.49c-0.21834,0.32198 -0.41864,0.65583 -0.6,1l-0.06,0.11c-1.06265,1.7137 -1.61745,3.69365 -1.6,5.71c0,4.15857 2.21857,8.00125 5.82,10.08054c3.60143,2.07928 8.03857,2.07928 11.64,0c3.60143,-2.07929 5.82,-5.92197 5.82,-10.08054c0.01745,-2.01635 -0.53735,-3.9963 -1.6,-5.71l-0.04,-0.19c-0.18136,-0.34417 -0.38166,-0.67802 -0.6,-1c-0.51804,-0.72882 -0.6079,-1.67865 -0.23574,-2.49169c0.37216,-0.81304 1.14981,-1.36578 2.04,-1.45c0.8902,-0.08422 1.75771,0.31287 2.27574,1.04169c0.3075,0.43778 0.59124,0.89176 0.85,1.36c1.53656,2.50213 2.34355,5.38376 2.33,8.32c0.01862,4.4297 -1.72871,8.68422 -4.85538,11.82215c-3.12667,3.13793 -7.37488,4.90055 -11.80462,4.89785z"/>
  <path stroke="#1890ff" id="Shape" d="m96.68,202.24c-1.20131,0.02163 -2.2481,-0.81438 -2.49266,-1.99072c-0.24456,-1.17635 0.38228,-2.36031 1.49266,-2.81928l0.7,-0.26c1.29005,-0.37626 2.64676,0.33459 3.07171,1.60943c0.42494,1.27484 -0.23391,2.65755 -1.49171,3.13057l-0.36,0.14c-0.29212,0.12021 -0.60416,0.18466 -0.92,0.19z"/>
  <path stroke="#1890ff" id="Shape" d="m107.32,202.24c-0.34276,0.00507 -0.68298,-0.05957 -1,-0.19l-0.36,-0.14c-1.25779,-0.47302 -1.91665,-1.85573 -1.49171,-3.13057c0.42495,-1.27484 1.78166,-1.98569 3.07171,-1.60943l0.7,0.26c1.11038,0.45897 1.73722,1.64293 1.49266,2.81928c-0.24456,1.17634 -1.29135,2.01235 -2.49266,1.99072l0.08,0z"/>
  <path fill="#1890ff" stroke="#1890ff" id="Shape" d="m186.71,180.56c-2.91317,0.00241 -5.77448,-0.77073 -8.29,-2.24c-2.50417,-1.45701 -4.6018,-3.52026 -6.1,-6c-0.27795,-0.47867 -0.52836,-0.9728 -0.75,-1.48l0,-0.12c-0.08,-0.19 -0.17,-0.38 -0.24,-0.57c-0.07,-0.19 -0.11,-0.27 -0.16,-0.43c-0.05,-0.16 -0.14,-0.37 -0.2,-0.57c-0.06,-0.2 -0.18,-0.55 -0.26,-0.85c-0.08,-0.3 -0.08,-0.3 -0.11,-0.44c-0.03,-0.14 -0.1,-0.42 -0.14,-0.63l0,-0.24c0,-0.21 -0.08,-0.46 -0.12,-0.72l0,-0.3c0,-0.25 -0.06,-0.49 -0.08,-0.75c-0.12055,-1.49818 -0.03305,-3.00583 0.26,-4.48c0.13315,-0.71547 0.31695,-1.42058 0.55,-2.11c0.23572,-0.68441 0.51633,-1.35253 0.84,-2c0.15,-0.33 0.33,-0.67 0.52,-1c0.3492,-0.6096 0.74013,-1.19433 1.17,-1.75c0.17,-0.23 0.39,-0.5 0.61,-0.76c0.22,-0.26 0.44,-0.5 0.67,-0.73c0.23,-0.23 0.49,-0.48 0.74,-0.71c0.25,-0.23 0.45,-0.4 0.68,-0.58c0.23,-0.18 0.4,-0.32 0.64,-0.51c0.16374,-0.12553 0.33398,-0.24236 0.51,-0.35l0.51,-0.34c0.53114,-0.33336 1.08217,-0.63392 1.65,-0.9c0.32353,-0.1623 0.65761,-0.30261 1,-0.42c0.27,-0.11 0.61,-0.24 1,-0.36c0.39,-0.12 0.62,-0.2 0.95,-0.29c0.33,-0.09 0.54,-0.14 0.83,-0.2l0.09,0l0.61,-0.12c0.18836,-0.03729 0.37866,-0.064 0.57,-0.08l0.4,-0.06l0.24,0c0.54783,-0.06154 1.09873,-0.09159 1.65,-0.09c2.91971,-0.00791 5.78736,0.77292 8.3,2.26c6.47734,3.79215 9.61417,11.45124 7.65767,18.69752c-1.95649,7.24628 -8.52193,12.28576 -16.02767,12.30248l-0.17,-0.08zm-10.51,-11.62c0.12378,0.28458 0.26402,0.56171 0.42,0.83c1.06061,1.75407 2.54642,3.21236 4.32,4.24c5.58023,3.19217 12.69102,1.2748 15.91,-4.29c3.17504,-5.56371 1.2578,-12.64723 -4.29,-15.85c-1.75288,-1.03756 -3.75306,-1.58338 -5.79,-1.58c-0.4,0 -0.76,0 -1.08,0.05l-0.19,0l-0.41,0.06l-0.09,0l-0.68,0.13c-0.20909,0.03938 -0.41603,0.08945 -0.62,0.15c-0.21695,0.05046 -0.43066,0.1139 -0.64,0.19c-0.27,0.09 -0.51,0.18 -0.74,0.28c-0.17869,0.06394 -0.35248,0.14082 -0.52,0.23l-0.1,0c-0.39833,0.19148 -0.7856,0.40515 -1.16,0.64l-0.31,0.2c-0.06851,0.05673 -0.14216,0.10695 -0.22,0.15l-0.12,0.08c-0.17,0.13 -0.34,0.26 -0.5,0.4c-0.16,0.14 -0.36,0.3 -0.51,0.43c-0.15,0.13 -0.28,0.25 -0.42,0.4l-0.08,0.09c-0.14442,0.13924 -0.28129,0.28612 -0.41,0.44l-0.09,0.1c-0.13,0.15 -0.26,0.31 -0.38,0.48c-0.29827,0.38017 -0.56897,0.78119 -0.81,1.2c-0.13,0.23 -0.25,0.47 -0.37,0.71c-0.22599,0.4743 -0.42302,0.96186 -0.59,1.46c-0.16342,0.48392 -0.29372,0.97839 -0.39,1.48c-0.20129,1.04393 -0.25849,2.11053 -0.17,3.17c-0.00927,0.1265 -0.00927,0.2535 0,0.38c0.00494,0.0365 0.00494,0.0735 0,0.11l0,0.29c0,0.11 0,0.3 0.08,0.48c0.00566,0.06988 0.00566,0.14012 0,0.21c0,0 0,0.09 0,0.16c0,0.07 0,0.19 0.06,0.25c0.06,0.06 0,0.14 0,0.2c0,0.06 0,0.11 0,0.12c0.04274,0.17969 0.09616,0.35667 0.16,0.53l0.11,0.34c0.02101,0.04154 0.03776,0.08509 0.05,0.13l0.06,0.17c0.09,0.21 0.16,0.38 0.24,0.54l0.27,0.22z"/>
  <path fill="#1890ff" stroke="#1890ff" id="Shape" d="m114.65,207.82c-1.31092,-0.01223 -2.53263,-0.66605 -3.27,-1.75l-0.07,-0.11c-0.07,-0.1 -0.15,-0.21 -0.24,-0.32c-0.032,-0.0287 -0.05903,-0.06249 -0.08,-0.1l-0.05,0c-0.09634,-0.14404 -0.2069,-0.27804 -0.33,-0.4c-0.4519,-0.52469 -0.95432,-1.00367 -1.5,-1.43c-0.34567,-0.27474 -0.70987,-0.52534 -1.09,-0.75l-0.11,-0.07l-0.23,-0.14l-0.22,-0.12l-0.19,-0.09c-0.08356,-0.04929 -0.17044,-0.09272 -0.26,-0.13c-0.10709,-0.04182 -0.21074,-0.09198 -0.31,-0.15l-0.27,-0.12l-0.4,-0.15l-0.14,0l-0.39,-0.13l-0.1,0l-0.42,-0.12l-0.18,0l-0.18,0c-0.09104,-0.02952 -0.18486,-0.04962 -0.28,-0.06l-0.1,0c-0.13156,-0.01361 -0.26192,-0.037 -0.39,-0.07l-0.25,0l-0.2,0l-0.57,0c-0.50607,-0.0347 -1.01393,-0.0347 -1.52,0l-0.65,0.06l-0.22,0c-0.07631,-0.01042 -0.15369,-0.01042 -0.23,0c-0.10803,0.02964 -0.21845,0.04972 -0.33,0.06l-0.16,0c-0.09514,0.01038 -0.18896,0.03048 -0.28,0.06l-0.18,0l-0.15,0l-0.45,0.13l-0.1,0l-0.39,0.13l-0.14,0l-0.36,0.14l-0.36,0.16l-0.26,0.12c-0.08957,0.03728 -0.17644,0.08071 -0.26,0.13l-0.19,0.09c-0.05226,0.03768 -0.10946,0.06797 -0.17,0.09l-0.28,0.17l-0.11,0.07c-0.37604,0.22239 -0.73684,0.46961 -1.08,0.74c-0.52206,0.40663 -1.00423,0.86201 -1.44,1.36c-0.1249,0.1259 -0.24179,0.25949 -0.35,0.4c-0.02689,0.04793 -0.06057,0.09171 -0.1,0.13c-0.02097,0.03751 -0.04801,0.0713 -0.08,0.1l-0.24,0.32c-0.01747,0.03708 -0.04114,0.07089 -0.07,0.1c-1.17373,1.71288 -3.46295,2.24283 -5.27,1.22l-57.96,-33.5c-1.74649,-1.05154 -2.42275,-3.24831 -1.57,-5.1l0.09,-0.2l0.1,-0.24l0,-0.07c0.06,-0.16 0.12,-0.31 0.17,-0.47c0.20104,-0.56633 0.35489,-1.14831 0.46,-1.74c0,-0.11 0,-0.22 0.06,-0.35c-0.00435,-0.05658 -0.00435,-0.11342 0,-0.17l0,-0.1c-0.00483,-0.05656 -0.00483,-0.11344 0,-0.17c0.00985,-0.1031 0.00985,-0.2069 0,-0.31c0.21012,-2.37772 -0.3171,-4.76246 -1.51,-6.83c-0.23448,-0.42464 -0.49846,-0.83231 -0.79,-1.22l-0.12,-0.16l-0.17,-0.22l-0.12,-0.14c-0.03843,-0.03169 -0.07211,-0.06873 -0.1,-0.11c-0.12,-0.13 -0.23,-0.27 -0.36,-0.39l-0.1,-0.09c-0.06879,-0.0872 -0.14581,-0.16757 -0.23,-0.24c-0.08492,-0.07136 -0.16509,-0.14819 -0.24,-0.23c-0.03428,-0.02142 -0.0647,-0.04847 -0.09,-0.08l-0.25,-0.21l-0.17,-0.14c-0.13,-0.12 -0.27,-0.22 -0.4,-0.32l-0.35,-0.23l-0.16,-0.11l0.13,0.07c-0.10021,-0.05409 -0.19706,-0.1142 -0.29,-0.18l-0.19,-0.12l-0.18,-0.09c-0.522,-0.32365 -1.07468,-0.59497 -1.65,-0.81c-0.17618,-0.07657 -0.35645,-0.14334 -0.54,-0.2c-0.44209,-0.1479 -0.89296,-0.26814 -1.35,-0.36l-0.43,-0.09l-0.18,0l-0.29,0l-0.11,0l-0.2,0l-0.07,0c-2.04643,-0.16151 -3.62594,-1.86721 -3.63,-3.92l0,-66.98c0.00925,-2.04894 1.58739,-3.74881 3.63,-3.91l0.19,0l0.25,0c0.22,0 0.43,-0.06 0.64,-0.1l0.21,0l0.24,-0.06c0.07199,-0.02463 0.14547,-0.04467 0.22,-0.06c0.27081,-0.06143 0.53791,-0.13822 0.8,-0.23c0.2042,-0.05736 0.4046,-0.12749 0.6,-0.21l0.11,0l0.12,-0.05c0.19108,-0.07308 0.37802,-0.15654 0.56,-0.25c0.29971,-0.13422 0.59033,-0.28788 0.87,-0.46l0.19,-0.1l0.2,-0.13l0.21,-0.14l0.48,-0.32l0.38,-0.29l0.19,-0.16c0.07676,-0.05543 0.14719,-0.11915 0.21,-0.19l0.17,-0.15l0.06,0c0.13,-0.12 0.26,-0.24 0.38,-0.37l0.08,-0.09c0.13372,-0.12334 0.25744,-0.25709 0.37,-0.4l0.09,-0.1c0.13,-0.15 0.26,-0.31 0.38,-0.48c0.29828,-0.38017 0.56897,-0.78119 0.81,-1.2c0.13,-0.23 0.25,-0.47 0.37,-0.71c0.22599,-0.4743 0.42302,-0.96186 0.59,-1.46c0.16342,-0.48392 0.29372,-0.97839 0.39,-1.48c0.20129,-1.04393 0.25849,-2.11053 0.17,-3.17c0.00953,-0.11981 0.00953,-0.24019 0,-0.36c0,0 0,-0.09 0,-0.13l0,-0.29c0,-0.11 0,-0.3 -0.08,-0.48l-0.08,-0.38c-0.0247,-0.07875 -0.04473,-0.15889 -0.06,-0.24l0,-0.14c0,0 0,-0.14 -0.06,-0.18c-0.04274,-0.17969 -0.09617,-0.35668 -0.16,-0.53c-0.00453,-0.06325 -0.00453,-0.12675 0,-0.19c0,-0.09 -0.08,-0.19 -0.11,-0.28l-0.06,-0.17l-0.17,-0.33c0,-0.1 -0.08,-0.2 -0.13,-0.3c-0.05353,-0.09876 -0.09708,-0.2026 -0.13,-0.31c-0.70262,-1.81106 -0.00247,-3.86511 1.66,-4.87l57.94,-33.41c1.7949,-1.04004 4.08907,-0.5059 5.24,1.22l0.07,0.11l0.24,0.32c0.03199,0.0287 0.05903,0.06249 0.08,0.1c0.09634,0.14404 0.2069,0.27804 0.33,0.4c0.4519,0.5247 0.95432,1.00367 1.5,1.43c0.34567,0.27474 0.70987,0.52534 1.09,0.75l0.11,0.07l0.23,0.14l0.22,0.11l0.19,0.1c0.08356,0.04929 0.17043,0.09272 0.26,0.13c0.11811,0.04656 0.23188,0.10345 0.34,0.17l0.24,0.1l0.4,0.15l0.14,0l0.39,0.13l0.1,0c0.13721,0.0492 0.27751,0.08929 0.42,0.12l0.18,0l0.18,0c0.09104,0.02952 0.18486,0.04962 0.28,0.06l0.1,0c0.13156,0.01361 0.26192,0.037 0.39,0.07l0.25,0l0.2,0l0.57,0c0.50607,0.0347 1.01393,0.0347 1.52,0l0.65,-0.06l0.22,0c0.07631,0.01042 0.15369,0.01042 0.23,0c0.10803,-0.02964 0.21845,-0.04972 0.33,-0.06l0.16,0c0.09514,-0.01038 0.18896,-0.03048 0.28,-0.06l0.18,0l0.15,0c0.15321,-0.02682 0.30378,-0.06697 0.45,-0.12l0.1,0l0.39,-0.13l0.14,0l0.36,-0.14l0.37,-0.16l0.25,-0.12l0.26,-0.13l0.19,-0.09l0.17,-0.1c0.09842,-0.04389 0.19222,-0.09749 0.28,-0.16l0.11,-0.07c0.37604,-0.22239 0.73684,-0.46961 1.08,-0.74c0.55882,-0.36576 1.08122,-0.78435 1.56,-1.25c0.1249,-0.1259 0.24179,-0.25949 0.35,-0.4c0.02689,-0.04793 0.06057,-0.09171 0.1,-0.13c0.02097,-0.03751 0.048,-0.0713 0.08,-0.1l0.24,-0.32c0.01747,-0.03708 0.04114,-0.07089 0.07,-0.1c1.17373,-1.71288 3.46295,-2.24283 5.27,-1.22l57.91,33.39c1.74649,1.05154 2.42275,3.2483 1.57,5.1l-0.09,0.2l-0.1,0.24l0,0.1c0,0.14 -0.11,0.29 -0.16,0.44c-0.20104,0.56633 -0.35489,1.14831 -0.46,1.74l-0.06,0.35c0.00435,0.05658 0.00435,0.11342 0,0.17l0,0.1c0.00483,0.05656 0.00483,0.11344 0,0.17c-0.00985,0.1031 -0.00985,0.2069 0,0.31c-0.21012,2.37772 0.3171,4.76247 1.51,6.83c0.23448,0.42464 0.49846,0.83231 0.79,1.22l0.1,0.12c0.04438,0.06757 0.09457,0.13115 0.15,0.19c0.06876,0.07555 0.13224,0.15574 0.19,0.24c0.0284,0.02176 0.0522,0.04896 0.07,0.08c0.12,0.14 0.23,0.26 0.36,0.39l0.09,0.08c0.06879,0.0872 0.14581,0.16757 0.23,0.24c0.08492,0.07137 0.16509,0.14819 0.24,0.23c0.03428,0.02142 0.0647,0.04847 0.09,0.08l0.25,0.21l0.17,0.14c0.13,0.12 0.27,0.22 0.4,0.32l0.35,0.23l0.16,0.11l-0.13,-0.07c0.10021,0.05409 0.19706,0.1142 0.29,0.18l0.19,0.11l0.21,0.12c0.23373,0.156 0.48146,0.28991 0.74,0.4c0.47355,0.23815 0.96506,0.43877 1.47,0.6c0.22221,0.08098 0.44933,0.14779 0.68,0.2l0.15,0c0.16734,0.05055 0.33767,0.09063 0.51,0.12l0.16,0c0.21,0 0.42,0.08 0.64,0.1l0.25,0l0.12,0l0.07,0c2.04261,0.16119 3.62075,1.86106 3.63,3.91l0,66.85c-0.00406,2.05279 -1.58357,3.75849 -3.63,3.92l-0.27,0l-0.11,0l-0.3,0l-0.15,0l-0.41,0.07l-0.15,0l-0.51,0.13l-0.11,0c-0.2034,0.04803 -0.40375,0.10813 -0.6,0.18c-0.27,0.09 -0.51,0.18 -0.74,0.28c-0.19108,0.07308 -0.37802,0.15654 -0.56,0.25c-0.42063,0.19315 -0.82816,0.41362 -1.22,0.66l-0.23,0.14c-0.05578,0.04889 -0.11605,0.09242 -0.18,0.13l-0.29,0.2c-0.15623,0.11199 -0.30644,0.23216 -0.45,0.36l-0.13,0.1c-0.11363,0.08506 -0.22061,0.17866 -0.32,0.28l-0.14,0.11c-0.1207,0.10572 -0.23428,0.2193 -0.34,0.34l-0.12,0.13c-0.13372,0.12334 -0.25744,0.25709 -0.37,0.4l-0.09,0.1c-0.13,0.15 -0.26,0.31 -0.38,0.48c-0.29827,0.38017 -0.56897,0.78119 -0.81,1.2c-0.13,0.23 -0.25,0.47 -0.37,0.71c-0.22599,0.4743 -0.42302,0.96186 -0.59,1.46c-0.16342,0.48392 -0.29372,0.97839 -0.39,1.48c-0.20129,1.04393 -0.25849,2.11053 -0.17,3.17c-0.00953,0.11981 -0.00953,0.24019 0,0.36c0,0 0,0.09 0,0.13l0,0.29c0,0.11 0,0.3 0.08,0.48c0.00566,0.06989 0.00566,0.14012 0,0.21c0,0.07 0,0.18 0.07,0.29l0,0.12l0,0.14c0,0 0,0.14 0.06,0.18c0.04274,0.17969 0.09617,0.35667 0.16,0.53c0.00453,0.06325 0.00453,0.12675 0,0.19c0,0.09 0.08,0.19 0.11,0.28l0.06,0.17l0.06,0.15c0,0.1 0.08,0.2 0.13,0.3c0.05353,0.09876 0.09708,0.2026 0.13,0.31c0.70262,1.81106 0.00247,3.86511 -1.66,4.87l-57.94,33.41c-0.52687,0.44374 -1.16162,0.74042 -1.84,0.86zm0.2,-5.45l0.11,0.13l56.27,-32.5l-0.09,-0.25c-0.08863,-0.21565 -0.16541,-0.43598 -0.23,-0.66c-0.08,-0.25 -0.16,-0.49 -0.22,-0.74c-0.06056,-0.19045 -0.11063,-0.38407 -0.15,-0.58c0,-0.19 -0.09,-0.38 -0.13,-0.57l0,-0.24c0,-0.21 -0.08,-0.46 -0.12,-0.72l0,-0.29c0,-0.24 -0.06,-0.5 -0.08,-0.76c-0.12055,-1.49818 -0.03306,-3.00583 0.26,-4.48c0.13315,-0.71547 0.31695,-1.42058 0.55,-2.11c0.23572,-0.68441 0.51633,-1.35253 0.84,-2c0.15,-0.33 0.33,-0.67 0.52,-1c0.3492,-0.6096 0.74013,-1.19433 1.17,-1.75c0.17,-0.23 0.38,-0.5 0.61,-0.76c0.21463,-0.26057 0.44506,-0.5077 0.69,-0.74c0.22881,-0.25769 0.47614,-0.49833 0.74,-0.72c0.22,-0.2 0.43,-0.39 0.65,-0.56l0.65,-0.51l0.14,-0.1l0.29,-0.19c0.17703,-0.13245 0.36059,-0.25594 0.55,-0.37c0.55812,-0.3552 1.13942,-0.67258 1.74,-0.95c0.24,-0.12 0.53,-0.25 0.82,-0.37c0.29,-0.12 0.69,-0.27 1.05,-0.39c0.36,-0.12 0.58,-0.19 0.9,-0.28c0.32,-0.09 0.64,-0.17 1,-0.23l0.78,-0.15l0.24,0l0,-65.01c-0.19,0 -0.39,-0.06 -0.57,-0.09l-0.16,0c-0.36,-0.07 -0.7,-0.15 -1.05,-0.25c-0.33841,-0.08222 -0.67222,-0.18236 -1,-0.3c-0.68705,-0.21664 -1.35582,-0.48749 -2,-0.81c-0.41557,-0.18276 -0.81671,-0.39671 -1.2,-0.64c-0.19644,-0.10217 -0.38677,-0.21569 -0.57,-0.34l-0.32,-0.21l-0.53,-0.37c-0.25674,-0.18013 -0.50375,-0.37373 -0.74,-0.58c-0.19568,-0.14917 -0.38266,-0.30943 -0.56,-0.48l-0.25,-0.23c-0.18,-0.16 -0.34,-0.33 -0.51,-0.5l-0.1,-0.1c-0.18678,-0.18735 -0.36368,-0.38428 -0.53,-0.59c-0.10811,-0.10946 -0.20836,-0.22642 -0.3,-0.35c-0.12,-0.14 -0.23,-0.29 -0.35,-0.44l-0.07,-0.09c-0.42313,-0.56181 -0.81055,-1.14963 -1.16,-1.76c-1.68702,-2.92852 -2.44056,-6.30198 -2.16,-9.67c0.01202,-0.22437 0.03538,-0.44799 0.07,-0.67c0,-0.13 0,-0.25 0,-0.37l0.09,-0.58c0.15591,-0.84895 0.37656,-1.68472 0.66,-2.5c0.06,-0.18 0.14,-0.38 0.22,-0.59l-56.37,-32.49l-0.11,0.13c-0.18893,0.25502 -0.39261,0.49877 -0.61,0.73c-1.05236,1.1728 -2.27219,2.18371 -3.62,3c-0.2359,0.15818 -0.48325,0.29857 -0.74,0.42l-0.23,0.13l-0.64,0.31l-0.07,0c-0.28,0.13 -0.49,0.22 -0.68,0.29c-0.19,0.07 -0.38,0.16 -0.59,0.23c-0.21,0.07 -0.5,0.18 -0.75,0.25c-0.25,0.07 -0.52,0.16 -0.79,0.22l-0.28,0.06c-0.24285,0.06967 -0.49006,0.12313 -0.74,0.16l-0.26,0c-0.28022,0.06171 -0.56415,0.10513 -0.85,0.13c-0.32,0 -0.67,0.08 -1,0.09c-0.66597,0.04303 -1.33403,0.04303 -2,0c-0.30793,-0.00934 -0.61508,-0.03605 -0.92,-0.08c-0.28906,-0.02567 -0.57627,-0.06908 -0.86,-0.13l-0.33,0c-0.22601,-0.03717 -0.44971,-0.08725 -0.67,-0.15l-0.3,-0.07c-0.24,-0.05 -0.5,-0.13 -0.76,-0.21c-0.26,-0.08 -0.51,-0.16 -0.75,-0.25l-0.63,-0.24l-0.56,-0.24l-0.15,-0.08c-0.21574,-0.09123 -0.42609,-0.19473 -0.63,-0.31l-0.25,-0.13c-0.25369,-0.12117 -0.49774,-0.26158 -0.73,-0.42c-0.54571,-0.32999 -1.07008,-0.69405 -1.57,-1.09c-0.76799,-0.59851 -1.4778,-1.26814 -2.12,-2c-0.19315,-0.2054 -0.37349,-0.42247 -0.54,-0.65l-0.11,-0.13l-56.33,32.51l0.09,0.25c0.08863,0.21565 0.16541,0.43597 0.23,0.66c0.08,0.25 0.16,0.49 0.22,0.74c0.05599,0.17407 0.10272,0.35099 0.14,0.53l0.09,0.37l0,0.11c0,0.07 0,0.14 0,0.21l0,0.17c0,0.21 0.08,0.46 0.12,0.72l0,0.29c0,0.24 0.06,0.5 0.08,0.76c0.12055,1.49818 0.03305,3.00583 -0.26,4.48c-0.13315,0.71547 -0.31694,1.42057 -0.55,2.11c-0.23572,0.68441 -0.51633,1.35253 -0.84,2c-0.15,0.33 -0.33,0.67 -0.52,1c-0.3492,0.6096 -0.74013,1.19433 -1.17,1.75c-0.17,0.23 -0.38,0.5 -0.61,0.76c-0.2213,0.26727 -0.45839,0.52105 -0.71,0.76c-0.2,0.21 -0.4,0.41 -0.62,0.6c-0.06256,0.07407 -0.13297,0.14113 -0.21,0.2c-0.17,0.16 -0.35,0.31 -0.53,0.45c-0.18,0.14 -0.47,0.38 -0.72,0.55c-0.2088,0.15797 -0.42576,0.30484 -0.65,0.44c-0.04244,0.03889 -0.08945,0.07246 -0.14,0.1c-0.21,0.14 -0.42,0.27 -0.64,0.39c-0.39447,0.23883 -0.80175,0.45582 -1.22,0.65l-0.83,0.37l-0.38,0.15c-0.27,0.1 -0.56,0.21 -0.83,0.29c-0.27,0.08 -0.74,0.23 -1.16,0.33c-0.29164,0.08733 -0.58903,0.15416 -0.89,0.2l-0.11,0c-0.18481,0.04057 -0.37178,0.07062 -0.56,0.09l0,65l0.28,0l0.59,0.12c0.64582,0.13367 1.28351,0.30394 1.91,0.51c0.23,0.07 0.53,0.18 0.82,0.29c0.82292,0.31543 1.61606,0.70363 2.37,1.16c0.2031,0.10547 0.40008,0.22232 0.59,0.35l0.32,0.21l0.53,0.37c0.25674,0.18013 0.50375,0.37373 0.74,0.58c0.19568,0.14917 0.38266,0.30943 0.56,0.48l0.25,0.23c0.18,0.16 0.34,0.33 0.51,0.5l0.1,0.1c0.19,0.19 0.36,0.39 0.53,0.59c0.10116,0.10312 0.19473,0.2134 0.28,0.33c0.12,0.14 0.24,0.29 0.35,0.44l0.09,0.11c0.42313,0.56181 0.81056,1.14963 1.16,1.76c1.68702,2.92852 2.44056,6.30198 2.16,9.67c-0.01202,0.22437 -0.03538,0.44799 -0.07,0.67c0,0.13 0,0.25 0,0.37c0,0.12 -0.06,0.41 -0.1,0.61c-0.15161,0.83909 -0.36894,1.66497 -0.65,2.47c-0.06,0.18 -0.14,0.39 -0.22,0.6l56.28,32.45l0.11,-0.13c0.18893,-0.25502 0.39261,-0.49877 0.61,-0.73c1.05236,-1.1728 2.27219,-2.18371 3.62,-3c0.2359,-0.15818 0.48325,-0.29857 0.74,-0.42l0.23,-0.13l0.64,-0.31l0.09,-0.05c0.26,-0.12 0.46,-0.21 0.66,-0.28c0.2,-0.07 0.38,-0.16 0.59,-0.23c0.21,-0.07 0.5,-0.18 0.75,-0.25c0.25,-0.07 0.53,-0.16 0.79,-0.22l0.27,-0.06c0.24648,-0.06866 0.49696,-0.12209 0.75,-0.16l0.26,0c0.28022,-0.06171 0.56415,-0.10513 0.85,-0.13c0.32,0 0.67,-0.08 1,-0.09c0.66597,-0.04303 1.33403,-0.04303 2,0c0.30793,0.00934 0.61508,0.03605 0.92,0.08c0.28906,0.02567 0.57627,0.06908 0.86,0.13l0.33,0c0.22601,0.03717 0.44971,0.08725 0.67,0.15l0.3,0.06l0.76,0.22c0.25,0.07 0.51,0.16 0.75,0.25c0.24,0.09 0.42,0.16 0.63,0.24l0.55,0.24l0.16,0.08c0.21574,0.09123 0.42608,0.19473 0.63,0.31l0.24,0.13c0.25675,0.12143 0.5041,0.26182 0.74,0.42c0.54571,0.32999 1.07008,0.69405 1.57,1.09c0.76799,0.59851 1.4778,1.26815 2.12,2c0.23916,0.21409 0.46304,0.44465 0.67,0.69l0.02,0.02zm-4,-177.74l0,0.05l0,-0.05zm-8.85,136.85c-0.44295,0.00217 -0.87827,-0.11529 -1.26,-0.34l-38.08,-22.33c-0.76809,-0.44821 -1.24026,-1.2707 -1.24,-2.16l0,-43.3c-0.00026,-0.8893 0.47191,-1.71179 1.24,-2.16l38.08,-22.33c0.77969,-0.45015 1.74031,-0.45015 2.52,0l38.08,22.33c0.76809,0.44821 1.24026,1.2707 1.24,2.16l0,43.3c0.00101,0.91315 -0.49788,1.7536 -1.3,2.19l-0.11,0.06l-37.91,22.24c-0.38173,0.22471 -0.81705,0.34217 -1.26,0.34zm-35.58,-26.26l35.58,20.86l35.58,-20.87l0,-40.43l-35.58,-20.86l-35.58,20.86l0,40.44z"/>
  <path stroke="#1890ff" id="Shape" d="m30,74.82c-0.85704,0.00019 -1.65445,-0.43865 -2.11287,-1.16279c-0.45842,-0.72414 -0.51394,-1.63263 -0.14713,-2.40721c0.22989,-0.48068 0.43026,-0.97493 0.6,-1.48c0.44183,-1.30891 1.86109,-2.01183 3.17,-1.57c1.30891,0.44183 2.01183,1.86109 1.57,3.17c-0.23572,0.68441 -0.51633,1.35253 -0.84,2c-0.40087,0.87806 -1.27478,1.44377 -2.24,1.45z"/>
  <path fill="#1890ff" stroke="#1890ff" id="Shape" d="m30.69,73.07c-0.26865,-0.00008 -0.53549,-0.04399 -0.79,-0.13c-1.3018,-0.43308 -2.01137,-1.83436 -1.59,-3.14c0.16102,-0.49559 0.29455,-0.99969 0.4,-1.51c0.25518,-1.25684 1.42003,-2.11674 2.69628,-1.9904c1.27625,0.12633 2.2499,1.19792 2.25372,2.4804c0.01474,0.163 0.01474,0.327 0,0.49c-0.13435,0.71192 -0.31813,1.41362 -0.55,2.1c-0.35439,1.0302 -1.33067,1.71602 -2.42,1.7z"/>
  <path fill="#1890ff" stroke="#1890ff" id="Shape" d="m91.6,205.84c-0.60736,0.00235 -1.19448,-0.21826 -1.65,-0.62c-1.03024,-0.90973 -1.13722,-2.47885 -0.24,-3.52c0.64612,-0.73159 1.35922,-1.40117 2.13,-2c1.08524,-0.85604 2.65896,-0.67024 3.515,0.415c0.85604,1.08524 0.67024,2.65896 -0.415,3.515c-0.52966,0.41584 -1.02157,0.87763 -1.47,1.38c-0.47406,0.53395 -1.156,0.83663 -1.87,0.83z"/>
  <path fill="#1890ff" stroke="#1890ff" id="Shape" d="m93.38,30.84c-0.55836,0.00173 -1.10097,-0.18501 -1.54,-0.53c-0.77078,-0.59883 -1.48388,-1.26841 -2.13,-2c-0.91127,-1.0383 -0.8083,-2.61873 0.23,-3.53c1.0383,-0.91127 2.61873,-0.8083 3.53,0.23c0.44843,0.50237 0.94034,0.96416 1.47,1.38c0.83538,0.66143 1.15972,1.77964 0.80793,2.78542c-0.3518,1.00577 -1.30241,1.67804 -2.36793,1.67458l0,-0.01z"/>
  <path fill="#1890ff" stroke="#1890ff" id="Shape" d="m112.4,205.84c-0.71558,0.0041 -1.39778,-0.30234 -1.87,-0.84c-0.44843,-0.50237 -0.94034,-0.96416 -1.47,-1.38c-1.08524,-0.85604 -1.27104,-2.42976 -0.415,-3.515c0.85604,-1.08524 2.42976,-1.27104 3.515,-0.415c0.77078,0.59883 1.48388,1.26841 2.13,2c0.89722,1.04115 0.79024,2.61027 -0.24,3.52c-0.45405,0.40537 -1.04132,0.6296 -1.65,0.63z"/>
  <path fill="#1890ff" stroke="#1890ff" id="Shape" d="m110.62,30.84c-1.06552,0.00346 -2.01613,-0.66881 -2.36792,-1.67458c-0.3518,-1.00578 -0.02746,-2.12399 0.80792,-2.78542c0.52966,-0.41584 1.02157,-0.87763 1.47,-1.38c0.91127,-1.0383 2.4917,-1.14127 3.53,-0.23c1.03829,0.91127 1.14127,2.4917 0.23,3.53c-0.64612,0.73159 -1.35922,1.40117 -2.13,2c-0.43772,0.34858 -0.98045,0.53889 -1.54,0.54z"/>
  <path fill="#1890ff" stroke="#1890ff" id="Shape" d="m102,161.48c-0.44295,0.00217 -0.87827,-0.11529 -1.26,-0.34l-38.08,-22.33c-0.76809,-0.44821 -1.24026,-1.2707 -1.24,-2.16l0,-43.3c-0.00026,-0.8893 0.47191,-1.71179 1.24,-2.16l38.08,-22.33c0.77969,-0.45015 1.74031,-0.45015 2.52,0l38.08,22.33c0.76809,0.44821 1.24026,1.2707 1.24,2.16l0,43.3c0.00101,0.91315 -0.49788,1.7536 -1.3,2.19l-0.11,0.06l-37.91,22.24c-0.38173,0.22471 -0.81705,0.34217 -1.26,0.34zm-35.58,-26.26l35.58,20.86l35.58,-20.87l0,-40.43l-35.58,-20.86l-35.58,20.86l0,40.44z"/>
  <path fill="#1890ff" stroke="#1890ff" id="Shape" d="m172.84,163.72c-0.16451,-0.00181 -0.32852,-0.01855 -0.49,-0.05c-1.16417,-0.23763 -2.00024,-1.26183 -2,-2.45c-0.01474,-0.163 -0.01474,-0.327 0,-0.49c0.13435,-0.71192 0.31813,-1.41362 0.55,-2.1c0.43354,-1.31168 1.84832,-2.02354 3.16,-1.59c1.31168,0.43354 2.02354,1.84832 1.59,3.16c-0.16102,0.49559 -0.29455,0.99969 -0.4,1.51c-0.2304,1.15355 -1.23383,1.99044 -2.41,2.01z"/>
  <path fill="#1890ff" stroke="#1890ff" id="Shape" d="m173.31,161.93c-0.27205,0.00157 -0.54245,-0.04237 -0.8,-0.13c-1.01462,-0.34593 -1.69756,-1.29803 -1.7,-2.37c-0.00083,-0.27199 0.04309,-0.54227 0.13,-0.8c0.23572,-0.68441 0.51633,-1.35253 0.84,-2c0.6311,-1.18353 2.08372,-1.65814 3.29186,-1.07555c1.20815,0.5826 1.74127,2.01478 1.20814,3.24555c-0.22989,0.48068 -0.43026,0.97493 -0.6,1.48c-0.36283,0.99489 -1.31103,1.65503 -2.37,1.65z"/>
  <path fill="#1890ff" stroke="#1890ff" id="Shape" d="m102,161.48c-0.44295,0.00217 -0.87827,-0.11529 -1.26,-0.34l-38.08,-22.33c-0.76809,-0.44821 -1.24026,-1.2707 -1.24,-2.16l0,-43.3c-0.00027,-0.89536 0.47832,-1.7225 1.25469,-2.1685c0.77637,-0.44601 1.73198,-0.44276 2.50531,0.0085l38.08,22.33c0.76809,0.44821 1.24026,1.2707 1.24,2.16l0,43.32c0,1.38071 -1.11929,2.5 -2.5,2.5l0,-0.02zm-35.58,-26.26l33.08,19.4l0,-37.51l-33.08,-19.4l0,37.51z"/>
  <path fill="#1890ff" stroke="#1890ff" id="Shape" d="m102,161.48c-1.38071,0 -2.5,-1.11929 -2.5,-2.5l0,-43.3c-0.00026,-0.8893 0.47191,-1.71179 1.24,-2.16l38.08,-22.33c0.77333,-0.45126 1.72894,-0.45451 2.50531,-0.0085c0.77638,0.446 1.25495,1.27314 1.25469,2.1685l0,43.3c0.00101,0.91315 -0.49788,1.7536 -1.3,2.19l-0.11,0.06l-37.91,22.24c-0.38173,0.22471 -0.81705,0.34217 -1.26,0.34zm2.5,-44.37l0,37.51l33.08,-19.41l0,-37.5l-33.08,19.4z"/>
  <path fill="#1890ff" stroke="#1890ff" id="Shape" d="m102,118.18c-0.44295,0.00217 -0.87827,-0.11529 -1.26,-0.34l-38.08,-22.33c-0.76858,-0.44789 -1.24127,-1.27044 -1.24127,-2.16c0,-0.88956 0.47269,-1.71211 1.24127,-2.16l38.08,-22.33c0.77969,-0.45015 1.74031,-0.45015 2.52,0l38.08,22.33c0.76858,0.44789 1.24127,1.27044 1.24127,2.16c0,0.88956 -0.47269,1.71211 -1.24127,2.16l-38.08,22.33c-0.38173,0.22471 -0.81705,0.34217 -1.26,0.34zm-33.14,-24.83l33.14,19.43l33.14,-19.43l-33.14,-19.43l-33.14,19.43z"/>
  <path fill="#1890ff" stroke="#1890ff" id="Shape" d="m102,73.52c-1.38071,0 -2.5,-1.11929 -2.5,-2.5l0,-39.73c0,-1.38071 1.11929,-2.5 2.5,-2.5c1.38071,0 2.5,1.11929 2.5,2.5l0,39.71c0.00533,0.6665 -0.2557,1.30753 -0.72512,1.78071c-0.46942,0.47318 -1.10836,0.73931 -1.77488,0.73929z"/>
  <path fill="#1890ff" stroke="#1890ff" id="Shape" d="m102,200.42c-1.38071,0 -2.5,-1.11929 -2.5,-2.5l0,-39.73c0,-1.38071 1.11929,-2.5 2.5,-2.5c1.38071,0 2.5,1.11929 2.5,2.5l0,39.73c0,1.38071 -1.11929,2.5 -2.5,2.5z"/>
  <path fill="#1890ff" stroke="#1890ff" id="Shape" d="m64.33,95.17c-0.43943,-0.00059 -0.87081,-0.11792 -1.25,-0.34l-34.33,-20c-0.80949,-0.42928 -1.31928,-1.267 -1.32859,-2.18323c-0.00931,-0.91622 0.48334,-1.76413 1.28393,-2.20978c0.80059,-0.44566 1.78083,-0.41764 2.55466,0.07301l34.33,20c0.57401,0.33046 0.99271,0.87599 1.16349,1.51593c0.17078,0.63994 0.07955,1.32156 -0.25349,1.89407c-0.45046,0.77202 -1.27617,1.24766 -2.17,1.25z"/>
  <path fill="#1890ff" stroke="#1890ff" id="Shape" d="m174,159c-0.43943,-0.00059 -0.87081,-0.11793 -1.25,-0.34l-34.33,-20c-0.80949,-0.42928 -1.31927,-1.267 -1.32859,-2.18323c-0.00931,-0.91622 0.48334,-1.76413 1.28393,-2.20978c0.80059,-0.44566 1.78083,-0.41764 2.55466,0.07301l34.33,20c0.57469,0.33238 0.99358,0.8797 1.16429,1.52127c0.17071,0.64157 0.07922,1.32469 -0.25429,1.89873c-0.45443,0.7667 -1.27875,1.23774 -2.17,1.24z"/>
  <path fill="#1890ff" stroke="#1890ff" id="Shape" d="m29.53,158.21c-1.14016,0.00745 -2.14092,-0.75749 -2.43294,-1.85965c-0.29203,-1.10215 0.19867,-2.26226 1.19294,-2.82035l34.56,-19.6c1.20122,-0.68207 2.72793,-0.26122 3.41,0.94c0.68207,1.20122 0.26122,2.72793 -0.94,3.41l-34.56,19.6c-0.37464,0.21433 -0.79839,0.32802 -1.23,0.33z"/>
  <path fill="#1890ff" stroke="#1890ff" id="Shape" d="m139.92,95.6c-1.14016,0.00745 -2.14092,-0.75749 -2.43294,-1.85965c-0.29203,-1.10215 0.19867,-2.26226 1.19294,-2.82035l34.56,-19.6c1.20122,-0.68207 2.72793,-0.26122 3.41,0.94c0.68207,1.20122 0.26122,2.72793 -0.94,3.41l-34.56,19.6c-0.37319,0.21784 -0.79789,0.33179 -1.23,0.33z"/>
 </g>
</svg>