<svg width="64" height="64" xmlns="http://www.w3.org/2000/svg">

 <g>
  <title>background</title>
  <rect fill="none" id="canvas_background" height="402" width="582" y="-1" x="-1"/>
 </g>
 <g>
  <title>Layer 1</title>
  <path fill="#1890ff" id="Fill-66" d="m46.3,28.7l-3,0l0,-6.4c0,-6.2 -5.1,-11.3 -11.3,-11.3c-6.2,0 -11.3,5.1 -11.3,11.3l0,6.4l-3,0l0,-6.4c0,-7.9 6.4,-14.3 14.3,-14.3s14.3,6.4 14.3,14.3l0,6.4" class="st0"/>
  <path fill="#1890ff" id="Fill-67" d="m44.8,55.9l-25.6,0c-2.6,0 -4.8,-2.2 -4.8,-4.8l0,-19.2c0,-2.6 2.2,-4.8 4.8,-4.8l25.6,0c2.6,0 4.8,2.2 4.8,4.8l0,19.2c0,2.7 -2.2,4.8 -4.8,4.8l0,0zm-25.6,-25.6c-0.9,0 -1.6,0.7 -1.6,1.6l0,19.2c0,0.9 0.7,1.6 1.6,1.6l25.6,0c0.9,0 1.6,-0.7 1.6,-1.6l0,-19.2c0,-0.9 -0.7,-1.6 -1.6,-1.6l-25.6,0l0,0z" class="st0"/>
  <path fill="#1890ff" id="Fill-68" d="m35.2,36.7c0,1.8 -1.4,3.2 -3.2,3.2s-3.2,-1.4 -3.2,-3.2s1.4,-3.2 3.2,-3.2s3.2,1.5 3.2,3.2" class="st0"/>
 </g>
</svg>