<?xml version="1.0" standalone="no"?>
<!DOCTYPE svg PUBLIC "-//W3C//DTD SVG 20010904//EN"
 "http://www.w3.org/TR/2001/REC-SVG-20010904/DTD/svg10.dtd">
<svg version="1.0" xmlns="http://www.w3.org/2000/svg"
 width="512.000000pt" height="512.000000pt" viewBox="0 0 512.000000 512.000000"
 preserveAspectRatio="xMidYMid meet">
<metadata>
Created by potrace 1.11, written by Peter Selinger 2001-2013
</metadata>
<g transform="translate(0.000000,512.000000) scale(0.100000,-0.100000)"
fill="#000000" stroke="none">
<path d="M2460 4824 c-25 -8 -54 -16 -65 -18 -11 -2 -50 -16 -86 -30 -339
-129 -612 -344 -823 -648 -25 -37 -46 -71 -46 -77 0 -5 -4 -11 -8 -13 -18 -7
-132 -258 -171 -373 -38 -115 -84 -303 -95 -392 -14 -101 -18 -128 -21 -131
-2 -2 -84 -5 -182 -6 -196 -3 -234 -10 -333 -62 -120 -62 -170 -122 -266 -314
-81 -162 -87 -182 -73 -233 19 -71 77 -111 159 -109 73 1 76 -1 90 -80 8 -40
15 -77 16 -83 1 -5 29 -147 63 -315 33 -168 95 -474 136 -680 42 -206 78 -391
81 -410 36 -222 208 -433 424 -518 122 -49 121 -49 1330 -47 976 2 1142 4
1185 17 28 8 57 17 65 19 24 6 157 77 182 96 106 84 197 206 237 319 15 44
134 614 184 884 3 14 40 199 82 411 l78 386 63 0 c42 1 76 7 100 20 56 29 86
99 71 163 -1 8 -36 83 -77 165 -64 129 -83 159 -140 215 -65 64 -148 114 -235
141 -24 8 -109 14 -210 15 -93 2 -177 3 -185 3 -10 1 -16 14 -18 45 -1 24 -4
52 -6 62 -2 11 -11 60 -21 109 -9 50 -26 124 -37 165 -11 41 -24 89 -28 105
-26 96 -163 400 -196 432 -8 8 -14 18 -14 22 0 8 -98 146 -140 196 -14 17 -63
69 -110 116 -133 134 -287 241 -471 328 -218 103 -383 139 -489 105z m-323
-481 c-13 -21 -25 -41 -26 -45 -1 -4 -16 -38 -33 -75 -60 -134 -66 -149 -101
-248 -54 -149 -120 -383 -133 -470 -1 -11 -12 -72 -23 -135 -11 -63 -22 -140
-26 -170 -3 -30 -8 -56 -10 -59 -6 -5 -334 -6 -339 0 -11 12 46 295 80 392 14
40 27 79 29 87 11 46 126 282 146 300 3 3 15 22 28 43 13 21 28 43 34 50 7 6
25 29 40 50 48 64 172 182 264 251 48 36 89 66 91 66 1 0 -8 -17 -21 -37z
m928 -33 c121 -91 227 -201 333 -345 99 -136 195 -367 247 -599 27 -124 40
-225 28 -227 -35 -4 -326 -3 -331 1 -4 3 -8 12 -8 22 -3 32 -14 123 -18 143
-2 11 -7 42 -10 68 -4 27 -9 56 -11 65 -50 257 -115 476 -197 671 -47 112
-103 228 -119 247 -24 30 9 11 86 -46z m-649 -622 l0 -553 -163 1 c-90 0 -165
3 -167 5 -3 3 10 108 28 219 27 168 119 495 162 578 8 15 14 32 14 38 0 5 9
30 21 55 24 50 103 209 104 209 0 0 1 -249 1 -552z m357 430 c101 -210 198
-510 232 -718 3 -19 8 -46 10 -60 3 -14 7 -38 9 -55 15 -118 18 -141 21 -145
2 -4 -292 -5 -327 -1 -8 1 -11 1091 -3 1091 2 0 29 -51 58 -112z m1579 -1301
c33 -16 65 -42 81 -64 l27 -38 -1892 -3 c-1040 -1 -1893 0 -1896 2 -2 3 6 19
18 36 27 38 88 78 135 88 20 4 809 7 1754 6 l1718 0 55 -27z m-52 -413 c0 -7
-6 -43 -14 -81 -8 -37 -17 -81 -19 -98 -3 -16 -17 -84 -30 -150 -14 -66 -27
-133 -30 -150 -3 -16 -8 -41 -11 -55 -3 -14 -8 -36 -10 -50 -3 -14 -12 -61
-21 -105 -10 -44 -18 -89 -20 -100 -2 -11 -15 -76 -29 -145 -14 -69 -27 -136
-30 -150 -2 -14 -7 -36 -10 -50 -3 -14 -8 -36 -10 -50 -28 -171 -81 -392 -104
-434 -51 -94 -170 -184 -267 -202 -52 -9 -2195 -10 -2258 0 -137 21 -280 158
-307 296 -43 210 -62 307 -75 370 -8 41 -17 85 -20 98 -2 13 -20 104 -40 202
-20 98 -38 189 -40 202 -3 13 -12 57 -20 98 -8 41 -17 86 -20 100 -3 14 -12
59 -20 100 -8 41 -17 86 -20 100 -9 47 -46 235 -49 250 -3 14 173 16 1735 16
1396 1 1739 -2 1739 -12z"/>
</g>
</svg>
