<svg xmlns="http://www.w3.org/2000/svg" width="37" height="34" viewBox="0 0 37 34">
  <path fill="#FFF" d="M36.2555096 3.68747991C36.5855096 3.97747991 33.9955096 7.02747991 33.9955096 7.02747991L27.4055096 17.3674799C26.4455096 19.5174799 21.9155096 25.3674799 21.9155096 25.3674799 19.8848841 27.8938641 18.1126869 30.6174866 16.6255096 33.4974799 15.3355096 33.7874799 12.3055096 32.3574799 13.1655096 30.0874799 14.0255096 27.8174799 20.0755096 19.5974799 20.0755096 19.5974799L26.9155096 8.84747991C26.9155096 8.84747991 31.4255096 2.16747991 32.1955096 1.00747991 32.9655096-.152520088 33.5955096.00747991234 33.5955096.00747991234 34.9961964.224113407 36.156051 1.2099898 36.5955096 2.55747991 36.741147 2.74197873 36.7875564 2.98595164 36.7198316 3.21103696 36.6521068 3.43612228 36.4787754 3.61397848 36.2555096 3.68747991zM32.9155096 2.10747991L35.0255096 3.78747991 35.6955096 3.36747991C35.8155096 2.75747991 34.6655096 1.10747991 33.9155096 1.10747991 33.1655096 1.10747991 32.9155096 2.10747991 32.9155096 2.10747991zM32.2455096 3.00747991C31.654859 3.96880461 31.0070269 4.89380194 30.3055096 5.77747991 31.198189 6.04827372 32.0115809 6.53219043 32.6755096 7.18747991 33.2015523 6.32169679 33.7723253 5.48389561 34.3855096 4.67747991 33.6305484 4.17631778 32.9151188 3.61801526 32.2455096 3.00747991zM29.6155096 6.81747991L28.2455096 9.10747991C29.0499382 9.36886701 29.8089596 9.75343784 30.4955096 10.2474799 31.0408291 9.59536474 31.5167309 8.8882149 31.9155096 8.13747991 31.28801 7.49022696 30.4909203 7.03276678 29.6155096 6.81747991zM27.5255096 10.1774799C27.1234521 10.9573765 26.6336092 11.6887858 26.0655096 12.3574799 27.4955096 13.1774799 28.3355096 13.7874799 28.3355096 13.7874799L29.9255096 11.1774799C29.0846464 10.9522195 28.277545 10.6159273 27.5255096 10.1774799zM25.5555096 13.5374799L24.1255096 15.4474799C24.9498136 15.8421299 25.7168002 16.3467263 26.4055096 16.9474799L27.7755096 14.8074799C26.9796447 14.4902856 26.23233 14.0627678 25.5555096 13.5374799zM22.2755096 18.3674799C23.0493366 18.832732 23.7879859 19.3541316 24.4855096 19.9274799 24.5655096 19.6874799 25.7455096 18.0274799 25.7455096 18.0274799 25.0486198 17.434793 24.2831521 16.9278385 23.4655096 16.5174799 23.1387235 17.1763955 22.7395988 17.7968836 22.2755096 18.3674799zM20.1255096 21.2974799C20.9660684 21.6953228 21.7750786 22.1566592 22.5455096 22.6774799L23.8455096 20.8874799C23.1412677 20.2581356 22.3412364 19.7450354 21.4755096 19.3674799 21.0875104 20.0520289 20.6354882 20.6982532 20.1255096 21.2974799zM19.4155096 22.3074799C19.1249763 22.8158301 18.7903573 23.2976814 18.4155096 23.7474799 19.228795 24.1695156 19.9710928 24.7161166 20.6155096 25.3674799 20.9634474 24.7501042 21.3649935 24.1645161 21.8155096 23.6174799 20.9871134 23.2349776 20.1853129 22.7973282 19.4155096 22.3074799zM16.0555096 27.2174799C16.9649929 27.2671693 17.8159274 27.6818196 18.4155096 28.3674799L19.8455096 26.3674799C19.2189438 25.7093422 18.467693 25.1824468 17.6355096 24.8174799L16.0555096 27.2174799zM15.4355096 28.3674799C15.0295601 29.2779257 14.5687124 30.1628868 14.0555096 31.0174799 14.3450611 31.8642568 15.1618911 32.4156171 16.0555096 32.3674799 16.4861565 31.3271492 17.0012084 30.3238014 17.5955096 29.3674799 17.0701797 28.7164043 16.271837 28.3468012 15.4355096 28.3674799zM23.2555096 3.68747991C23.5855096 3.97747991 20.9955096 7.02747991 20.9955096 7.02747991L14.4055096 17.3674799C13.4455096 19.5174799 8.91550963 25.3674799 8.91550963 25.3674799 6.88488406 27.8938641 5.11268688 30.6174866 3.62550963 33.4974799 2.33550963 33.7874799-.744490371 32.3574799.165509629 30.0874799 1.07550963 27.8174799 7.07550963 19.5974799 7.07550963 19.5974799L13.9155096 8.84747991C13.9155096 8.84747991 18.4255096 2.16747991 19.1955096 1.00747991 19.9655096-.152520088 20.5955096.00747991234 20.5955096.00747991234 21.9961964.224113407 23.156051 1.2099898 23.5955096 2.55747991 23.741147 2.74197873 23.7875564 2.98595164 23.7198316 3.21103696 23.6521068 3.43612228 23.4787754 3.61397848 23.2555096 3.68747991zM19.9155096 2.10747991L22.0255096 3.78747991 22.6955096 3.36747991C22.8155096 2.75747991 21.6655096 1.10747991 20.9155096 1.10747991 20.1655096 1.10747991 19.9155096 2.10747991 19.9155096 2.10747991zM19.2455096 3.00747991C18.654859 3.96880461 18.0070269 4.89380194 17.3055096 5.77747991 18.198189 6.04827372 19.0115809 6.53219043 19.6755096 7.18747991 20.2015523 6.32169679 20.7723253 5.48389561 21.3855096 4.67747991 20.6305484 4.17631778 19.9151188 3.61801526 19.2455096 3.00747991zM16.6155096 6.81747991L15.2455096 9.10747991C16.0499382 9.36886701 16.8089596 9.75343784 17.4955096 10.2474799 18.0408291 9.59536474 18.5167309 8.8882149 18.9155096 8.13747991 18.28801 7.49022696 17.4909203 7.03276678 16.6155096 6.81747991zM14.5255096 10.1774799C14.1234521 10.9573765 13.6336092 11.6887858 13.0655096 12.3574799 14.4955096 13.1774799 15.3355096 13.7874799 15.3355096 13.7874799L16.9255096 11.1774799C16.0846464 10.9522195 15.277545 10.6159273 14.5255096 10.1774799zM12.5555096 13.5374799L11.1255096 15.4474799C11.9498136 15.8421299 12.7168002 16.3467263 13.4055096 16.9474799L14.7755096 14.8074799C13.9796447 14.4902856 13.23233 14.0627678 12.5555096 13.5374799zM9.27550963 18.3674799C10.0493366 18.832732 10.7879859 19.3541316 11.4855096 19.9274799 11.5655096 19.6874799 12.7455096 18.0274799 12.7455096 18.0274799 12.0486198 17.434793 11.2831521 16.9278385 10.4655096 16.5174799 10.1387235 17.1763955 9.73959879 17.7968836 9.27550963 18.3674799zM7.12550963 21.2974799C7.96606845 21.6953228 8.77507864 22.1566592 9.54550963 22.6774799L10.8455096 20.8874799C10.1412677 20.2581356 9.34123642 19.7450354 8.47550963 19.3674799 8.08751038 20.0520289 7.63548818 20.6982532 7.12550963 21.2974799zM6.41550963 22.3074799C6.12497629 22.8158301 5.79035734 23.2976814 5.41550963 23.7474799 6.22879502 24.1695156 6.97109276 24.7161166 7.61550963 25.3674799 7.96344736 24.7501042 8.3649935 24.1645161 8.81550963 23.6174799 7.98711337 23.2349776 7.18531287 22.7973282 6.41550963 22.3074799zM3.05550963 27.2174799C3.96499291 27.2671693 4.81592742 27.6818196 5.41550963 28.3674799L6.84550963 26.3674799C6.22358506 25.6913492 5.47201258 25.1472243 4.63550963 24.7674799L3.05550963 27.2174799zM2.43550963 28.3674799C2.02956011 29.2779257 1.56871241 30.1628868 1.05550963 31.0174799 1.34506112 31.8642568 2.16189114 32.4156171 3.05550963 32.3674799 3.48615652 31.3271492 4.00120842 30.3238014 4.59550963 29.3674799 4.07017966 28.7164043 3.27183697 28.3468012 2.43550963 28.3674799z"/>
</svg>
