<?xml version="1.0" ?><svg height="512" id="Слой_1" version="1.0" viewBox="0 0 511.99999 512" width="512" xml:space="preserve" xmlns="http://www.w3.org/2000/svg" xmlns:cc="http://creativecommons.org/ns#" xmlns:dc="http://purl.org/dc/elements/1.1/" xmlns:inkscape="http://www.inkscape.org/namespaces/inkscape" xmlns:rdf="http://www.w3.org/1999/02/22-rdf-syntax-ns#" xmlns:sodipodi="http://sodipodi.sourceforge.net/DTD/sodipodi-0.dtd" xmlns:svg="http://www.w3.org/2000/svg" xmlns:xlink="http://www.w3.org/1999/xlink"><defs id="defs27"><linearGradient gradientUnits="userSpaceOnUse" id="linearGradient6844" x1="36.236591" x2="43.541412" xlink:href="#SVGID_2_" y1="-370.95273" y2="-839.59912"/><linearGradient gradientUnits="userSpaceOnUse" id="SVGID_2_" x1="388.5" x2="388.5" y1="259" y2="49.0005"><stop id="stop13" offset="0" style="stop-color:#0c80b1;stop-opacity:1"/><stop id="stop15" offset="1" style="stop-color:#1096cb;stop-opacity:1"/></linearGradient><linearGradient gradientUnits="userSpaceOnUse" id="linearGradient6882" x1="36.236591" x2="43.541412" xlink:href="#SVGID_2_" y1="-370.95273" y2="-839.59912"/><linearGradient gradientUnits="userSpaceOnUse" id="linearGradient6884" x1="388.5" x2="388.5" y1="259" y2="49.0005"><stop id="stop6886" offset="0" style="stop-color:#0c80b1;stop-opacity:1"/><stop id="stop6888" offset="1" style="stop-color:#1096cb;stop-opacity:1"/></linearGradient><linearGradient gradientUnits="userSpaceOnUse" id="linearGradient6890" x1="36.236591" x2="43.541412" xlink:href="#SVGID_2_" y1="-370.95273" y2="-839.59912"/><linearGradient gradientUnits="userSpaceOnUse" id="linearGradient6892" x1="388.5" x2="388.5" y1="259" y2="49.0005"><stop id="stop6894" offset="0" style="stop-color:#0c80b1;stop-opacity:1"/><stop id="stop6896" offset="1" style="stop-color:#1096cb;stop-opacity:1"/></linearGradient><linearGradient gradientUnits="userSpaceOnUse" id="linearGradient6898" x1="36.236591" x2="43.541412" xlink:href="#SVGID_2_" y1="-370.95273" y2="-839.59912"/><linearGradient gradientUnits="userSpaceOnUse" id="linearGradient6900" x1="388.5" x2="388.5" y1="259" y2="49.0005"><stop id="stop6902" offset="0" style="stop-color:#0c80b1;stop-opacity:1"/><stop id="stop6904" offset="1" style="stop-color:#1096cb;stop-opacity:1"/></linearGradient><linearGradient gradientUnits="userSpaceOnUse" id="linearGradient6906" x1="36.236591" x2="43.541412" xlink:href="#SVGID_2_" y1="-370.95273" y2="-839.59912"/><linearGradient gradientUnits="userSpaceOnUse" id="linearGradient6908" x1="388.5" x2="388.5" y1="259" y2="49.0005"><stop id="stop6910" offset="0" style="stop-color:#000;stop-opacity:1"/><stop id="stop6912" offset="1" style="stop-color:#1096cb;stop-opacity:1"/></linearGradient><linearGradient gradientUnits="userSpaceOnUse" id="linearGradient6856" x1="36.236591" x2="43.541412" xlink:href="#SVGID_1_-8" y1="-370.95273" y2="-839.59912"/><linearGradient gradientUnits="userSpaceOnUse" id="SVGID_1_-8" x1="256.00049" x2="256.00049" y1="512" y2="0.00048828131"><stop id="stop4-8" offset="0" style="stop-color:#58c5f3;stop-opacity:1;"/><stop id="stop6-2" offset="1" style="stop-color:#c3ecfa;stop-opacity:1;"/></linearGradient><linearGradient gradientUnits="userSpaceOnUse" id="linearGradient6854" x1="36.236591" x2="43.541412" xlink:href="#SVGID_1_-8" y1="-370.95273" y2="-839.59912"/><linearGradient gradientUnits="userSpaceOnUse" id="linearGradient6919" x1="256.00049" x2="256.00049" y1="512" y2="0.00048828131"><stop id="stop6921" offset="0" style="stop-color:#58c5f3;stop-opacity:1;"/><stop id="stop6923" offset="1" style="stop-color:#c3ecfa;stop-opacity:1;"/></linearGradient><linearGradient gradientTransform="translate(451.23539,-72.545883)" gradientUnits="userSpaceOnUse" id="linearGradient6852" x1="-430.11011" x2="-428.83313" xlink:href="#linearGradient3055" y1="-297.24576" y2="-410.41733"/><linearGradient gradientUnits="userSpaceOnUse" id="linearGradient3055" x1="388.5" x2="388.5" y1="259" y2="49.0005"><stop id="stop3057" offset="0" style="stop-color:#0c80b1;stop-opacity:1"/><stop id="stop3059" offset="1" style="stop-color:#1096cb;stop-opacity:1"/></linearGradient><linearGradient gradientUnits="userSpaceOnUse" id="linearGradient6938" x1="36.236591" x2="43.541412" xlink:href="#SVGID_2_" y1="-370.95273" y2="-839.59912"/><linearGradient gradientUnits="userSpaceOnUse" id="linearGradient6940" x1="36.236591" x2="43.541412" xlink:href="#SVGID_2_" y1="-370.95273" y2="-839.59912"/><linearGradient gradientUnits="userSpaceOnUse" id="linearGradient6942" x1="36.236591" x2="43.541412" xlink:href="#SVGID_2_" y1="-370.95273" y2="-839.59912"/><linearGradient gradientUnits="userSpaceOnUse" id="linearGradient6944" x1="36.236591" x2="43.541412" xlink:href="#SVGID_2_" y1="-370.95273" y2="-839.59912"/><linearGradient gradientTransform="translate(451.23539,-72.545883)" gradientUnits="userSpaceOnUse" id="linearGradient6946" x1="-430.11011" x2="-428.83313" xlink:href="#linearGradient3055" y1="-297.24576" y2="-410.41733"/><linearGradient gradientUnits="userSpaceOnUse" id="linearGradient6975" x1="600.20087" x2="592.61292" xlink:href="#linearGradient3072" y1="279.82278" y2="-242.50758"/><linearGradient gradientTransform="matrix(-0.1587,1.4133,-1.4248,-0.0562,-982.3953,-34.1116)" gradientUnits="userSpaceOnUse" id="linearGradient3072" x1="-316.8895" x2="-270.918" y1="-905.82758" y2="-905.82758"><stop id="stop3074" offset="0" style="stop-color:#1C90F3;stop-opacity:1"/><stop id="stop3076" offset="1" style="stop-color:#1C90F3;stop-opacity:1"/></linearGradient><linearGradient gradientTransform="translate(-14.418596,864.32545)" gradientUnits="userSpaceOnUse" id="linearGradient7000" x1="600.20087" x2="592.61292" xlink:href="#linearGradient3072" y1="279.82278" y2="-242.50758"/><linearGradient gradientTransform="translate(-1093.9919,-313.39821)" gradientUnits="userSpaceOnUse" id="linearGradient6983" x1="176.37346" x2="155.75816" xlink:href="#linearGradient3072-8" y1="265.34476" y2="-242.47643"/><linearGradient gradientTransform="matrix(-0.1587,1.4133,-1.4248,-0.0562,-982.3953,-34.1116)" gradientUnits="userSpaceOnUse" id="linearGradient3072-8" x1="-316.8895" x2="-270.918" y1="-905.82758" y2="-905.82758"><stop id="stop3074-8" offset="0" style="stop-color:#1C90F3;stop-opacity:1"/><stop id="stop3076-2" offset="1" style="stop-color:#1C90F3;stop-opacity:1"/></linearGradient><linearGradient gradientTransform="translate(-916.97996,-325.00556)" gradientUnits="userSpaceOnUse" id="linearGradient6975-4" x1="600.20087" x2="592.61292" xlink:href="#linearGradient3072-8" y1="279.82278" y2="-242.50758"/><linearGradient gradientTransform="matrix(-0.1587,1.4133,-1.4248,-0.0562,-982.3953,-34.1116)" gradientUnits="userSpaceOnUse" id="linearGradient7071" x1="-316.8895" x2="-270.918" y1="-905.82758" y2="-905.82758"><stop id="stop7073" offset="0" style="stop-color:#1C90F3;stop-opacity:1"/><stop id="stop7075" offset="1" style="stop-color:#1C90F3;stop-opacity:1"/></linearGradient><linearGradient gradientTransform="translate(-916.97996,-325.00556)" gradientUnits="userSpaceOnUse" id="linearGradient7080" x1="600.20087" x2="592.61292" xlink:href="#linearGradient3072-8" y1="279.82278" y2="-242.50758"/><linearGradient gradientTransform="translate(-161.94402,237.3424)" gradientUnits="userSpaceOnUse" id="linearGradient3197" x1="600.20087" x2="592.61292" xlink:href="#linearGradient3072-8" y1="279.82278" y2="-242.50758"/><linearGradient gradientTransform="translate(-161.07454,237.31125)" gradientUnits="userSpaceOnUse" id="linearGradient3200" x1="176.37346" x2="155.75816" xlink:href="#linearGradient3072-8" y1="265.34476" y2="-242.47643"/><linearGradient gradientTransform="translate(301.4053,254.95891)" gradientUnits="userSpaceOnUse" id="linearGradient3203" x1="-430.11011" x2="-428.83313" xlink:href="#linearGradient3055" y1="-297.24576" y2="-410.41733"/><linearGradient gradientUnits="userSpaceOnUse" id="linearGradient3212" x1="36.236591" x2="43.541412" xlink:href="#SVGID_2_" y1="-370.95273" y2="-839.59912"/><linearGradient gradientUnits="userSpaceOnUse" id="linearGradient3214" x1="36.236591" x2="43.541412" xlink:href="#SVGID_2_" y1="-370.95273" y2="-839.59912"/><linearGradient gradientUnits="userSpaceOnUse" id="linearGradient3216" x1="36.236591" x2="43.541412" xlink:href="#SVGID_2_" y1="-370.95273" y2="-839.59912"/><linearGradient gradientUnits="userSpaceOnUse" id="linearGradient3218" x1="36.236591" x2="43.541412" xlink:href="#SVGID_2_" y1="-370.95273" y2="-839.59912"/><linearGradient gradientUnits="userSpaceOnUse" id="linearGradient3220" x1="36.236591" x2="43.541412" xlink:href="#SVGID_1_-8" y1="-370.95273" y2="-839.59912"/><linearGradient gradientUnits="userSpaceOnUse" id="linearGradient3222" x1="36.236591" x2="43.541412" xlink:href="#SVGID_1_-8" y1="-370.95273" y2="-839.59912"/><linearGradient gradientUnits="userSpaceOnUse" id="linearGradient3224" x1="36.236591" x2="43.541412" xlink:href="#SVGID_2_" y1="-370.95273" y2="-839.59912"/><linearGradient gradientTransform="translate(-149.83009,327.50479)" gradientUnits="userSpaceOnUse" id="linearGradient3227" x1="36.236591" x2="43.541412" xlink:href="#SVGID_1_-8" y1="-370.95273" y2="-839.59912"/><linearGradient gradientTransform="translate(-149.83009,327.50479)" gradientUnits="userSpaceOnUse" id="linearGradient3230" x1="36.236591" x2="43.541412" xlink:href="#SVGID_1_-8" y1="-370.95273" y2="-839.59912"/><linearGradient gradientTransform="translate(-149.83009,327.50479)" gradientUnits="userSpaceOnUse" id="linearGradient3233" x1="36.236591" x2="43.541412" xlink:href="#SVGID_2_" y1="-370.95273" y2="-839.59912"/><linearGradient gradientTransform="translate(-149.83009,327.50479)" gradientUnits="userSpaceOnUse" id="linearGradient3236" x1="36.236591" x2="43.541412" xlink:href="#SVGID_2_" y1="-370.95273" y2="-839.59912"/><linearGradient gradientTransform="translate(-149.83009,327.50479)" gradientUnits="userSpaceOnUse" id="linearGradient3239" x1="36.236591" x2="43.541412" xlink:href="#SVGID_2_" y1="-370.95273" y2="-839.59912"/><linearGradient gradientTransform="translate(-149.83009,327.50479)" gradientUnits="userSpaceOnUse" id="linearGradient3242" x1="36.236591" x2="43.541412" xlink:href="#SVGID_2_" y1="-370.95273" y2="-839.59912"/><linearGradient gradientTransform="translate(-13.85946,859.09953)" gradientUnits="userSpaceOnUse" id="linearGradient3066" x1="36.236591" x2="43.541412" xlink:href="#SVGID_1_-8" y1="-370.95273" y2="-839.59912"/><linearGradient gradientTransform="translate(-13.85946,859.09953)" gradientUnits="userSpaceOnUse" id="linearGradient3069" x1="36.236591" x2="43.541412" xlink:href="#SVGID_1_-8" y1="-370.95273" y2="-839.59912"/><linearGradient gradientTransform="translate(-13.85946,859.09953)" gradientUnits="userSpaceOnUse" id="linearGradient3073" x1="116.50778" x2="117.30412" xlink:href="#linearGradient6919" y1="-403.49509" y2="-494.64996"/><linearGradient gradientTransform="translate(-13.85946,859.09953)" gradientUnits="userSpaceOnUse" id="linearGradient3076" x1="116.50778" x2="117.30412" xlink:href="#linearGradient6919" y1="-403.49509" y2="-494.64996"/><linearGradient gradientTransform="translate(-13.85946,859.09953)" gradientUnits="userSpaceOnUse" id="linearGradient3079" x1="116.50778" x2="117.30412" xlink:href="#linearGradient6919" y1="-403.49509" y2="-494.64996"/><linearGradient gradientTransform="translate(-13.85946,859.09953)" gradientUnits="userSpaceOnUse" id="linearGradient3082" x1="36.236591" x2="43.541412" xlink:href="#SVGID_1_-8" y1="-370.95273" y2="-839.59912"/></defs><path d="m 97.45266,195.91575 c 0,0.96483 0,1.91633 0,2.85004 2.16532,1.52061 7.2407,0.98262 6.34701,-2.85004 -1.15158,-1.04264 -5.21544,-1.04264 -6.34701,0 z" id="path5-1" style="opacity:0.50000000000000000;fill:url(#linearGradient3082);fill-opacity:1.0"/><path d="m 97.41265,399.71357 c 0.14005,3.21908 -0.19786,6.87389 2.86115,7.11176 3.0101,-1.50727 0.90481,-7.90541 -2.86115,-7.11176 z" id="path7-7" style="opacity:0.50000000000000000;fill:url(#linearGradient3079);fill-opacity:1"/><path d="m 139.18506,440.75903 c 2.31427,-0.51577 4.4907,-1.15158 4.25061,-4.21281 -1.65845,-0.71363 -3.46585,-1.23161 -5.64228,-1.43169 -1.03375,3.14127 -0.21787,3.77708 1.39167,5.6445 z" id="path9-4" style="opacity:0.50000000000000000;fill:url(#linearGradient3076);fill-opacity:1"/><path d="m 146.96154,438.69375 c -0.269,1.78739 -2.08529,2.10529 -2.12531,4.21281 2.1342,1.94745 4.22171,-0.51576 6.36702,-0.71584 -0.15784,-2.4232 -2.09418,-3.06124 -4.24171,-3.49697 z" id="path11-0" style="opacity:0.50000000000000000;fill:url(#linearGradient3073);fill-opacity:1"/><path d="m 432.89918,338.22431 c 0,-2.02527 0.99373,-3.03901 0.59802,-5.4422 3.61479,-2.70109 3.35913,-5.92017 4.84862,-11.50242 2.14531,-8.20554 11.99818,-22.1734 3.61479,-28.35145 -3.09903,2.84115 -0.93371,5.04649 -2.4232,7.82761 -2.54325,4.68856 -9.37712,5.24434 -12.08043,9.05921 -2.95897,4.27284 -3.99272,11.96038 -1.78961,15.69745 -4.42845,4.98645 -7.13177,12.57396 -3.019,19.94583 5.56447,-0.28012 7.154,-4.49293 10.25081,-7.23403 z" id="path13-9" style="opacity:0.5;fill:url(#linearGradient3069);fill-opacity:1"/><path d="m 256.02334,20.93623 c -129.63455,0 -235.09712,105.42478 -235.09712,235.05933 0,129.61454 105.46479,235.06822 235.05932,235.06822 129.61455,0 235.08823,-105.41589 235.08823,-235.06822 C 491.07177,126.36101 385.59786,20.93623 256.02334,20.93623 z m -46.34093,14.71038 c 2.27425,-0.50687 4.57073,-0.93371 6.89389,-1.36055 0.28678,-0.0489 0.57579,-0.08 0.84479,-0.14895 29.48301,-4.94644 63.41671,-3.34801 91.19014,2.90118 6.9139,1.68957 13.76778,3.65703 20.4238,5.95129 -4.2506,4.60852 -2.02526,18.17845 4.25283,19.2611 4.17279,0.68473 5.1643,-2.60327 9.69502,-3.6259 0.99151,4.2217 3.65481,6.84498 6.038,9.66612 0.12004,2.92118 -4.50849,1.13379 -3.63481,4.83751 1.1916,3.67482 9.51496,3.79486 12.09822,2.3943 0.71362,-5.32437 0.47575,-11.57356 4.84863,-13.27203 0.69583,-3.77485 -2.94119,-3.13904 -3.03901,-6.08023 5.66229,2.0675 9.31487,6.10024 14.93936,8.16552 0.22009,0.18007 0.45797,0.3268 0.69584,0.47797 -1.96746,4.5196 2.44321,5.35327 2.46099,9.50606 -2.82113,0.23787 -1.80739,-3.40804 -4.80638,-3.0101 -4.01495,1.22271 -2.92118,7.5586 -4.84862,10.87772 -7.27183,-2.64106 -13.75,3.09903 -19.90804,-2.4232 1.88965,-4.06386 -2.66107,-3.82376 -4.2506,-6.06022 1.58953,-4.35065 1.80739,-6.31811 0,-10.85772 -8.06548,0.44685 -6.99394,9.16815 -4.2306,14.52364 -2.60327,0.17785 -7.01172,0.0289 -10.27081,1.20271 -2.02749,2.36317 -2.38319,6.47595 -7.23181,6.00909 -1.84741,-1.61843 2.10529,-2.93896 0,-4.8175 -0.8559,-1.16269 -3.11904,-0.89369 -4.2306,-1.7985 -0.10004,-4.15279 -2.46321,-6.01132 -5.46443,-7.25182 0.47797,-2.27425 0.75586,-4.28173 -2.38318,-4.2217 -0.37793,-2.60105 1.94745,-2.47211 1.8074,-4.83751 -0.49798,-1.58064 -1.92745,-2.13642 -4.23282,-1.83852 -0.51354,-1.69846 0.87591,-1.54952 0.59802,-3.01011 -0.97373,-1.02263 -3.557,-0.48686 -5.4422,-0.63581 -2.9034,1.7496 -2.46322,6.82498 -4.82862,9.07033 -0.32013,1.93856 2.95897,0.22898 2.40319,2.4232 0.41795,2.41431 -2.86115,0.79365 -3.01899,0 -3.87268,1.57842 -4.84863,4.88642 -9.67502,4.27061 0.53577,2.29426 0.81366,4.83751 0.61358,7.82761 1.49172,1.5295 4.31063,1.76738 5.48444,3.61479 3.49697,-0.71584 6.16026,-2.23423 7.8276,-4.80861 0,-1.8563 0,-3.61479 0,-5.44442 1.46949,-0.57579 2.60105,-1.43169 4.8464,-1.22049 -0.59579,2.41208 1.78962,1.7985 1.1916,4.24171 -1.48949,-0.0978 -2.91896,-0.12005 -3.6348,0.5669 -0.41795,2.27425 1.01151,2.60105 0.61358,4.83751 -1.46949,-0.0889 -2.90117,-0.0889 -3.6148,0.63581 0.19786,1.57841 1.43169,2.15642 3.6148,1.75849 -0.27789,2.57215 -2.85894,2.81002 -3.6148,4.87752 4.25061,1.43169 11.3846,0.50687 15.09943,-0.5958 -1.1538,2.9612 2.00526,1.57842 1.8074,3.6059 -5.96241,-3.07012 -6.14026,2.4032 -13.29203,1.20271 -0.83367,0.77587 -0.61358,2.63218 -0.61358,4.21281 5.38439,2.78113 13.20977,5.9802 9.67501,15.72413 -8.50121,1.34276 -17.95836,-4.69745 -22.94482,0.59579 3.57478,7.36075 -0.75586,14.65259 0.5958,21.73544 3.63702,0.98262 8.90137,0.38683 10.86883,3.019 -1.78961,1.64956 -3.61479,3.22797 -3.61479,6.63601 -8.88136,2.00526 -7.63197,14.1057 -13.29203,19.34114 -10.85772,4.06387 -13.70776,16.08205 -19.92582,24.74555 5.17542,5.23322 2.7411,17.06466 -0.59802,22.36013 0.89369,2.1053 2.50323,3.49697 1.81851,7.24071 1.71625,2.90117 4.88642,4.35953 7.8365,6.06022 4.17057,9.53718 8.93916,21.73544 19.29,22.92703 4.55073,0.53577 6.85611,-3.40804 10.90663,-3.61479 3.8371,-0.19786 4.96645,2.7211 9.0392,3.019 6.25809,-1.66957 11.84034,-7.14289 18.10064,-6.04022 5.28436,0.92482 8.85914,10.01293 15.11944,5.44442 2.24535,4.12166 1.33165,12.67623 -0.6158,16.29102 2.28536,7.80982 8.20553,11.96038 9.65723,20.56386 11.36236,8.04547 -1.62955,20.16369 -0.59802,30.79465 0.55578,5.30436 5.32659,9.35711 6.04021,15.05719 1.34944,11.24676 4.72858,19.43006 10.27082,27.79566 0.10004,1.70958 -2.04527,1.1538 -1.1916,3.6148 2.38319,9.41713 12.2983,-0.49576 18.08064,1.78961 5.86014,-3.63703 12.6162,-6.31811 14.52141,-13.88783 7.66754,-2.95897 8.14551,-13.13197 12.08044,-19.92582 0.97372,0 2.00525,0 2.9812,0 2.1831,-3.23909 2.46099,-9.99293 0,-13.27203 2.78112,-5.72231 7.96544,-8.93916 12.71402,-12.67622 0.23787,-7.58751 3.21908,-12.23828 1.21382,-18.11621 -0.97372,-2.78334 -4.47069,-4.15278 -4.82861,-6.63601 -1.44948,-9.5772 11.08447,-12.04041 12.06042,-22.37125 1.62732,-0.37793 2.30315,-1.69846 3.61479,-2.41431 1.92745,-10.57982 9.43715,-18.74534 8.44341,-30.15884 -4.4907,2.18533 -10.13298,2.65218 -14.46361,3.58589 -1.58953,-1.91633 1.11378,-3.34802 1.80739,-4.8175 -4.90642,-7.5297 -15.0394,-15.78415 -13.27202,-25.97715 -4.03274,-5.25323 -8.44341,-13.2698 -9.07922,-19.93694 3.73484,-0.77587 4.94866,5.84014 6.04021,9.65501 0.63582,2.45433 3.21686,2.84115 4.2306,4.84863 0.53577,11.14449 9.07922,14.26575 9.67724,25.38135 2.30315,1.91633 2.02526,6.41815 5.42219,7.26071 2.40319,0.34903 1.72736,-2.29426 1.80739,-4.24171 6.45594,-4.39066 14.36358,-7.39187 19.90582,-12.70513 -0.0778,-4.45958 2.7411,-4.92643 2.42542,-8.46342 -0.32013,-3.82376 -5.42441,-5.23544 -5.42441,-9.6261 4.15279,0.38682 6.55598,2.57437 11.30456,2.3943 0.51577,1.72736 1.03375,3.49696 1.51172,5.22433 5.06427,20.1259 8.54345,41.11659 7.70756,64.83728 -3.53476,98.22409 -57.93227,163.60604 -127.42699,198.0555 -7.88763,-0.71362 -14.52142,-1.03375 -18.11843,3.61702 -3.79264,-0.43796 -5.02647,-2.50324 -8.46341,-0.59802 0.08,-3.29689 -5.80012,-0.63581 -6.02021,-3.65703 -9.635,1.23383 -18.63641,2.30537 -25.98382,6.08023 -2.64329,1.38945 -4.53072,4.2506 -7.25404,4.84862 -1.78739,0.3557 -4.29062,-0.83589 -6.04022,-0.59802 -5.28435,0.67583 -14.19462,8.02547 -20.52162,9.02142 -2.86115,0.47575 -5.80234,-0.28011 -9.0392,0 -15.22837,7.11176 -44.39348,-1.74959 -58.59699,-6.0002 0.0289,-2.02526 1.70958,-2.34539 1.1827,-4.84862 -9.54607,-5.72009 -16.29102,-14.30578 -25.34134,-20.54163 -0.20897,-4.60852 3.67482,-5.20654 7.2407,-6.04021 -2.41208,-5.6823 -15.02829,-3.29689 -14.50141,4.80638 0.18008,2.6633 2.12531,2.54547 2.43432,6.08023 -2.73221,-1.35165 -3.13904,-4.92865 -6.6449,-5.48443 1.59842,-1.07155 1.33164,-4.09276 -1.20271,-4.21281 -2.78112,-0.55578 -1.16047,3.25909 -2.4232,4.21281 -3.00121,0.12005 -2.9612,-0.59802 -5.43331,0 0.27789,3.85266 5.23545,5.04648 7.85651,3.05901 1.26273,2.18533 1.26273,3.21908 0,5.4044 2.24535,3.41694 7.81871,3.10126 11.47352,2.42543 1.24272,0.19786 -0.12894,-1.70958 -0.62692,-1.78961 1.27162,-1.62733 2.6922,1.66956 3.03011,3.01899 -10.74878,4.96645 -21.79546,-3.25909 -33.82476,-10.8466 C 84.307355,413.26126 39.615982,352.76573 32.52423,280.20978 c -3.039,-31.20149 -0.269,-66.25786 9.655009,-89.37163 1.967461,2.27425 1.11156,7.38075 3.625908,9.05921 4.023846,-2.4232 -1.260509,-9.59499 -1.202708,-13.86782 1.220493,4.12166 4.906425,7.76758 6.029101,12.07821 0.615804,2.32538 -0.815885,3.87489 -0.595796,6.0002 0.724737,7.20068 6.37813,7.94765 12.674004,12.70512 3.018997,0.78477 2.583265,-1.8563 4.837509,-1.81851 1.76738,8.12551 13.529906,6.20918 13.887828,15.71524 1.291632,1.94745 4.072755,2.37429 4.221704,5.4044 3.190181,-0.5958 2.890051,2.34317 6.667131,2.45432 1.11156,-0.85367 0.12895,-3.88379 2.3943,-3.64591 3.05902,2.60327 3.24798,8.03657 3.03012,13.87893 -2.27425,5.55336 -9.68391,13.5099 -4.24172,19.33003 -4.65965,4.80861 0.23788,12.63621 4.24172,14.46361 2.27425,8.82134 5.74231,16.44887 10.87772,22.41127 5.01536,0.99151 7.02284,5.00647 9.66612,8.4234 0.0289,12.81406 1.66734,23.82073 2.9901,35.00524 0.74475,6.16027 -1.46948,12.16047 -1.19159,18.13844 0.36904,8.20553 6.46705,13.56992 5.42441,22.35124 -0.93371,0.08 -2.30537,-0.27789 -2.41431,0.59802 -0.98262,3.61479 2.37429,2.88116 3.03901,4.84862 2.61216,8.64127 4.39955,18.09842 12.67622,21.11742 1.88743,0.27789 0.45797,-2.78113 1.85631,-2.97898 0.5869,-1.54952 0.18007,5.12429 -1.81629,4.8464 2.66108,3.85489 10.72878,5.9624 15.71523,4.25283 -5.35549,-3.97494 -10.29082,-8.26556 -13.27202,-14.46362 1.71847,-2.74111 3.28799,-5.64228 4.7886,-8.48342 -0.30901,-2.90118 -3.44806,-3.019 -4.7886,-4.84863 -0.52688,-2.50323 2.6833,-1.31164 3.59701,-2.4232 -0.92482,-0.9137 -0.538,-3.08124 -0.61581,-4.84862 0.77587,-0.79366 2.9612,-0.23788 3.05902,-1.78961 0.22898,-3.11682 -4.83751,-0.83367 -4.25283,-4.25061 1.5006,0.51576 3.22797,0.81366 5.42441,0.63581 0.93371,-2.1253 0.02,-4.05274 0,-6.07801 8.95917,3.07902 13.98564,-3.63702 9.68391,-10.2508 1.71847,0.0778 3.95271,-0.32013 4.8175,0.63359 7.09175,-4.19058 9.43714,-13.12975 14.50363,-19.35003 0.22898,-2.90118 -1.08266,-4.13056 -0.60469,-7.27183 2.29426,-3.73484 7.19179,-4.84862 10.26192,-7.86762 2.70109,-0.27789 5.1443,0.87591 7.23181,0 5.58225,-2.1831 7.8076,-19.24999 6.65602,-28.94724 2.32316,-1.72736 13.93674,-13.72776 11.49353,-20.52162 -2.68331,-7.45189 -19.19219,-15.17946 -30.21887,-13.88782 -2.75222,-6.49596 -10.18188,-5.62005 -15.69522,-8.48121 -2.07639,-10.8177 -6.55598,-19.22109 -20.55274,-18.11842 -2.67219,-6.0291 -11.32457,-8.3945 -12.06932,-14.46362 -3.88379,-0.47574 -6.56709,0.269 -7.84761,2.4232 -2.26536,-1.52061 -3.35691,-0.81588 -6.616,-0.60691 -1.07155,-2.21422 -3.42805,-3.0679 -4.26172,-5.46443 -2.78113,0.0489 -2.47211,2.05639 -3.6148,-0.59579 -4.99757,2.24535 -10.05294,4.45068 -11.4624,10.2219 -2.22534,-1.11156 -7.11176,-2.6922 -10.86883,0 -6.435934,-5.26434 4.01495,-23.50282 -11.482415,-18.68532 1.131568,-4.96645 3.219077,-8.99919 4.132779,-14.13459 1.718472,0.14895 3.565884,0.08 4.826396,1.87631 1.5006,-2.75222 4.5196,-3.94381 9.19927,-3.49697 -0.0289,-8.04769 -8.62126,-8.1544 -14.841551,-6.39813 -1.945229,-3.24798 -8.154403,-7.91653 -14.016769,-9.53719 1.400565,-2.11641 3.316895,-3.73484 5.871259,-4.56851 2.861155,-0.23787 2.95008,2.30538 5.424412,2.41431 1.58953,-0.6158 2.005254,-2.43432 1.827404,-4.80861 4.628535,-0.95372 5.104283,0.98262 9.059215,0 0.59802,5.05538 1.62954,9.65501 3.6059,13.27203 6.83387,-6.038 -0.8937,-16.5 3.63702,-23.52283 3.288,-5.20655 9.58609,-5.20655 11.46241,-11.50242 0.35792,-1.95635 -0.42684,-2.81225 -0.5958,-4.19281 3.6059,-2.26536 4.67744,-7.04284 6.63601,-10.90662 3.86378,-1.38056 4.96645,-5.50445 9.05921,-6.60711 0.75364,-2.4232 -1.97635,-1.26051 -1.2116,-3.64592 1.73848,-3.88379 6.96281,-4.33064 9.68614,-7.27182 0.81366,1.02263 -0.54689,3.55699 1.19159,4.85751 3.8749,-2.79001 9.01919,-4.26172 12.67623,-7.25181 0.49575,-2.71221 -1.05376,-3.34802 -3.00122,-3.57478 0.08,-1.7985 2.56326,-1.11156 2.40542,-3.05012 -0.43795,-2.18533 -4.58852,-0.6247 -6.04022,-1.7985 0.52688,-5.37328 5.65117,-2.41431 9.05922,-4.86641 0.57578,-2.9612 -3.83488,-0.99374 -4.8264,-2.38541 3.74596,-2.10529 10.36196,-1.36055 10.87773,-6.6738 5.41552,-0.80477 8.23666,-4.22171 9.635,-9.0192 -0.30902,-3.11904 -4.71968,-2.13642 -4.19281,-6.04022 -2.21422,0.16896 -3.94381,-0.10004 -5.44442,-0.63581 -1.40056,-5.85125 -2.91895,-11.56244 -4.8464,-16.91572 -1.87853,0.20898 -2.9812,1.1916 -3.83488,2.41209 -2.16532,1.76738 -4.11277,3.77486 -5.81123,6.05133 -0.18007,-1.23161 -1.63844,-1.19382 -2.4232,-1.8074 1.02263,-2.58326 2.35428,-4.85751 3.62591,-7.25181 12.943,-6.97393 25.59033,-14.22574 41.06546,-18.70533 1.96746,0.85368 2.18533,3.45695 4.82639,3.64592 -1.12267,2.43431 -1.17158,3.49696 0.60692,5.4333 2.4432,0.38682 3.45695,-0.63581 5.4333,-0.63581 1.23161,0.81366 1.52061,2.49434 3.0101,3.03011 4.61965,-2.84115 10.93553,-6.97393 9.05922,-12.70513 2.69219,-1.32053 3.05012,-4.96645 4.84862,-7.23181 0.0356,-0.0289 0.10671,-0.0289 0.15562,-0.0289 z m 229.05913,88.79807 c 1.66956,2.85004 2.88116,6.07801 3.21685,10.2308 2.34539,3.11014 4.72858,6.14914 4.80861,11.47352 -7.19179,0.30901 -10.88662,-4.03274 -10.64874,-10.04406 1.76738,-1.46948 3.8949,-2.62328 4.52849,-5.28435 -1.62732,-0.5958 -3.09903,-0.81589 -4.37065,-0.68695 -4.45069,-4.90642 -8.50121,-12.13823 -8.82134,-18.98322 2.34539,2.9901 5.1065,5.52223 7.62974,8.36338 1.23161,1.64288 2.46544,3.26132 3.65704,4.93088 z m 5.76232,8.40339 c 0.27789,0.48686 0.33569,1.19159 0.47575,1.82741 -1.58953,0.20897 -1.98747,-0.80477 -1.8274,-2.38319 0.6158,-0.0689 0.95594,0.08 1.21382,0.34681 0.0578,0.06 0.0778,0.11782 0.13783,0.20897 z m 13.74777,50.16469 c -1.92522,2.91896 -2.70109,6.93391 -7.86762,6.6249 -1.34943,-1.63844 -1.70958,-4.33064 -1.76738,-7.23181 -1.1538,-1.19381 -2.22534,-0.22898 -3.63702,0 -0.95372,-3.87489 -3.45695,-6.21806 -3.65481,-10.87772 6.51596,1.76738 5.12652,11.35347 11.48241,13.27202 2.6633,0.20898 3.12126,-1.70735 5.44442,-1.78739 z M 377.3323,161.87312 c -9.51717,-3.40804 -14.92158,-10.85772 -24.13863,-14.50141 1.44947,-4.92643 -2.82114,-5.82235 -1.19159,-9.07922 -1.78739,-0.6247 -3.51698,-1.31164 -4.84862,-2.3943 -1.86743,0.18897 -2.74111,1.28274 -4.2306,1.78739 -7.52971,-0.85368 -14.16572,-1.54952 -21.13965,0 -6.51596,1.5006 -13.05193,6.63601 -19.33002,1.23161 7.86762,-0.41795 13.37206,-2.44321 17.52485,-6.6249 -1.33387,-10.17299 7.62975,-10.05295 9.03698,-17.53374 5.78234,2.0675 10.19301,0.54688 14.52364,-1.81629 4.90643,7.5586 15.89308,9.07033 18.07841,19.35003 -3.09903,0.52688 -5.84013,1.5095 -9.0192,-0.60469 -1.15379,3.50586 2.82114,6.72494 4.80639,9.03031 1.86742,0.44685 2.24535,-0.59579 3.61702,-0.59579 0.29789,-2.06528 -0.22009,-3.34802 -0.59802,-4.8175 1.8274,-0.06 3.10125,1.76738 4.21281,0.59579 0.39794,-1.78738 1.70958,-2.7122 3.61701,-2.99009 0.43573,-2.26536 -1.29163,-2.36318 -1.19159,-4.24171 2.02526,0 2.97898,2.90117 4.84862,1.19159 0.19786,-5.4133 -5.76232,-4.68856 -6.63601,-9.05921 3.67482,-1.09156 4.72858,0.48686 7.23181,1.80739 1.46948,10.03294 5.16431,17.83164 13.30982,21.15965 0.95594,0.40684 0.95594,-2.84114 0,-2.4232 0.558,-1.8563 1.58953,0.69584 2.38318,0.5958 1.47171,0.24899 -0.3179,-2.75222 1.82741,-1.81851 -1.52951,-4.77749 -2.461,-6.46706 -2.4232,-12.64511 4.68856,0 4.35064,7.35186 4.23059,10.21079 2.86116,3.95271 6.93391,9.36823 13.90784,7.27183 2.08529,-0.12005 1.96746,2.02748 3.59478,2.4143 2.64107,0 3.85489,-1.43168 6.67603,-1.22271 -0.67583,5.74232 -0.15784,10.28193 -1.19159,16.31992 -11.80254,-0.95372 -23.34498,-1.93634 -29.64085,-9.65501 -1.76961,1.82741 -6.83387,0.39794 -8.44564,2.40542 -0.45351,2.89672 0.95595,3.88156 0.59802,6.65157 z M 319.97582,86.99401 c 1.86742,-0.92482 0.83367,3.46806 -0.59802,2.99009 -0.27567,-1.44058 1.07377,-1.31164 0.59802,-2.99009 z m 89.92074,38.38438 c -3.49697,-0.80477 -7.29183,-1.08266 -12.04042,0.23787 -1.11378,-1.43169 -2.08528,-3.13904 -3.63702,-4.2217 2.00748,-3.03901 3.2791,-6.80497 5.42441,-9.64389 2.90117,-0.23788 2.80113,2.4721 6.06023,1.7985 -0.69584,1.8074 -0.14006,2.02748 0.59579,3.6059 2.62328,-1.34276 5.3844,0.12005 7.86762,0.63581 0.49798,-2.30537 -1.29163,-2.36317 -2.40319,-3.03011 0.93371,-1.25162 4.21281,-0.16896 5.4422,-1.2116 -0.19786,1.36055 0.15784,2.26536 1.19159,2.41431 0.12005,1.31164 -2.1253,0.2979 -3.019,0.59579 2.30538,6.36702 11.10671,6.21807 12.69624,13.30093 -3.51698,0.0911 -6.49818,-0.68472 -9.39935,-1.63844 0,-0.0889 0.0422,-0.14895 0.0422,-0.23787 -2.3076,-0.98707 -5.72453,-3.05457 -8.82134,-2.6055 z M 78.320494,197.35633 c 0.09782,0.21787 0.197858,0.41795 0.309014,0.60469 -1.918552,-0.12894 -3.041228,1.25162 -3.992723,2.97898 -2.563257,-4.8175 -7.827604,3.94382 -1.698463,3.34802 -1.300525,2.33427 -3.05012,4.25283 -6.567096,3.46807 -2.205334,-6.04022 -3.139044,-14.28355 -1.371664,-20.74171 3.448058,0.92482 6.278089,3.37692 6.249189,7.5097 4.630758,0.6158 6.704929,-1.30053 9.924006,-2.13642 -0.168957,1.35166 0.793653,1.56063 0.704729,2.84115 -2.036378,-0.14673 -3.874898,-0.0867 -3.556992,2.12752 z m 32.690976,30.30779 c -0.0689,-1.48949 0.96483,-1.84741 1.23161,-3.01899 2.24535,0.44684 0.71584,3.25687 -1.23161,3.01899 z M 87.48864,120.79876 c 1.06487,0.44685 0.06,1.08266 0,1.8074 -1.08266,-0.42684 -0.10893,-1.08266 0,-1.8074 z m 1.7985,-0.62692 c 0.8937,-1.10266 2.52324,-1.46059 3.03012,-3.01899 1.86742,0.54688 3.13904,1.67845 2.99009,4.24171 -2.08529,-0.46686 -2.30537,0.9137 -4.2306,0.6158 0.67361,-1.89854 0.64471,-1.91633 -1.78961,-1.83852 z m 7.84762,3.05012 c 1.83852,0.83367 2.16531,-0.2979 4.8375,0 -0.0689,1.05376 0.74475,1.28274 0.60469,2.3943 -2.63217,-2.30537 -3.22797,1.28052 -3.6348,3.019 -0.63581,-1.76738 -1.47837,-3.3458 -1.80739,-5.4133 z m 10.24191,-20.53273 c -2.1053,-3.22797 -0.76476,-7.29183 0,-10.85772 0.12894,-1.34276 -2.1053,-0.29789 -3.00121,-0.6158 3.577,-4.69745 9.0392,-10.64874 14.50363,-11.48241 -0.0489,7.02283 -5.01536,9.08811 -8.46342,12.674 1.5095,3.288 1.76961,10.02405 -3.039,10.28193 z m 27.79566,3.019 c -1.62954,-0.54689 0.60469,-2.12753 0.60469,-3.019 2.35428,0.33791 2.95008,-1.11156 5.45331,-0.5958 -0.33791,2.90118 -4.39955,2.02749 -6.058,3.6148 z m 3.02789,7.2318 c 1.42057,0.18008 2.49434,0.71585 3.62591,1.20271 -0.57579,1.28274 -4.39955,0.83367 -3.62591,-1.20271 z" id="path15-4" style="fill:url(#linearGradient3066);fill-opacity:1"/><g id="g3149" transform="translate(-5e-6,0)"/><g id="g3160" transform="translate(-5e-6,0)"/><path d="m 94.142649,511.92435 c -28.57954,0 -52.06107,-8.22713 -68.51532,-24.68402 C -35.028241,426.58479 18.996479,277.53721 148.61926,147.91442 209.38845,87.134668 277.34084,40.591818 339.95208,16.827508 c 65.42849,-24.8531499 117.98113,-21.9645399 148.00366,8.08177 32.20285,32.17908 30.08595,94.758612 -0.94085,166.405662 l -9.90268,-28.95746 C 497.4012,107.29417 496.0375,63.283148 472.79912,40.065898 449.41009,16.700658 403.79223,15.548388 347.55285,36.862788 287.71394,59.580538 222.45459,104.38441 163.77852,163.07104 46.698599,280.15096 -9.6227114,421.66384 40.783949,472.07843 c 23.04018,23.03225 68.872101,23.5106 122.962861,3.9801 l 29.82431,10.99152 c -36.94409,16.58375 -70.75643,24.8743 -99.428471,24.8743 z" id="path19" style="fill:url(#linearGradient3200);fill-opacity:1"/><path d="m 418.53661,511.89471 c -27.50919,0 -62.74602,-9.88153 -97.87978,-25.08308 l 29.14511,-10.71931 c 54.33126,19.72078 99.11398,19.05215 122.12508,-3.9801 C 522.34161,421.69764 466.02295,280.18477 348.92188,163.0837 231.8446,46.024907 90.33966,-10.296393 39.9145,40.099687 16.46469,63.549507 15.23049,107.76667 35.90533,163.21056 L 24.94552,192.90009 C -8.1453295,119.11497 -8.2087495,57.914997 24.75524,24.940427 c 60.64233,-60.65554 209.70576,-6.615 339.3259,122.984013 129.62279,129.62014 183.65805,278.6915 123.00515,339.34704 -16.41461,16.41461 -39.94635,24.62323 -68.54968,24.62323 z" id="path23" style="fill:url(#linearGradient3197);fill-opacity:1"/></svg>