<?xml version="1.0" ?><!DOCTYPE svg  PUBLIC '-//W3C//DTD SVG 1.1//EN'  'http://www.w3.org/Graphics/SVG/1.1/DTD/svg11.dtd'><svg height="60px" id="Layer_1" style="enable-background:new 0 0 60 60;" version="1.1" viewBox="0 0 60 60" width="60px" xml:space="preserve" xmlns="http://www.w3.org/2000/svg" xmlns:xlink="http://www.w3.org/1999/xlink"><style type="text/css">
	.st0{fill:#C2E4F8;}
	.st1{fill:#0A94E3;}
	.st2{fill:#FFFFFF;}
	.st3{fill-rule:evenodd;clip-rule:evenodd;fill:#FFFFFF;}
	.st4{fill:none;stroke:#0A94E3;stroke-width:2;stroke-linecap:round;stroke-linejoin:round;stroke-miterlimit:10;}
	.st5{fill:#81D4EF;}
	.st6{fill:#81D4EF;stroke:#0A94E3;stroke-width:2;stroke-linecap:round;stroke-linejoin:round;stroke-miterlimit:10;}
	.st7{fill:#59B0D3;stroke:#0A94E3;stroke-width:2;stroke-linecap:round;stroke-linejoin:round;stroke-miterlimit:10;}
	.st8{fill-rule:evenodd;clip-rule:evenodd;fill:#C2E4F8;}
	.st9{fill-rule:evenodd;clip-rule:evenodd;fill:#E45544;}
	.st10{fill-rule:evenodd;clip-rule:evenodd;fill:#EFEAE1;}
	.st11{fill:#AA8566;}
	.st12{fill:#9F85E5;}
	.st13{fill:#9F85E5;stroke:#0A94E3;stroke-width:2;stroke-linecap:round;stroke-linejoin:round;stroke-miterlimit:10;}
	.st14{fill:#76D03B;}
</style><path class="st1" d="M45,44.0004883c-7.1313477,0-11.4897461-5.3413086-13.8896484-9.8222656  c-0.2607422-0.4868164-0.0776367-1.0927734,0.4091797-1.3535156c0.4873047-0.2607422,1.0932617-0.0771484,1.3535156,0.4091797  C35.015625,37.2333984,38.8583984,42.0004883,45,42.0004883c7.168457,0,13-5.831543,13-13s-5.831543-13-13-13  c-10.1069336,0-14.0004883,13.1425781-14.0385742,13.2753906c-0.0424805,0.1484375-1.0717773,3.6948242-3.5087891,7.2861328  C24.1503906,41.4282227,19.8442383,44.0004883,15,44.0004883c-8.2709961,0-15-6.7290039-15-15s6.7290039-15,15-15  c7.1035156,0,11.4550781,5.3056641,13.8549805,9.7563477c0.2617188,0.4863281,0.0805664,1.0927734-0.4057617,1.3549805  c-0.4858398,0.2612305-1.0922852,0.0800781-1.3549805-0.4057617C24.953125,20.734375,21.1166992,16.0004883,15,16.0004883  c-7.168457,0-13,5.831543-13,13s5.831543,13,13,13c10.1069336,0,14.0004883-13.1425781,14.0385742-13.2753906  c0.0424805-0.1484375,1.0717773-3.6948242,3.5087891-7.2861328C35.8496094,16.5727539,40.1557617,14.0004883,45,14.0004883  c8.2709961,0,15,6.7290039,15,15S53.2709961,44.0004883,45,44.0004883z"/></svg>