<?xml version="1.0" ?><!DOCTYPE svg  PUBLIC '-//W3C//DTD SVG 1.1//EN'  'http://www.w3.org/Graphics/SVG/1.1/DTD/svg11.dtd'><svg height="60px" id="Layer_1" style="enable-background:new 0 0 60 60;" version="1.1" viewBox="0 0 60 60" width="60px" xml:space="preserve" xmlns="http://www.w3.org/2000/svg" xmlns:xlink="http://www.w3.org/1999/xlink"><style type="text/css">
	.st0{fill:#FFFFFF;}
	.st1{fill:#0A94E3;}
	.st2{fill:#DAE3E6;}
	.st3{fill:#DD5089;}
	.st4{fill:#C2E4F8;}
	.st5{fill-rule:evenodd;clip-rule:evenodd;fill:#FFFFFF;}
	.st6{fill:#EFEAE1;}
	
		.st7{fill-rule:evenodd;clip-rule:evenodd;fill:none;stroke:#0A94E3;stroke-width:2;stroke-linecap:round;stroke-linejoin:round;stroke-miterlimit:10;}
	.st8{fill-rule:evenodd;clip-rule:evenodd;fill:#FFCC00;}
	.st9{fill-rule:evenodd;clip-rule:evenodd;fill:#76D03B;}
	.st10{fill:#FFCC00;}
	.st11{fill:#81D4EF;}
	.st12{fill-rule:evenodd;clip-rule:evenodd;fill:#C2E4F8;}
	.st13{fill:#F1B5A4;}
	.st14{fill:#EFDCD2;}
	.st15{fill:#9F85E5;}
	.st16{fill:#A6ACB2;}
</style><path class="st4" d="M33.0000038,50.999836h-30v-12c0-1.104599,0.895391-2,2-2h26c1.1045914,0,2,0.895401,2,2V50.999836z"/><path class="st1" d="M33,52H3c-0.5527344,0-1-0.4477539-1-1V39c0-1.6542969,1.3457031-3,3-3h26c1.6542969,0,3,1.3457031,3,3v12  C34,51.5522461,33.5527344,52,33,52z M4,50h28V39c0-0.5512695-0.4482422-1-1-1H5c-0.5517578,0-1,0.4487305-1,1V50z"/><path class="st4" d="M15.0000038,36.999836h-8v-4c0-1.104599,0.895391-1.9999981,2-1.9999981h4c1.1045904,0,2,0.8953991,2,1.9999981  V36.999836z"/><path class="st1" d="M15,38H7c-0.5527344,0-1-0.4477539-1-1v-4c0-1.6542969,1.3457031-3,3-3h4c1.6542969,0,3,1.3457031,3,3v4  C16,37.5522461,15.5527344,38,15,38z M8,36h6v-3c0-0.5512695-0.4482422-1-1-1H9c-0.5517578,0-1,0.4487305-1,1V36z"/><path class="st4" d="M29.0000038,36.999836h-8v-4c0-1.104599,0.8953896-1.9999981,2-1.9999981h4  c1.1045895,0,2,0.8953991,2,1.9999981V36.999836z"/><path class="st1" d="M29,38h-8c-0.5527344,0-1-0.4477539-1-1v-4c0-1.6542969,1.3457031-3,3-3h4c1.6542969,0,3,1.3457031,3,3v4  C30,37.5522461,29.5527344,38,29,38z M22,36h6v-3c0-0.5512695-0.4482422-1-1-1h-4c-0.5517578,0-1,0.4487305-1,1V36z"/><path class="st0" d="M48.5146942,50.999836L11.7451944,14.230238l8.4851999-8.4852304  c0.7810993-0.7810502,2.0473995-0.7810502,2.8285007,0l33.9411087,33.9411316c0.7809982,0.7809982,0.7809982,2.0473976,0,2.8283997  L48.5146942,50.999836z"/><path class="st1" d="M48.5146484,52c-0.2558594,0-0.5117188-0.0976562-0.7070312-0.2929688L11.0380859,14.9375  c-0.390625-0.390625-0.390625-1.0234375,0-1.4140625l8.4853516-8.4853516c1.1699219-1.1699219,3.0722656-1.1699219,4.2421875,0  l33.9414062,33.940918c1.1699219,1.1699219,1.1699219,3.0732422,0,4.2426758l-8.4853516,8.4853516  C49.0263672,51.9023438,48.7705078,52,48.5146484,52z M13.1591797,14.2304688l35.3554688,35.3554688l7.7783203-7.7783203  c0.1884766-0.1889648,0.2929688-0.4404297,0.2929688-0.7070312c0-0.2670898-0.1044922-0.5185547-0.2929688-0.7075195  L22.3515625,6.4521484c-0.390625-0.3896484-1.0234375-0.3896484-1.4140625,0L13.1591797,14.2304688z"/><path class="st0" d="M30.1298943,12.8160372l-5.6567993-5.6568198l2.8283997-2.8284297  c0.7810993-0.7810502,2.0473995-0.7810502,2.8283997,0l2.8284988,2.8284297c0.781002,0.7810502,0.781002,2.04742,0,2.8284202  L30.1298943,12.8160372z"/><path class="st1" d="M30.1298828,13.815918c-0.2558594,0-0.5117188-0.0976562-0.7070312-0.2929688L23.765625,7.8662109  c-0.1875-0.1875-0.2929688-0.4418945-0.2929688-0.7070312s0.1054688-0.5195312,0.2929688-0.7070312l2.8291016-2.8286133  c1.1699219-1.1699219,3.0722656-1.1674805,4.2421875-0.0004883l2.828125,2.8291016  c1.1699219,1.1699219,1.1699219,3.0732422,0,4.2426758l-2.828125,2.828125  C30.6416016,13.7182617,30.3857422,13.815918,30.1298828,13.815918z M25.8867188,7.1591797l4.2431641,4.2426758l2.1210938-2.1210938  c0.1884766-0.1889648,0.2929688-0.4404297,0.2929688-0.7070312c0-0.2670898-0.1044922-0.5185547-0.2929688-0.7075195  l-2.828125-2.8286133c-0.390625-0.3896484-1.0234375-0.3901367-1.4140625,0.0004883L25.8867188,7.1591797z"/><path class="st0" d="M38.6151924,21.3013382l-5.6567993-5.6568003l2.8283997-2.8285007  c0.781002-0.7810001,2.0474014-0.7810001,2.8283997,0l2.8285027,2.8285007c0.7809982,0.7809992,0.7809982,2.0472994,0,2.8283987  L38.6151924,21.3013382z"/><path class="st1" d="M38.6152344,22.3012695c-0.2558594,0-0.5117188-0.0976562-0.7070312-0.2929688l-5.6572266-5.6567383  c-0.1875-0.1875-0.2929688-0.4418945-0.2929688-0.7070312S32.0634766,15.125,32.2509766,14.9375l2.8291016-2.8286133  c1.1328125-1.1323242,3.109375-1.1328125,4.2421875-0.0004883l2.828125,2.8291016  c1.1699219,1.1699219,1.1699219,3.0732422,0,4.2426758l-2.828125,2.828125  C39.1269531,22.2036133,38.8710938,22.3012695,38.6152344,22.3012695z M34.3720703,15.6445312l4.2431641,4.2426758  l2.1210938-2.1210938c0.3896484-0.3901367,0.3896484-1.0244141,0-1.4145508l-2.828125-2.8286133  c-0.3779297-0.3774414-1.0380859-0.3774414-1.4140625,0L34.3720703,15.6445312z"/><path class="st0" d="M47.1004944,29.7866383l-5.6567993-5.6569004l2.8283997-2.8283997  c0.7809982-0.7810001,2.0473976-0.7810001,2.8283997,0l2.8283997,2.8283997c0.7811089,0.7810993,0.7811089,2.0473995,0,2.8284988  L47.1004944,29.7866383z"/><path class="st1" d="M47.1005859,30.7866211c-0.265625,0-0.5195312-0.1054688-0.7070312-0.2929688l-5.6572266-5.6567383  c-0.1875-0.1875-0.2929688-0.4418945-0.2929688-0.7070312s0.1054688-0.5195312,0.2929688-0.7070312l2.8291016-2.8286133  c1.1318359-1.1318359,3.1083984-1.1333008,4.2421875-0.0004883l2.828125,2.8291016  c0.5664062,0.5664062,0.8789062,1.3198242,0.8789062,2.1210938s-0.3125,1.5546875-0.8789062,2.121582l-2.828125,2.828125  C47.6201172,30.6811523,47.3662109,30.7866211,47.1005859,30.7866211z M42.8574219,24.1298828l4.2431641,4.2426758  l2.1210938-2.121582c0.1894531-0.1889648,0.2929688-0.4399414,0.2929688-0.7070312s-0.1035156-0.5180664-0.2929688-0.706543  l-2.828125-2.8291016c-0.3779297-0.3774414-1.0380859-0.3774414-1.4140625,0L42.8574219,24.1298828z"/><path class="st0" d="M55.5857925,38.2719383L49.928894,32.615036l2.8284988-2.8283978  c0.781002-0.7811012,2.0473022-0.7811012,2.8283997,0l2.8283997,2.8283978c0.7811012,0.7811012,0.7811012,2.0474014,0,2.8285027  L55.5857925,38.2719383z"/><path class="st1" d="M55.5859375,39.2719727c-0.265625,0-0.5195312-0.1054688-0.7070312-0.2929688l-5.6572266-5.6567383  c-0.1875-0.1875-0.2929688-0.4418945-0.2929688-0.7070312s0.1054688-0.5195312,0.2929688-0.7070312l2.8291016-2.8286133  c1.1298828-1.1323242,3.1083984-1.1342773,4.2421875,0l2.828125,2.8286133C59.6875,32.4746094,60,33.2280273,60,34.0292969  s-0.3125,1.5546875-0.8789062,2.121582l-2.828125,2.828125C56.1054688,39.1665039,55.8515625,39.2719727,55.5859375,39.2719727z   M51.3427734,32.6152344l4.2431641,4.2426758l2.1210938-2.121582C57.8964844,34.5473633,58,34.2963867,58,34.0292969  s-0.1035156-0.5180664-0.2929688-0.706543l-2.828125-2.8291016c-0.3798828-0.3789062-1.0371094-0.3764648-1.4130859-0.0004883  L51.3427734,32.6152344z"/></svg>