<?xml version="1.0" ?><!DOCTYPE svg  PUBLIC '-//W3C//DTD SVG 1.1//EN'  'http://www.w3.org/Graphics/SVG/1.1/DTD/svg11.dtd'><svg height="60px" id="Layer_1" style="enable-background:new 0 0 60 60;" version="1.1" viewBox="0 0 60 60" width="60px" xml:space="preserve" xmlns="http://www.w3.org/2000/svg" xmlns:xlink="http://www.w3.org/1999/xlink"><style type="text/css">
	.st0{fill:#C2E4F8;}
	.st1{fill:#0A94E3;}
	.st2{fill:#FFFFFF;}
	.st3{fill:#A6ACB2;stroke:#0A94E3;stroke-width:2;stroke-linecap:round;stroke-linejoin:round;stroke-miterlimit:10;}
	.st4{fill:#EFEAE1;}
	.st5{fill:none;stroke:#0A94E3;stroke-width:2;stroke-linecap:round;stroke-linejoin:round;stroke-miterlimit:10;}
	.st6{fill:#AA8566;}
	.st7{fill:#A6ACB2;}
	.st8{fill:#81D4EF;}
	.st9{fill:#76D03B;stroke:#0A94E3;stroke-width:2;stroke-linecap:round;stroke-linejoin:round;stroke-miterlimit:10;}
	.st10{fill-rule:evenodd;clip-rule:evenodd;fill:#FFFFFF;}
	.st11{fill-rule:evenodd;clip-rule:evenodd;fill:#C2E4F8;}
</style><path class="st1" d="M30,16.0297852c-0.5522461,0-1-0.4477539-1-1v-14c0-0.5522461,0.4477539-1,1-1s1,0.4477539,1,1v14  C31,15.5820312,30.5522461,16.0297852,30,16.0297852z"/><rect class="st0" height="6" width="6" x="30" y="3.03"/><path class="st1" d="M36,10.0297852h-6c-0.5522461,0-1-0.4477539-1-1v-6c0-0.5522461,0.4477539-1,1-1h6c0.5522461,0,1,0.4477539,1,1  v6C37,9.5820312,36.5522461,10.0297852,36,10.0297852z M31,8.0297852h4v-4h-4V8.0297852z"/><rect class="st2" height="38" width="58" x="1" y="21.0300007"/><path class="st1" d="M59,60.0297852H1c-0.5522461,0-1-0.4477539-1-1v-38c0-0.5522461,0.4477539-1,1-1h58  c0.5522461,0,1,0.4477539,1,1v38C60,59.5820312,59.5522461,60.0297852,59,60.0297852z M2,58.0297852h56v-36H2V58.0297852z"/><rect class="st2" height="6" width="42" x="9" y="15.0299997"/><path class="st1" d="M51,22.0297852H9c-0.5522461,0-1-0.4477539-1-1v-6c0-0.5522461,0.4477539-1,1-1h42c0.5522461,0,1,0.4477539,1,1  v6C52,21.5820312,51.5522461,22.0297852,51,22.0297852z M10,20.0297852h40v-4H10V20.0297852z"/><rect class="st0" height="6" width="58" x="1" y="21.0300007"/><path class="st1" d="M59,28.0297852H1c-0.5522461,0-1-0.4477539-1-1v-6c0-0.5522461,0.4477539-1,1-1h58c0.5522461,0,1,0.4477539,1,1  v6C60,27.5820312,59.5522461,28.0297852,59,28.0297852z M2,26.0297852h56v-4H2V26.0297852z"/><path class="st1" d="M9,28.0297852c-0.5522461,0-1-0.4477539-1-1v-6c0-0.5522461,0.4477539-1,1-1s1,0.4477539,1,1v6  C10,27.5820312,9.5522461,28.0297852,9,28.0297852z"/><path class="st1" d="M51,28.0297852c-0.5522461,0-1-0.4477539-1-1v-6c0-0.5522461,0.4477539-1,1-1s1,0.4477539,1,1v6  C52,27.5820312,51.5522461,28.0297852,51,28.0297852z"/><rect class="st0" height="6" width="6" x="36" y="5.0300002"/><path class="st1" d="M42,12.0297852h-6c-0.5522461,0-1-0.4477539-1-1v-6c0-0.5522461,0.4477539-1,1-1h6c0.5522461,0,1,0.4477539,1,1  v6C43,11.5820312,42.5522461,12.0297852,42,12.0297852z M37,10.0297852h4v-4h-4V10.0297852z"/><path class="st1" d="M43,28.0297852c-0.5522461,0-1-0.4477539-1-1v-6c0-0.5522461,0.4477539-1,1-1s1,0.4477539,1,1v6  C44,27.5820312,43.5522461,28.0297852,43,28.0297852z"/><path class="st1" d="M35,28.0297852c-0.5522461,0-1-0.4477539-1-1v-6c0-0.5522461,0.4477539-1,1-1s1,0.4477539,1,1v6  C36,27.5820312,35.5522461,28.0297852,35,28.0297852z"/><path class="st1" d="M25,28.0297852c-0.5522461,0-1-0.4477539-1-1v-6c0-0.5522461,0.4477539-1,1-1s1,0.4477539,1,1v6  C26,27.5820312,25.5522461,28.0297852,25,28.0297852z"/><path class="st1" d="M17,28.0297852c-0.5522461,0-1-0.4477539-1-1v-6c0-0.5522461,0.4477539-1,1-1s1,0.4477539,1,1v6  C18,27.5820312,17.5522461,28.0297852,17,28.0297852z"/><rect class="st0" height="4" width="6" x="1" y="55.0299988"/><path class="st1" d="M7,60.0297852H1c-0.5522461,0-1-0.4477539-1-1v-4c0-0.5522461,0.4477539-1,1-1h6c0.5522461,0,1,0.4477539,1,1v4  C8,59.5820312,7.5522461,60.0297852,7,60.0297852z M2,58.0297852h4v-2H2V58.0297852z"/><rect class="st0" height="4" width="6" x="53" y="55.0299988"/><path class="st1" d="M59,60.0297852h-6c-0.5522461,0-1-0.4477539-1-1v-4c0-0.5522461,0.4477539-1,1-1h6c0.5522461,0,1,0.4477539,1,1  v4C60,59.5820312,59.5522461,60.0297852,59,60.0297852z M54,58.0297852h4v-2h-4V58.0297852z"/><rect class="st0" height="4" width="4" x="43" y="55.0299988"/><path class="st1" d="M47,60.0297852h-4c-0.5522461,0-1-0.4477539-1-1v-4c0-0.5522461,0.4477539-1,1-1h4c0.5522461,0,1,0.4477539,1,1  v4C48,59.5820312,47.5522461,60.0297852,47,60.0297852z M44,58.0297852h2v-2h-2V58.0297852z"/><rect class="st0" height="4" width="4" x="33" y="55.0299988"/><path class="st1" d="M37,60.0297852h-4c-0.5522461,0-1-0.4477539-1-1v-4c0-0.5522461,0.4477539-1,1-1h4c0.5522461,0,1,0.4477539,1,1  v4C38,59.5820312,37.5522461,60.0297852,37,60.0297852z M34,58.0297852h2v-2h-2V58.0297852z"/><rect class="st0" height="4" width="4" x="23" y="55.0299988"/><path class="st1" d="M27,60.0297852h-4c-0.5522461,0-1-0.4477539-1-1v-4c0-0.5522461,0.4477539-1,1-1h4c0.5522461,0,1,0.4477539,1,1  v4C28,59.5820312,27.5522461,60.0297852,27,60.0297852z M24,58.0297852h2v-2h-2V58.0297852z"/><rect class="st0" height="4" width="4" x="13" y="55.0299988"/><path class="st1" d="M17,60.0297852h-4c-0.5522461,0-1-0.4477539-1-1v-4c0-0.5522461,0.4477539-1,1-1h4c0.5522461,0,1,0.4477539,1,1  v4C18,59.5820312,17.5522461,60.0297852,17,60.0297852z M14,58.0297852h2v-2h-2V58.0297852z"/><path class="st0" d="M7,59.0299988v-21c0-1.6568985,1.3430967-3,3-3l0,0c1.6568966,0,3,1.3431015,3,3v21H7z"/><path class="st1" d="M13,60.0297852H7c-0.5522461,0-1-0.4477539-1-1v-21c0-2.2055664,1.7944336-4,4-4s4,1.7944336,4,4v21  C14,59.5820312,13.5522461,60.0297852,13,60.0297852z M8,58.0297852h4v-20c0-1.1030273-0.8969727-2-2-2s-2,0.8969727-2,2V58.0297852  z"/><path class="st0" d="M47,59.0299988v-21c0-1.6568985,1.3430939-3,3-3l0,0c1.6568947,0,3,1.3431015,3,3v21H47z"/><path class="st1" d="M53,60.0297852h-6c-0.5522461,0-1-0.4477539-1-1v-21c0-2.2055664,1.7944336-4,4-4s4,1.7944336,4,4v21  C54,59.5820312,53.5522461,60.0297852,53,60.0297852z M48,58.0297852h4v-20c0-1.1030273-0.8969727-2-2-2s-2,0.8969727-2,2  V58.0297852z"/><path class="st0" d="M37,59.0299988v-21c0-1.6568985,1.3430977-3,3-3l0,0c1.6568947,0,3,1.3431015,3,3v21H37z"/><path class="st1" d="M43,60.0297852h-6c-0.5522461,0-1-0.4477539-1-1v-21c0-2.2055664,1.7944336-4,4-4s4,1.7944336,4,4v21  C44,59.5820312,43.5522461,60.0297852,43,60.0297852z M38,58.0297852h4v-20c0-1.1030273-0.8969727-2-2-2s-2,0.8969727-2,2  V58.0297852z"/><path class="st0" d="M27,59.0299988v-21c0-1.6568985,1.3430958-3,3-3l0,0c1.6568966,0,3,1.3431015,3,3v21H27z"/><path class="st1" d="M33,60.0297852h-6c-0.5522461,0-1-0.4477539-1-1v-21c0-2.2055664,1.7944336-4,4-4s4,1.7944336,4,4v21  C34,59.5820312,33.5522461,60.0297852,33,60.0297852z M28,58.0297852h4v-20c0-1.1030273-0.8969727-2-2-2s-2,0.8969727-2,2  V58.0297852z"/><path class="st0" d="M17,59.0299988v-21c0-1.6568985,1.3430958-3,3-3l0,0c1.6568966,0,3,1.3431015,3,3v21H17z"/><path class="st1" d="M23,60.0297852h-6c-0.5522461,0-1-0.4477539-1-1v-21c0-2.2055664,1.7944336-4,4-4s4,1.7944336,4,4v21  C24,59.5820312,23.5522461,60.0297852,23,60.0297852z M18,58.0297852h4v-20c0-1.1030273-0.8969727-2-2-2s-2,0.8969727-2,2  V58.0297852z"/><path class="st1" d="M59,60.0297852H1c-0.5522461,0-1-0.4477539-1-1s0.4477539-1,1-1h58c0.5522461,0,1,0.4477539,1,1  S59.5522461,60.0297852,59,60.0297852z"/></svg>