<?xml version="1.0" ?><!DOCTYPE svg  PUBLIC '-//W3C//DTD SVG 1.1//EN'  'http://www.w3.org/Graphics/SVG/1.1/DTD/svg11.dtd'><svg height="60px" id="Layer_1" style="enable-background:new 0 0 60 60;" version="1.1" viewBox="0 0 60 60" width="60px" xml:space="preserve" xmlns="http://www.w3.org/2000/svg" xmlns:xlink="http://www.w3.org/1999/xlink"><style type="text/css">
	.st0{fill:#C2E4F8;}
	.st1{fill:#0A94E3;}
	.st2{fill:#FFFFFF;}
	.st3{fill:#A6ACB2;}
	.st4{fill:#ABCFD3;}
	.st5{fill:#76D03B;}
	.st6{fill:#F1C40E;}
	.st7{fill:#EFEAE1;}
	.st8{fill:#81D4EF;}
	.st9{fill:#AA8566;}
	.st10{fill:#F1B565;}
	.st11{fill:#E45544;}
</style><path class="st2" d="M4.9999766,55.000061c0,0,12.0832939-1.5832977,15.9312935-4.0937996  c2.1167984-1.3810005,3.9437065-2.9687004,3.9097061-5.1893005c-0.0147076-0.9589996-0.6029072-2.4027977-1.5091076-2.7168999  c-1.081892-0.375-4.390892-0.8755989-4.331892-4c0.0624924-3.3125,2.9374924-4.5625,4.375-4.375  c2.4351921,0.3176003,3.0624924-4.7499981-1.3109074-5.1985989c-3.0016003,1.5736008-6.1265993,0.1986008-7.1890936-1.6763992  c-1.125,1-3.1618061,1.0130005-3.8125057,1c-3.125-0.0625-7.875-2.9375-8.0053005-9.75  c-0.1243999-6.4988003,5.6094995-13.3333006,15.6998997-10.9066c2.7486-3.1168003,6.7605-5.0934005,11.2429066-5.0934005  c4.4823914,0,8.4942932,1.9766002,11.2428932,5.0934005c9.9237976-2.7601004,15.434597,3.2300997,15.7001076,9.6566  c0.22369,5.4167004-2.9430008,9.9167004-8.0055084,8.6875c-1.6874924,4.6875-8.125,5.125-10.8986015,3.0478001  c-3.2263985,0.2646999-4.1013985,4.577198-1.3513985,5.202198c1.2725983,0.2891998,4.3125076,1.3125,4.3125076,4.3125  c0,2.6875-2.1875076,3.625-4.3196068,4c-0.9518013,0.1674004-1.6351013,1.4438019-1.5063019,2.7347031  c0.263401,2.6402969,1.8437004,3.7129974,3.8945999,5.1714973c3.7646027,2.6771011,15.9313087,4.0937996,15.9313087,4.0937996"/><path class="st0" d="M35.4508667,47H24.6241455c-0.5268555,1.5736084-2.0098267,2.8082275-3.6928711,3.90625  C17.083252,53.416748,5,55.000061,5,55.000061h50c0,0-12.166748-1.416687-15.9313354-4.093811  C37.3851318,49.7089844,36.0321045,48.7578735,35.4508667,47z"/><path class="st1" d="M4.9985352,56c-0.4941406,0-0.9238281-0.3662109-0.9902344-0.8701172  c-0.0717773-0.5478516,0.3139648-1.0498047,0.8618164-1.1210938c0.1186523-0.015625,11.9013672-1.5820312,15.5146484-3.9404297  c2.4448242-1.5947266,3.4785156-2.8916016,3.4560547-4.3359375c-0.0112305-0.7470703-0.4960938-1.6699219-0.8364258-1.7880859  c-0.1210938-0.0419922-0.2739258-0.0849609-0.4482422-0.1347656C21.1728516,43.4121094,17.934082,42.4824219,18,38.9814453  c0.0400391-2.1064453,1.0263672-3.3916016,1.8466797-4.0976562c1.0576172-0.9111328,2.4907227-1.4023438,3.6577148-1.25  c0.1420898,0.0126953,0.3325195,0.0097656,0.515625-0.234375c0.2597656-0.3457031,0.3764648-1.0292969,0.097168-1.6679688  c-0.2978516-0.6816406-0.9458008-1.1181641-1.8823242-1.2734375c-2.8857422,1.3496094-5.9760742,0.4599609-7.6083984-1.3564453  c-1.1352539,0.5566406-2.5117188,0.6601562-3.5834961,0.6484375c-3.6474609-0.0732422-8.8461914-3.4501953-8.9858398-10.7304688  c-0.0717773-3.7441406,1.6157227-7.3691406,4.5141602-9.6982422C9.6464844,6.8505859,13.8320312,6.03125,18.4106445,6.9912109  C21.4316406,3.8115234,25.621582,2,30,2c4.3706055,0,8.5527344,1.8046875,11.5712891,4.9726562  c5.7719727-1.4335938,9.5249023,0.0888672,11.6796875,1.6572266c2.8276367,2.0576172,4.5375977,5.3671875,4.690918,9.0791016  c0.1459961,3.5302734-1.0478516,6.6894531-3.1928711,8.4482422c-1.4677734,1.2041016-3.2539062,1.6865234-5.2119141,1.4121094  c-0.8945312,1.7705078-2.5009766,3.0693359-4.6040039,3.6992188c-2.4760742,0.7441406-5.2817383,0.4404297-7.1391602-0.7382812  c-1.0722656,0.2294922-1.6850586,1.1171875-1.7441406,1.9492188c-0.0332031,0.4658203,0.0893555,1.0576172,0.859375,1.2324219  C40.0966797,34.4365234,42,36.4130859,42,39c0,1.8613281-0.8930664,4.2363281-5.1464844,4.9853516  c-0.3286133,0.0576172-0.7700195,0.7919922-0.6845703,1.6503906c0.2133789,2.1357422,1.3974609,2.9765625,3.3588867,4.3701172  l0.1206055,0.0849609c2.9150391,2.0732422,12.1533203,3.5292969,15.4672852,3.9160156  c0.5483398,0.0634766,0.9414062,0.5605469,0.8774414,1.109375c-0.0634766,0.5488281-0.5615234,0.9443359-1.1088867,0.8769531  c-0.5073242-0.0585938-12.4663086-1.4785156-16.3950195-4.2714844l-0.1196289-0.0859375  c-2.0859375-1.4814453-3.887207-2.7607422-4.190918-5.8017578c-0.184082-1.8486328,0.8608398-3.5615234,2.3286133-3.8193359  C39.6030273,41.4707031,40,40.1181641,40,39c0-2.2871094-2.4716797-3.0957031-3.5341797-3.3369141  c-1.5825195-0.3603516-2.5288086-1.6650391-2.4111328-3.3251953c0.125-1.7636719,1.5058594-3.6523438,3.902832-3.8496094  c0.2407227-0.0146484,0.4853516,0.0498047,0.6811523,0.1962891c1.3164062,0.9863281,3.7211914,1.2666016,5.7202148,0.6689453  c1.2612305-0.3779297,2.9160156-1.25,3.6376953-3.2548828c0.1728516-0.4804688,0.6816406-0.7558594,1.1767578-0.6328125  c1.6728516,0.4072266,3.121582,0.1181641,4.3071289-0.8544922c1.6625977-1.3632812,2.5834961-3.9130859,2.4633789-6.8203125  c-0.1279297-3.0976562-1.5385742-5.8476562-3.8696289-7.5439453c-2.6850586-1.953125-6.3378906-2.3671875-10.5634766-1.1894531  c-0.3691406,0.1015625-0.7651367-0.0146484-1.0180664-0.3027344C37.828125,5.7333984,34.003418,4,30,4  s-7.828125,1.7333984-10.4931641,4.7548828c-0.2451172,0.2783203-0.625,0.3964844-0.9838867,0.3115234  c-5.3725586-1.2910156-8.7827148,0.2734375-10.6987305,1.8134766c-2.4189453,1.9443359-3.8271484,4.9726562-3.7670898,8.1005859  C4.1708984,24.9345703,8.2338867,27.6933594,11.0825195,27.75c1.4116211,0.0429688,2.5620117-0.2441406,3.1279297-0.7470703  c0.2255859-0.2011719,0.5273438-0.2880859,0.828125-0.2392578c0.2978516,0.0488281,0.5576172,0.2304688,0.706543,0.4931641  c0.7768555,1.3720703,3.309082,2.6171875,5.8544922,1.2841797c0.1743164-0.0908203,0.3710938-0.1240234,0.5664062-0.109375  c1.7905273,0.1835938,3.1694336,1.0947266,3.7836914,2.4980469c0.5424805,1.2402344,0.4125977,2.6806641-0.3300781,3.6708984  c-0.5766602,0.7666016-1.4399414,1.1386719-2.3740234,1.015625c-0.4091797-0.0507812-1.3125,0.1103516-2.09375,0.7822266  C20.640625,36.8388672,20.0253906,37.6513672,20,39.0185547c-0.034668,1.8154297,1.4506836,2.3925781,3.1083984,2.8691406  c0.2138672,0.0615234,0.4018555,0.1152344,0.5512695,0.1669922c1.4575195,0.5058594,2.1630859,2.4755859,2.1811523,3.6464844  c0.0429688,2.7880859-2.1816406,4.6191406-4.3632812,6.0429688c-3.9921875,2.6044922-15.8452148,4.1816406-16.3476562,4.2470703  C5.0859375,55.9970703,5.0419922,56,4.9985352,56z"/><g><path class="st6" d="M18.7570705,8.0934629c0,0-1.7570934,1.9066-2.2570934,3.7816"/><path class="st1" d="M16.5004883,12.875c-0.0849609,0-0.171875-0.0107422-0.2583008-0.0341797   c-0.5336914-0.1416016-0.8505859-0.6894531-0.7084961-1.2236328c0.5571289-2.0888672,2.4091797-4.1162109,2.487793-4.2011719   c0.3754883-0.4052734,1.0068359-0.4306641,1.4121094-0.0576172c0.40625,0.3730469,0.4326172,1.0058594,0.059082,1.4121094   c-0.015625,0.0175781-1.5976562,1.7539062-2.0263672,3.3623047C17.347168,12.5800781,16.9423828,12.875,16.5004883,12.875z"/></g><g><path class="st6" d="M41.2201691,8.0934629c0,0,1.8214989,2.2398996,1.779808,4.5732994"/><path class="st1" d="M43.0004883,13.6669922c-0.0063477,0-0.012207,0-0.0180664,0   C42.4301758,13.6572266,41.9902344,13.2011719,42,12.6494141c0.034668-1.9306641-1.5410156-3.90625-1.5566406-3.9257812   c-0.3461914-0.4296875-0.2802734-1.0585938,0.1479492-1.40625c0.4291992-0.3476562,1.0556641-0.2832031,1.4047852,0.1455078   C42.0795898,7.5654297,44.0473633,10.0166016,44,12.6845703C43.9902344,13.2304688,43.5444336,13.6669922,43.0004883,13.6669922z"/></g><g><path class="st6" d="M48.5451698,27.3215618c0.7048073-1.4047985,1.4964981-4.6547985-0.5868988-6.9464989"/><path class="st1" d="M48.5444336,28.3212891c-0.1503906,0-0.3037109-0.0341797-0.4472656-0.1064453   c-0.4936523-0.2470703-0.6933594-0.8486328-0.4458008-1.3417969c0.5981445-1.1923828,1.2773438-3.9433594-0.4331055-5.8251953   c-0.3710938-0.4091797-0.3408203-1.0410156,0.0678711-1.4130859c0.4086914-0.3710938,1.0400391-0.3398438,1.4125977,0.0673828   c2.4399414,2.6855469,1.5512695,6.4511719,0.7407227,8.0673828C49.2636719,28.1191406,48.9111328,28.3212891,48.5444336,28.3212891   z"/></g><g><path class="st6" d="M36.7047691,29.869463c0.8119011-0.3444996,2.2118988-1.9111004,1.545208-3.9526997"/><path class="st1" d="M36.7050781,30.8691406c-0.3896484,0-0.7597656-0.2285156-0.9213867-0.6103516   c-0.215332-0.5087891,0.0224609-1.0957031,0.53125-1.3105469c0.3481445-0.1474609,1.4799805-1.203125,0.984375-2.7207031   c-0.1713867-0.5253906,0.1152344-1.0898438,0.6401367-1.2607422c0.5273438-0.1738281,1.090332,0.1152344,1.2612305,0.6396484   c0.8701172,2.6650391-0.9423828,4.6914062-2.1064453,5.1835938C36.9672852,30.84375,36.8349609,30.8691406,36.7050781,30.8691406z"/></g><g><path class="st6" d="M15.0498705,27.9624634c-0.6748943-0.9624004-1.5082006-2.8791008-0.5498943-4.9624004"/><path class="st1" d="M15.0507812,28.9628906c-0.3154297,0-0.6254883-0.1484375-0.8198242-0.4257812   c-0.4785156-0.6835938-1.9389648-3.1308594-0.6391602-5.9550781c0.230957-0.5019531,0.824707-0.7226562,1.3261719-0.4902344   c0.5019531,0.2304688,0.7211914,0.8242188,0.4902344,1.3261719c-0.8540039,1.8564453,0.1367188,3.5087891,0.4604492,3.9707031   c0.3168945,0.4521484,0.2075195,1.0761719-0.2451172,1.3935547C15.4492188,28.9042969,15.2490234,28.9628906,15.0507812,28.9628906   z"/></g><g><path class="st6" d="M22.0640697,29.4264622c0.8941994-0.5096989,3.7276001-2.0513992,3.1026001-4.9680996"/><path class="st1" d="M22.1005859,30.3984375c-0.3515625,0-0.6953125-0.1738281-0.8774414-0.4931641   c-0.2729492-0.4794922-0.1337891-1.0742188,0.3457031-1.3476562c0.0004883,0,0.0576172-0.0322266,0.0581055-0.0322266   c1.40625-0.7998047,2.9682617-1.9599609,2.5615234-3.8574219c-0.1157227-0.5400391,0.2285156-1.0722656,0.7685547-1.1875   c0.5449219-0.1181641,1.0717773,0.2285156,1.1875,0.7675781c0.5078125,2.3720703-0.6796875,4.3964844-3.5292969,6.015625   C22.4545898,30.3544922,22.2768555,30.3984375,22.1005859,30.3984375z"/></g><g><path class="st6" d="M23.8124695,34.6626625c1.3125076,0.125,2.3125076,0.2373009,2.9375076,0.1748009"/><path class="st1" d="M26.3354492,35.8554688c-0.5761719,0-1.2875977-0.0683594-2.1889648-0.1552734l-0.4287109-0.0419922   c-0.5498047-0.0517578-0.953125-0.5400391-0.9008789-1.0898438s0.5336914-0.9726562,1.090332-0.9003906l0.4321289,0.0410156   c0.9960938,0.0966797,1.8554688,0.1777344,2.3110352,0.1337891c0.5527344-0.0419922,1.0400391,0.3466797,1.0947266,0.8955078   c0.0546875,0.5498047-0.3461914,1.0400391-0.8955078,1.0947266C26.690918,35.8486328,26.5200195,35.8554688,26.3354492,35.8554688z   "/></g><g><path class="st6" d="M32.4999771,35.125061c1.25,0.0625,2.5624924-0.6124001,3.875-0.4874001"/><path class="st1" d="M32.6689453,36.1289062c-0.0727539,0-0.1455078-0.0019531-0.21875-0.0048828   c-0.5517578-0.0283203-0.9765625-0.4970703-0.9487305-1.0488281c0.0273438-0.5517578,0.515625-0.9746094,1.0483398-0.9492188   c0.4599609,0.0195312,0.9868164-0.0966797,1.5473633-0.2216797c0.7138672-0.1611328,1.519043-0.3427734,2.3725586-0.2617188   c0.5498047,0.0517578,0.953125,0.5400391,0.9008789,1.0898438c-0.0527344,0.5498047-0.5405273,0.9628906-1.090332,0.9003906   c-0.5332031-0.046875-1.1206055,0.0830078-1.7446289,0.2226562C33.9360352,35.9902344,33.3183594,36.1289062,32.6689453,36.1289062   z"/></g><g><path class="st6" d="M23.3318691,43.000061c1.0625,0.1875,2.1056004,0.4375,3.168108,0.4375"/><path class="st1" d="M26.5,44.4375c-0.9365234,0-1.8310547-0.1699219-2.6967773-0.3330078l-0.6450195-0.1201172   c-0.5439453-0.0957031-0.9067383-0.6142578-0.8110352-1.1582031c0.0961914-0.5439453,0.6176758-0.9072266,1.1586914-0.8105469   l0.6694336,0.1230469C24.9858398,42.2929688,25.7509766,42.4375,26.5,42.4375c0.5522461,0,1,0.4472656,1,1   S27.0522461,44.4375,26.5,44.4375z"/></g><g><path class="st6" d="M33.2499771,43.312561c1.1874924,0,1.75-0.0625,3.4303932-0.3125"/><path class="st1" d="M33.25,44.3125c-0.5522461,0-1-0.4472656-1-1s0.4477539-1,1-1   c1.1328125,0,1.6660156-0.0615234,3.2832031-0.3017578c0.5371094-0.0771484,1.0541992,0.2949219,1.1362305,0.8417969   c0.0810547,0.546875-0.2958984,1.0556641-0.8422852,1.1367188C35.0908203,44.2470703,34.4887695,44.3125,33.25,44.3125z"/></g><path class="st1" d="M54,55c0-0.5498047,0.449707-1,1-1l0,0c0.5498047,0,1,0.4501953,1,1l0,0c0,0.5498047-0.4501953,1-1,1l0,0  C54.449707,56,54,55.5498047,54,55z M50.6699219,55c0-0.5498047,0.4399414-1,1-1l0,0c0.5498047,0,1,0.4501953,1,1l0,0  c0,0.5498047-0.4501953,1-1,1l0,0C51.1098633,56,50.6699219,55.5498047,50.6699219,55z M47.3295898,55c0-0.5498047,0.4501953-1,1-1  l0,0c0.550293,0,1,0.4501953,1,1l0,0c0,0.5498047-0.449707,1-1,1l0,0C47.7797852,56,47.3295898,55.5498047,47.3295898,55z M44,55  c0-0.5498047,0.449707-1,1-1l0,0c0.5498047,0,1,0.4501953,1,1l0,0c0,0.5498047-0.4501953,1-1,1l0,0  C44.449707,56,44,55.5498047,44,55z M40.6699219,55c0-0.5498047,0.4399414-1,1-1l0,0c0.5498047,0,1,0.4501953,1,1l0,0  c0,0.5498047-0.4501953,1-1,1l0,0C41.1098633,56,40.6699219,55.5498047,40.6699219,55z M37.3295898,55c0-0.5498047,0.4501953-1,1-1  l0,0c0.550293,0,1,0.4501953,1,1l0,0c0,0.5498047-0.449707,1-1,1l0,0C37.7797852,56,37.3295898,55.5498047,37.3295898,55z M34,55  c0-0.5498047,0.449707-1,1-1l0,0c0.5498047,0,1,0.4501953,1,1l0,0c0,0.5498047-0.4501953,1-1,1l0,0  C34.449707,56,34,55.5498047,34,55z M30.6699219,55c0-0.5498047,0.4399414-1,1-1l0,0c0.5498047,0,1,0.4501953,1,1l0,0  c0,0.5498047-0.4501953,1-1,1l0,0C31.1098633,56,30.6699219,55.5498047,30.6699219,55z M27.3295898,55c0-0.5498047,0.4501953-1,1-1  l0,0c0.550293,0,1,0.4501953,1,1l0,0c0,0.5498047-0.449707,1-1,1l0,0C27.7797852,56,27.3295898,55.5498047,27.3295898,55z M24,55  c0-0.5498047,0.449707-1,1-1l0,0c0.5498047,0,1,0.4501953,1,1l0,0c0,0.5498047-0.4501953,1-1,1l0,0  C24.449707,56,24,55.5498047,24,55z M20.6699219,55c0-0.5498047,0.4399414-1,1-1l0,0c0.5498047,0,1,0.4501953,1,1l0,0  c0,0.5498047-0.4501953,1-1,1l0,0C21.1098633,56,20.6699219,55.5498047,20.6699219,55z M17.3295898,55c0-0.5498047,0.4501953-1,1-1  l0,0c0.550293,0,1,0.4501953,1,1l0,0c0,0.5498047-0.449707,1-1,1l0,0C17.7797852,56,17.3295898,55.5498047,17.3295898,55z M14,55  c0-0.5498047,0.449707-1,1-1l0,0c0.5498047,0,1,0.4501953,1,1l0,0c0,0.5498047-0.4501953,1-1,1l0,0  C14.449707,56,14,55.5498047,14,55z M10.6699219,55c0-0.5498047,0.4399414-1,1-1l0,0c0.5498047,0,1,0.4501953,1,1l0,0  c0,0.5498047-0.4501953,1-1,1l0,0C11.1098633,56,10.6699219,55.5498047,10.6699219,55z M7.3295898,55c0-0.5498047,0.4501953-1,1-1  l0,0c0.550293,0,1,0.4501953,1,1l0,0c0,0.5498047-0.449707,1-1,1l0,0C7.7797852,56,7.3295898,55.5498047,7.3295898,55z M4,55  c0-0.5498047,0.449707-1,1-1l0,0c0.5498047,0,1,0.4501953,1,1l0,0c0,0.5498047-0.4501953,1-1,1l0,0C4.449707,56,4,55.5498047,4,55z"/><path class="st1" d="M38,51c0-0.5498047,0.449707-1,1-1l0,0c0.5498047,0,1,0.4501953,1,1l0,0c0,0.5498047-0.4501953,1-1,1l0,0  C38.449707,52,38,51.5498047,38,51z M34.6699219,51c0-0.5498047,0.4399414-1,1-1l0,0c0.5498047,0,1,0.4501953,1,1l0,0  c0,0.5498047-0.4501953,1-1,1l0,0C35.1098633,52,34.6699219,51.5498047,34.6699219,51z M31.3295898,51c0-0.5498047,0.4501953-1,1-1  l0,0c0.5600586,0,1,0.4501953,1,1l0,0c0,0.5498047-0.4399414,1-1,1l0,0C31.7797852,52,31.3295898,51.5498047,31.3295898,51z M28,51  c0-0.5498047,0.449707-1,1-1l0,0c0.5498047,0,1,0.4501953,1,1l0,0c0,0.5498047-0.4501953,1-1,1l0,0  C28.449707,52,28,51.5498047,28,51z M24.6699219,51c0-0.5498047,0.4399414-1,1-1l0,0c0.5498047,0,1,0.4501953,1,1l0,0  c0,0.5498047-0.4501953,1-1,1l0,0C25.1098633,52,24.6699219,51.5498047,24.6699219,51z M21.3295898,51c0-0.5498047,0.4501953-1,1-1  l0,0c0.5600586,0,1,0.4501953,1,1l0,0c0,0.5498047-0.4399414,1-1,1l0,0C21.7797852,52,21.3295898,51.5498047,21.3295898,51z"/><path class="st1" d="M34,47c0-0.5498047,0.449707-1,1-1l0,0c0.5498047,0,1,0.4501953,1,1l0,0c0,0.5498047-0.4501953,1-1,1l0,0  C34.449707,48,34,47.5498047,34,47z M30.6699219,47c0-0.5498047,0.4399414-1,1-1l0,0c0.5498047,0,1,0.4501953,1,1l0,0  c0,0.5498047-0.4501953,1-1,1l0,0C31.1098633,48,30.6699219,47.5498047,30.6699219,47z M27.3295898,47c0-0.5498047,0.4501953-1,1-1  l0,0c0.5600586,0,1,0.4501953,1,1l0,0c0,0.5498047-0.4399414,1-1,1l0,0C27.7797852,48,27.3295898,47.5498047,27.3295898,47z M24,47  c0-0.5498047,0.449707-1,1-1l0,0c0.5498047,0,1,0.4501953,1,1l0,0c0,0.5498047-0.4501953,1-1,1l0,0  C24.449707,48,24,47.5498047,24,47z"/></svg>