<?xml version="1.0" ?><svg enable-background="new 0 0 64 64" version="1.1" viewBox="0 0 64 64" xml:space="preserve" xmlns="http://www.w3.org/2000/svg" xmlns:xlink="http://www.w3.org/1999/xlink"><g id="Layer_11"><g><circle cx="32" cy="32" fill="#0BA4E0" r="32"/></g><g><path d="M24.457,41.282c0-0.518,0.036-1.087,0.108-1.707s0.187-1.262,0.343-1.924h3.65v1.571    c0,0.964,0.081,1.771,0.243,2.421c0.163,0.65,0.383,1.174,0.659,1.572c0.277,0.396,0.608,0.68,0.994,0.849    s0.807,0.253,1.265,0.253c0.445,0,0.849-0.063,1.21-0.189c0.361-0.127,0.669-0.334,0.922-0.623s0.445-0.66,0.578-1.111    c0.133-0.452,0.199-1.003,0.199-1.653v-3.415c0-0.65-0.058-1.229-0.172-1.734c-0.115-0.506-0.299-0.93-0.551-1.273    c-0.254-0.343-0.585-0.605-0.994-0.785c-0.409-0.182-0.915-0.271-1.518-0.271h-1.969v-3.342h1.969c0.386,0,0.747-0.063,1.084-0.19    c0.337-0.126,0.633-0.331,0.885-0.614c0.254-0.282,0.452-0.647,0.597-1.093s0.217-0.987,0.217-1.626v-3.234    c0-1.144-0.223-1.983-0.669-2.52c-0.445-0.536-1.107-0.805-1.986-0.805c-0.977,0-1.726,0.438-2.25,1.311    c-0.523,0.873-0.785,2.129-0.785,3.767v1.753h-3.613c-0.133-0.603-0.247-1.202-0.344-1.798c-0.097-0.597-0.145-1.226-0.145-1.888    c0-0.783,0.145-1.563,0.434-2.34c0.289-0.777,0.726-1.479,1.31-2.105c0.584-0.626,1.325-1.132,2.223-1.518    c0.896-0.385,1.954-0.578,3.171-0.578c1.312,0,2.438,0.151,3.378,0.452s1.707,0.744,2.304,1.328    c0.596,0.584,1.035,1.301,1.318,2.149c0.283,0.85,0.425,1.816,0.425,2.9v1.896c0,0.879-0.111,1.659-0.334,2.34    c-0.224,0.681-0.513,1.273-0.867,1.779c-0.355,0.506-0.759,0.937-1.211,1.292c-0.451,0.355-0.912,0.642-1.382,0.858v0.145    c0.603,0.204,1.162,0.473,1.68,0.804c0.519,0.331,0.967,0.756,1.347,1.273c0.379,0.518,0.677,1.145,0.894,1.879    s0.326,1.608,0.326,2.62v2.041c0,1.421-0.205,2.619-0.615,3.596c-0.409,0.975-0.963,1.761-1.662,2.357    c-0.698,0.596-1.515,1.026-2.447,1.291c-0.934,0.266-1.918,0.398-2.954,0.398c-2.36,0-4.161-0.572-5.401-1.717    C25.077,44.979,24.457,43.366,24.457,41.282z" fill="#FFFFFF"/></g></g></svg>