<?xml version="1.0" ?><svg enable-background="new 0 0 64 64" version="1.1" viewBox="0 0 64 64" xml:space="preserve" xmlns="http://www.w3.org/2000/svg" xmlns:xlink="http://www.w3.org/1999/xlink"><g id="Layer_11"><g><circle cx="32" cy="32" fill="#0BA4E0" r="32"/></g><g><path d="M24.882,44.823l6.812-13.116c0.626-1.192,1.135-2.234,1.526-3.126c0.391-0.891,0.698-1.671,0.921-2.339    c0.223-0.669,0.377-1.25,0.461-1.743c0.084-0.494,0.127-0.939,0.127-1.338c0-0.626-0.058-1.152-0.172-1.58    c-0.115-0.428-0.283-0.771-0.506-1.03c-0.224-0.259-0.5-0.442-0.831-0.551c-0.332-0.108-0.714-0.163-1.147-0.163    c-1.06,0-1.828,0.438-2.304,1.311s-0.714,2.129-0.714,3.767v1.753h-3.613c-0.132-0.675-0.246-1.292-0.343-1.853    c-0.097-0.56-0.145-1.171-0.145-1.833c0-0.783,0.136-1.563,0.406-2.34c0.271-0.777,0.696-1.479,1.274-2.105    c0.578-0.626,1.315-1.132,2.213-1.518c0.896-0.385,1.972-0.578,3.225-0.578c1.349,0,2.502,0.157,3.46,0.471    c0.957,0.312,1.743,0.771,2.357,1.373c0.614,0.602,1.062,1.336,1.346,2.203s0.425,1.85,0.425,2.945    c0,0.626-0.058,1.244-0.172,1.852c-0.114,0.608-0.304,1.259-0.568,1.951c-0.266,0.693-0.608,1.448-1.03,2.268    s-0.939,1.759-1.554,2.818l-6.088,11.562h9.015v3.686H24.882V44.823z" fill="#FFFFFF"/></g></g></svg>