<?xml version="1.0" encoding="UTF-8"?>
<svg width="25px" height="25px" viewBox="0 0 25 25" version="1.1" xmlns="http://www.w3.org/2000/svg" xmlns:xlink="http://www.w3.org/1999/xlink">
    <!-- Generator: Sketch 53.2 (72643) - https://sketchapp.com -->
    <title>github</title>
    <desc>Created with Sketch.</desc>
    <g id="Symbols" stroke="none" stroke-width="1" fill="none" fill-rule="evenodd">
        <g id="footer" transform="translate(-994.000000, -184.000000)" fill="#000000" fill-rule="nonzero">
            <g id="social">
                <g transform="translate(882.000000, 183.000000)">
                    <g id="github" transform="translate(112.000000, 1.000000)">
                        <path d="M12.5,0 C5.625,0 0,5.625 0,12.5 C0,18 3.5625,22.6875 8.5625,24.375 C9.1875,24.5 9.375,24.0625 9.375,23.75 C9.375,23.4375 9.375,22.5 9.375,21.4375 C5.9375,22.1875 5.1875,19.9375 5.1875,19.9375 C4.625,18.5 3.8125,18.125 3.8125,18.125 C2.625,17.375 3.875,17.375 3.875,17.375 C5.125,17.4375 5.8125,18.6875 5.8125,18.6875 C6.875,20.5625 8.6875,20 9.4375,19.6875 C9.5625,18.875 9.875,18.3125 10.25,18 C7.4375,17.6875 4.5,16.625 4.5,11.875 C4.5,10.5 5,9.375 5.8125,8.5 C5.6875,8.1875 5.25,6.875 5.9375,5.1875 C5.9375,5.1875 7,4.875 9.375,6.4375 C10.375,6.1875 11.4375,6.0625 12.5,6.0625 C13.5625,6.0625 14.625,6.1875 15.625,6.5 C18,4.875 19.0625,5.1875 19.0625,5.1875 C19.75,6.9375 19.3125,8.1875 19.1875,8.5 C20,9.375 20.5,10.5 20.5,11.875 C20.5,16.625 17.5625,17.6875 14.75,18 C15.1875,18.375 15.625,19.1875 15.625,20.3125 C15.625,22 15.625,23.375 15.625,23.75 C15.625,24.125 15.8125,24.5 16.4375,24.375 C21.4375,22.6875 25,18 25,12.5 C25,5.625 19.375,4.4408921e-15 12.5,0 Z" id="Path"></path>
                    </g>
                </g>
            </g>
        </g>
    </g>
</svg>