<?xml version="1.0" encoding="UTF-8"?>
<svg width="25px" height="25px" viewBox="0 0 25 25" version="1.1" xmlns="http://www.w3.org/2000/svg" xmlns:xlink="http://www.w3.org/1999/xlink">
    <!-- Generator: Sketch 53.2 (72643) - https://sketchapp.com -->
    <title>medium</title>
    <desc>Created with Sketch.</desc>
    <g id="Symbols" stroke="none" stroke-width="1" fill="none" fill-rule="evenodd">
        <g id="footer" transform="translate(-1056.000000, -184.000000)" fill="#000000" fill-rule="nonzero">
            <g id="social">
                <g transform="translate(882.000000, 183.000000)">
                    <g id="medium" transform="translate(174.000000, 1.000000)">
                        <path d="M12.5,25 C5.59644065,25 0,19.4035594 0,12.5 C0,5.59644065 5.59644065,0 12.5,0 C19.4035594,0 25,5.59644065 25,12.5 C25,19.4035594 19.4035594,25 12.5,25 Z M7.51357705,9.56717615 L7.51357705,15.2087204 C7.5482938,15.4122319 7.4841399,15.6201202 7.3407671,15.7687047 L6,17.3950422 L6,17.6095042 L9.80181955,17.6095042 L9.80181955,17.3950422 L8.46105245,15.7687047 C8.3166281,15.6203662 8.2485017,15.4138478 8.27632455,15.2087204 L8.27632455,10.329708 L11.6133449,17.6095042 L12.0006776,17.6095042 L14.8669396,10.329708 L14.8669396,16.1320988 C14.8669396,16.2869881 14.8669396,16.3167744 14.7656373,16.4180482 L13.7347363,17.4188713 L13.7347363,17.6333333 L18.7402667,17.6333333 L18.7402667,17.4188713 L17.7451196,16.4418774 C17.6572721,16.3749148 17.6136953,16.2648573 17.6318993,16.1559279 L17.6318993,8.97740545 C17.6136953,8.8684761 17.6572721,8.7584185 17.7451196,8.691456 L18.7641027,7.7144621 L18.7641027,7.5 L15.2363955,7.5 L12.7217123,13.7730159 L9.8614092,7.5 L6.16089205,7.5 L6.16089205,7.7144621 L7.352685,9.15016655 C7.4696841,9.2556225 7.5294355,9.4104897 7.51357705,9.56717615 Z" id="Shape"></path>
                    </g>
                </g>
            </g>
        </g>
    </g>
</svg>