<?xml version="1.0" encoding="UTF-8"?>
<svg width="28px" height="28px" viewBox="0 0 28 28" version="1.1" xmlns="http://www.w3.org/2000/svg" xmlns:xlink="http://www.w3.org/1999/xlink">
    <!-- Generator: Sketch 53.2 (72643) - https://sketchapp.com -->
    <title>telegram-black</title>
    <desc>Created with Sketch.</desc>
    <g id="Symbols" stroke="none" stroke-width="1" fill="none" fill-rule="evenodd">
        <g id="footer" transform="translate(-1115.000000, -183.000000)">
            <g id="social">
                <g transform="translate(882.000000, 183.000000)">
                    <g id="telegram-black" transform="translate(233.000000, 0.000000)">
                        <rect id="Rectangle" x="0" y="0" width="28" height="28"></rect>
                        <path d="M26.1223529,8.88752941 C26.8075294,10.5214118 27.1764706,12.208 27.1764706,14 C27.1764706,15.792 26.8075294,17.4785882 26.1223529,19.1124706 C25.4371765,20.7463529 24.4884706,22.1167059 23.3289412,23.3289412 C22.1694118,24.4884706 20.7463529,25.4371765 19.1124706,26.1223529 C17.4785882,26.8075294 15.792,27.1764706 14,27.1764706 C12.208,27.1764706 10.5214118,26.8075294 8.88752941,26.1223529 C7.25364706,25.4371765 5.88329412,24.4884706 4.67105882,23.3289412 C3.51152941,22.1694118 2.56282353,20.7463529 1.87764706,19.1124706 C1.19247059,17.4785882 0.823529412,15.792 0.823529412,14 C0.823529412,12.208 1.19247059,10.5214118 1.87764706,8.88752941 C2.56282353,7.25364706 3.51152941,5.88329412 4.67105882,4.67105882 C5.83058824,3.51152941 7.25364706,2.56282353 8.88752941,1.87764706 C10.5214118,1.19247059 12.208,0.823529412 14,0.823529412 C15.792,0.823529412 17.4785882,1.19247059 19.1124706,1.87764706 C20.7463529,2.56282353 22.1167059,3.51152941 23.3289412,4.67105882 C24.4884706,5.88329412 25.3844706,7.30635294 26.1223529,8.88752941 Z M18.2691765,20.0611765 L20.4301176,9.88894118 C20.5355294,9.46729412 20.4828235,9.15105882 20.272,8.94023529 C20.0611765,8.72941176 19.8503529,8.72941176 19.5341176,8.83482353 L6.832,13.7364706 C6.56847059,13.8418824 6.35764706,13.9472941 6.25223529,14.1054118 C6.14682353,14.2635294 6.14682353,14.3689412 6.19952941,14.4743529 C6.25223529,14.5797647 6.41035294,14.6851765 6.67388235,14.7378824 L9.94164706,15.7392941 L17.4785882,10.9957647 C17.6894118,10.8376471 17.8475294,10.8376471 17.9529412,10.8903529 C18.0056471,10.9430588 18.0056471,10.9957647 17.9002353,11.1011765 L11.7863529,16.688 L11.5228235,20.0611765 C11.7336471,20.0611765 11.9444706,19.9557647 12.208,19.7449412 L13.7891765,18.2164706 L17.0569412,20.6409412 C17.7421176,21.0098824 18.1110588,20.7990588 18.2691765,20.0611765 Z" id="Shape" fill="#000000" fill-rule="nonzero"></path>
                    </g>
                </g>
            </g>
        </g>
    </g>
</svg>