<?xml version="1.0" encoding="UTF-8"?>
<svg width="22px" height="20px" viewBox="0 0 22 20" version="1.1" xmlns="http://www.w3.org/2000/svg" xmlns:xlink="http://www.w3.org/1999/xlink">
    <!-- Generator: Sketch 53.2 (72643) - https://sketchapp.com -->
    <title>twitter</title>
    <desc>Created with Sketch.</desc>
    <g id="Symbols" stroke="none" stroke-width="1" fill="none" fill-rule="evenodd">
        <g id="footer" transform="translate(-882.000000, -185.000000)" fill="#ffffff" fill-rule="nonzero">
            <g id="social">
                <g transform="translate(882.000000, 183.000000)">
                    <g id="twitter" transform="translate(0.000000, 2.000000)">
                        <path d="M22,2.37762238 C21.375,3.4032634 20.6041667,4.26573427 19.6875,4.96503497 C19.7291667,5.1048951 19.75,5.33799534 19.75,5.66433566 C19.75,7.01631702 19.5625,8.36829837 19.1875,9.72027972 C18.8125,11.0722611 18.2708333,12.3543124 17.5625,13.5664336 C16.8541667,14.7785548 16,15.8741259 15,16.8531469 C14,17.8321678 12.8125,18.6013986 11.4375,19.1608392 C10.0625,19.7202797 8.5625,20 6.9375,20 C4.39583333,20 2.08333333,19.2307692 0,17.6923077 C0.333333333,17.7389277 0.6875,17.7622378 1.0625,17.7622378 C3.14583333,17.7622378 5.02083333,17.0629371 6.6875,15.6643357 C5.6875,15.6177156 4.8125,15.2680653 4.0625,14.6153846 C3.3125,13.962704 2.77083333,13.1468531 2.4375,12.1678322 C2.77083333,12.2144522 3.0625,12.2377622 3.3125,12.2377622 C3.72916667,12.2377622 4.125,12.1678322 4.5,12.027972 C3.45833333,11.7948718 2.60416667,11.2121212 1.9375,10.2797203 C1.27083333,9.34731935 0.916666667,8.27505828 0.875,7.06293706 L0.875,7.06293706 C1.5,7.43589744 2.1875,7.64568765 2.9375,7.69230769 C2.3125,7.22610723 1.8125,6.62004662 1.4375,5.87412587 C1.0625,5.12820513 0.895833333,4.33566434 0.9375,3.4965035 C0.9375,2.56410256 1.125,1.7016317 1.5,0.909090909 C2.625,2.49417249 4,3.75291375 5.625,4.68531469 C7.25,5.61771562 8.97916667,6.13053613 10.8125,6.22377622 C10.7291667,5.8041958 10.6875,5.40792541 10.6875,5.03496503 C10.6875,3.63636364 11.125,2.44755245 12,1.46853147 C12.875,0.48951049 13.9375,0 15.1875,0 C16.5208333,0 17.625,0.536130536 18.5,1.60839161 C19.5,1.37529138 20.4583333,0.979020979 21.375,0.41958042 C21.0416667,1.58508159 20.375,2.49417249 19.375,3.14685315 C20.25,3.05361305 21.125,2.7972028 22,2.37762238 L22,2.37762238 Z" id="Path"></path>
                    </g>
                </g>
            </g>
        </g>
    </g>
</svg>