<svg xmlns="http://www.w3.org/2000/svg" width="507" height="487" viewBox="0 0 507 487">
  <g fill="none" fill-rule="evenodd" transform="translate(15 15)">
    <ellipse cx="238.235" cy="228.566" stroke="#E6F3FF" stroke-width="30.367" rx="237.84" ry="228.066"/>
    <path stroke="#E6F3FF" stroke-width="13.997" d="M248.616391,256.562296 L230.697886,238.733738 L297.103,167.213 L258.383,171.185 L350.271,91.187 L406.909,84.029 L342.579,142.954 L370.044,144.776 L248.616391,256.562296 Z M257.303655,265.205951 L278.361,263.065 L266.909791,274.763866 L257.303655,265.205951 Z M235.493171,306.859936 L127.763,416.92 L221.561725,292.998424 L235.493171,306.859936 Z M218.656844,290.108124 L176.485,297.123 L200.121404,271.665728 L218.656844,290.108124 Z"/>
    <g transform="translate(41 80)">
      <path stroke="#E6F3FF" stroke-width="13.875" d="M125.095406,157.810534 L156.771561,125.972698 L289.889131,258.422041 C288.389139,259.330506 286.621772,260.742881 284.883,262.49 L261.969,285.521 C260.364672,287.131316 259.046268,288.766328 258.144374,290.191624 L125.095406,157.810534 Z"/>
      <path fill="#E6F3FF" fill-rule="nonzero" d="M86.763,45.7996172 C91.266,50.2786172 82.322,58.459 72.021,68.812 L65.265,75.602 C54.962,85.956 47.205,94.5626172 42.701,90.0836172 L39.749,87.1446172 C35.245,82.6646172 35.699,66.793 46.002,56.439 L52.758,49.648 C63.058,39.296 79.306,38.3796172 83.809,42.8616172 L86.763,45.7996172 Z"/>
      <rect width="189.302" height="104.811" x="9.459" y="52.195" stroke="#E6F3FF" stroke-width="13.875" transform="rotate(-45.146 104.11 104.6)"/>
      <path stroke="#E6F3FF" stroke-width="13.875" d="M325.023,288.856 C326.069,289.895 323.88,293.794 320.129,297.56 L297.215,320.591 C293.469,324.358 289.582,326.57 288.535,325.527 L257.074,294.225 C256.03,293.186 258.218,289.286 261.969,285.521 L284.883,262.49 C288.633,258.722 292.516,256.511 293.563,257.554 L325.023,288.856 Z"/>
    </g>
  </g>
</svg>
